<?xml version="1.0" encoding="UTF-8" standalone="no"?>
<!DOCTYPE svg PUBLIC "-//W3C//DTD SVG 1.1//EN"
 "http://www.w3.org/Graphics/SVG/1.1/DTD/svg11.dtd">
<!-- Generated by graphviz version 2.43.0 (0)
 -->
<!-- Title: G Pages: 1 -->
<svg width="1897pt" height="275pt"
 viewBox="0.00 0.00 1896.80 275.00" xmlns="http://www.w3.org/2000/svg" xmlns:xlink="http://www.w3.org/1999/xlink">
<g id="graph0" class="graph" transform="scale(1 1) rotate(0) translate(4 271)">
<title>G</title>
<polygon fill="#4a4a4a" stroke="transparent" points="-4,4 -4,-271 1892.8,-271 1892.8,4 -4,4"/>
<!-- n_0 -->
<g id="node1" class="node">
<title>n_0</title>
<ellipse fill="white" stroke="white" cx="291.8" cy="-243.5" rx="1.8" ry="1.8"/>
<text text-anchor="middle" x="285" y="-230.5" font-family="Times,serif" font-size="14.00" fill="white">1</text>
</g>
<!-- e_0 -->
<g id="node21" class="node">
<title>e_0</title>
<path fill="none" stroke="white" d="M395.6,-230.5C395.6,-230.5 475.6,-230.5 475.6,-230.5 481.6,-230.5 487.6,-236.5 487.6,-242.5 487.6,-242.5 487.6,-254.5 487.6,-254.5 487.6,-260.5 481.6,-266.5 475.6,-266.5 475.6,-266.5 395.6,-266.5 395.6,-266.5 389.6,-266.5 383.6,-260.5 383.6,-254.5 383.6,-254.5 383.6,-242.5 383.6,-242.5 383.6,-236.5 389.6,-230.5 395.6,-230.5"/>
<text text-anchor="middle" x="394.1" y="-244.8" font-family="Times,serif" font-size="14.00" fill="white"> </text>
<polyline fill="none" stroke="white" points="404.6,-230.5 404.6,-266.5 "/>
<text text-anchor="middle" x="446.1" y="-244.8" font-family="Times,serif" font-size="14.00" fill="white">unit.drop</text>
</g>
<!-- n_0&#45;&gt;e_0 -->
<g id="edge4" class="edge">
<title>n_0&#45;&gt;e_0:s_0</title>
<path fill="none" stroke="white" d="M293.68,-243.59C300.53,-244.25 345.75,-248.5 382.6,-248.5"/>
</g>
<!-- n_1 -->
<g id="node2" class="node">
<title>n_1</title>
<ellipse fill="white" stroke="white" cx="291.8" cy="-206.5" rx="1.8" ry="1.8"/>
<text text-anchor="middle" x="145" y="-193.5" font-family="Times,serif" font-size="14.00" fill="white">val(buf(cap.own, u64, f32)) * val(ix(u64))</text>
</g>
<!-- e_1 -->
<g id="node22" class="node">
<title>e_1</title>
<path fill="none" stroke="white" d="M341.6,-165.5C341.6,-165.5 529.6,-165.5 529.6,-165.5 535.6,-165.5 541.6,-171.5 541.6,-177.5 541.6,-177.5 541.6,-199.5 541.6,-199.5 541.6,-205.5 535.6,-211.5 529.6,-211.5 529.6,-211.5 341.6,-211.5 341.6,-211.5 335.6,-211.5 329.6,-205.5 329.6,-199.5 329.6,-199.5 329.6,-177.5 329.6,-177.5 329.6,-171.5 335.6,-165.5 341.6,-165.5"/>
<text text-anchor="middle" x="340.1" y="-184.8" font-family="Times,serif" font-size="14.00" fill="white"> </text>
<polyline fill="none" stroke="white" points="350.6,-165.5 350.6,-211.5 "/>
<text text-anchor="middle" x="435.6" y="-184.8" font-family="Times,serif" font-size="14.00" fill="white">f32.pool.payload.elim</text>
<polyline fill="none" stroke="white" points="520.6,-165.5 520.6,-211.5 "/>
<text text-anchor="middle" x="531.1" y="-196.3" font-family="Times,serif" font-size="14.00" fill="white"> </text>
<polyline fill="none" stroke="white" points="520.6,-188.5 541.6,-188.5 "/>
<text text-anchor="middle" x="531.1" y="-173.3" font-family="Times,serif" font-size="14.00" fill="white"> </text>
</g>
<!-- n_1&#45;&gt;e_1 -->
<g id="edge5" class="edge">
<title>n_1&#45;&gt;e_1:s_0</title>
<path fill="none" stroke="white" d="M293.63,-205.73C297.44,-202.28 313.67,-188.5 329.6,-188.5"/>
</g>
<!-- n_2 -->
<g id="node3" class="node">
<title>n_2</title>
<ellipse fill="white" stroke="white" cx="671.7" cy="-210.5" rx="1.8" ry="1.8"/>
<text text-anchor="middle" x="573.4" y="-216.1" font-family="Times,serif" font-size="14.00" fill="white">val(buf(cap.own, u64, f32))</text>
</g>
<!-- e_8 -->
<g id="node29" class="node">
<title>e_8</title>
<path fill="none" stroke="white" d="M813.8,-175.5C813.8,-175.5 932.8,-175.5 932.8,-175.5 938.8,-175.5 944.8,-181.5 944.8,-187.5 944.8,-187.5 944.8,-209.5 944.8,-209.5 944.8,-215.5 938.8,-221.5 932.8,-221.5 932.8,-221.5 813.8,-221.5 813.8,-221.5 807.8,-221.5 801.8,-215.5 801.8,-209.5 801.8,-209.5 801.8,-187.5 801.8,-187.5 801.8,-181.5 807.8,-175.5 813.8,-175.5"/>
<text text-anchor="middle" x="812.3" y="-206.3" font-family="Times,serif" font-size="14.00" fill="white"> </text>
<polyline fill="none" stroke="white" points="801.8,-198.5 822.8,-198.5 "/>
<text text-anchor="middle" x="812.3" y="-183.3" font-family="Times,serif" font-size="14.00" fill="white"> </text>
<polyline fill="none" stroke="white" points="822.8,-175.5 822.8,-221.5 "/>
<text text-anchor="middle" x="873.3" y="-194.8" font-family="Times,serif" font-size="14.00" fill="white">f32.buf.load</text>
<polyline fill="none" stroke="white" points="923.8,-175.5 923.8,-221.5 "/>
<text text-anchor="middle" x="934.3" y="-206.3" font-family="Times,serif" font-size="14.00" fill="white"> </text>
<polyline fill="none" stroke="white" points="923.8,-198.5 944.8,-198.5 "/>
<text text-anchor="middle" x="934.3" y="-183.3" font-family="Times,serif" font-size="14.00" fill="white"> </text>
</g>
<!-- n_2&#45;&gt;e_8 -->
<g id="edge22" class="edge">
<title>n_2&#45;&gt;e_8:s_0</title>
<path fill="none" stroke="white" d="M673.52,-210.5C681.61,-210.5 748.01,-210.5 801.8,-210.5"/>
</g>
<!-- n_3 -->
<g id="node4" class="node">
<title>n_3</title>
<ellipse fill="white" stroke="white" cx="579.4" cy="-173.5" rx="1.8" ry="1.8"/>
<text text-anchor="middle" x="540.2" y="-160.5" font-family="Times,serif" font-size="14.00" fill="white">val(ix(u64))</text>
</g>
<!-- e_2 -->
<g id="node23" class="node">
<title>e_2</title>
<path fill="none" stroke="white" d="M629.2,-144.5C629.2,-144.5 714.2,-144.5 714.2,-144.5 720.2,-144.5 726.2,-150.5 726.2,-156.5 726.2,-156.5 726.2,-178.5 726.2,-178.5 726.2,-184.5 720.2,-190.5 714.2,-190.5 714.2,-190.5 629.2,-190.5 629.2,-190.5 623.2,-190.5 617.2,-184.5 617.2,-178.5 617.2,-178.5 617.2,-156.5 617.2,-156.5 617.2,-150.5 623.2,-144.5 629.2,-144.5"/>
<text text-anchor="middle" x="627.7" y="-163.8" font-family="Times,serif" font-size="14.00" fill="white"> </text>
<polyline fill="none" stroke="white" points="638.2,-144.5 638.2,-190.5 "/>
<text text-anchor="middle" x="671.7" y="-163.8" font-family="Times,serif" font-size="14.00" fill="white">ix.copy</text>
<polyline fill="none" stroke="white" points="705.2,-144.5 705.2,-190.5 "/>
<text text-anchor="middle" x="715.7" y="-175.3" font-family="Times,serif" font-size="14.00" fill="white"> </text>
<polyline fill="none" stroke="white" points="705.2,-167.5 726.2,-167.5 "/>
<text text-anchor="middle" x="715.7" y="-152.3" font-family="Times,serif" font-size="14.00" fill="white"> </text>
</g>
<!-- n_3&#45;&gt;e_2 -->
<g id="edge8" class="edge">
<title>n_3&#45;&gt;e_2:s_0</title>
<path fill="none" stroke="white" d="M581.3,-173.24C585.4,-172.09 602.7,-167.5 617.2,-167.5"/>
</g>
<!-- n_4 -->
<g id="node5" class="node">
<title>n_4</title>
<ellipse fill="white" stroke="white" cx="764" cy="-179.5" rx="1.8" ry="1.8"/>
<text text-anchor="middle" x="806.8" y="-166.5" font-family="Times,serif" font-size="14.00" fill="white">val(ix(u64))</text>
</g>
<!-- n_4&#45;&gt;e_8 -->
<g id="edge23" class="edge">
<title>n_4&#45;&gt;e_8:s_1</title>
<path fill="none" stroke="white" d="M765.9,-179.8C769.98,-181.14 787.23,-186.5 801.8,-186.5"/>
</g>
<!-- n_5 -->
<g id="node6" class="node">
<title>n_5</title>
<ellipse fill="white" stroke="white" cx="764" cy="-144.5" rx="1.8" ry="1.8"/>
<text text-anchor="middle" x="721.2" y="-131.5" font-family="Times,serif" font-size="14.00" fill="white">val(ix(u64))</text>
</g>
<!-- e_3 -->
<g id="node24" class="node">
<title>e_3</title>
<path fill="none" stroke="white" d="M830.8,-110.5C830.8,-110.5 915.8,-110.5 915.8,-110.5 921.8,-110.5 927.8,-116.5 927.8,-122.5 927.8,-122.5 927.8,-144.5 927.8,-144.5 927.8,-150.5 921.8,-156.5 915.8,-156.5 915.8,-156.5 830.8,-156.5 830.8,-156.5 824.8,-156.5 818.8,-150.5 818.8,-144.5 818.8,-144.5 818.8,-122.5 818.8,-122.5 818.8,-116.5 824.8,-110.5 830.8,-110.5"/>
<text text-anchor="middle" x="829.3" y="-129.8" font-family="Times,serif" font-size="14.00" fill="white"> </text>
<polyline fill="none" stroke="white" points="839.8,-110.5 839.8,-156.5 "/>
<text text-anchor="middle" x="873.3" y="-129.8" font-family="Times,serif" font-size="14.00" fill="white">ix.copy</text>
<polyline fill="none" stroke="white" points="906.8,-110.5 906.8,-156.5 "/>
<text text-anchor="middle" x="917.3" y="-141.3" font-family="Times,serif" font-size="14.00" fill="white"> </text>
<polyline fill="none" stroke="white" points="906.8,-133.5 927.8,-133.5 "/>
<text text-anchor="middle" x="917.3" y="-118.3" font-family="Times,serif" font-size="14.00" fill="white"> </text>
</g>
<!-- n_5&#45;&gt;e_3 -->
<g id="edge11" class="edge">
<title>n_5&#45;&gt;e_3:s_0</title>
<path fill="none" stroke="white" d="M766.27,-144.03C772.06,-141.92 796.52,-133.5 817.3,-133.5"/>
</g>
<!-- n_6 -->
<g id="node7" class="node">
<title>n_6</title>
<ellipse fill="white" stroke="white" cx="982.6" cy="-141.5" rx="1.8" ry="1.8"/>
<text text-anchor="middle" x="1025.4" y="-147.1" font-family="Times,serif" font-size="14.00" fill="white">val(ix(u64))</text>
</g>
<!-- e_6 -->
<g id="node27" class="node">
<title>e_6</title>
<path fill="none" stroke="white" d="M1032.4,-100.5C1032.4,-100.5 1109.4,-100.5 1109.4,-100.5 1115.4,-100.5 1121.4,-106.5 1121.4,-112.5 1121.4,-112.5 1121.4,-134.5 1121.4,-134.5 1121.4,-140.5 1115.4,-146.5 1109.4,-146.5 1109.4,-146.5 1032.4,-146.5 1032.4,-146.5 1026.4,-146.5 1020.4,-140.5 1020.4,-134.5 1020.4,-134.5 1020.4,-112.5 1020.4,-112.5 1020.4,-106.5 1026.4,-100.5 1032.4,-100.5"/>
<text text-anchor="middle" x="1030.9" y="-131.3" font-family="Times,serif" font-size="14.00" fill="white"> </text>
<polyline fill="none" stroke="white" points="1020.4,-123.5 1041.4,-123.5 "/>
<text text-anchor="middle" x="1030.9" y="-108.3" font-family="Times,serif" font-size="14.00" fill="white"> </text>
<polyline fill="none" stroke="white" points="1041.4,-100.5 1041.4,-146.5 "/>
<text text-anchor="middle" x="1070.9" y="-119.8" font-family="Times,serif" font-size="14.00" fill="white">ix.sub</text>
<polyline fill="none" stroke="white" points="1100.4,-100.5 1100.4,-146.5 "/>
<text text-anchor="middle" x="1110.9" y="-119.8" font-family="Times,serif" font-size="14.00" fill="white"> </text>
</g>
<!-- n_6&#45;&gt;e_6 -->
<g id="edge16" class="edge">
<title>n_6&#45;&gt;e_6:s_0</title>
<path fill="none" stroke="white" d="M984.5,-141.24C988.6,-140.09 1005.9,-135.5 1020.4,-135.5"/>
</g>
<!-- n_7 -->
<g id="node8" class="node">
<title>n_7</title>
<ellipse fill="white" stroke="white" cx="982.6" cy="-107.5" rx="1.8" ry="1.8"/>
<text text-anchor="middle" x="943.4" y="-94.5" font-family="Times,serif" font-size="14.00" fill="white">val(ix(u64))</text>
</g>
<!-- e_7 -->
<g id="node28" class="node">
<title>e_7</title>
<path fill="none" stroke="white" d="M1032.4,-35.5C1032.4,-35.5 1109.4,-35.5 1109.4,-35.5 1115.4,-35.5 1121.4,-41.5 1121.4,-47.5 1121.4,-47.5 1121.4,-69.5 1121.4,-69.5 1121.4,-75.5 1115.4,-81.5 1109.4,-81.5 1109.4,-81.5 1032.4,-81.5 1032.4,-81.5 1026.4,-81.5 1020.4,-75.5 1020.4,-69.5 1020.4,-69.5 1020.4,-47.5 1020.4,-47.5 1020.4,-41.5 1026.4,-35.5 1032.4,-35.5"/>
<text text-anchor="middle" x="1030.9" y="-66.3" font-family="Times,serif" font-size="14.00" fill="white"> </text>
<polyline fill="none" stroke="white" points="1020.4,-58.5 1041.4,-58.5 "/>
<text text-anchor="middle" x="1030.9" y="-43.3" font-family="Times,serif" font-size="14.00" fill="white"> </text>
<polyline fill="none" stroke="white" points="1041.4,-35.5 1041.4,-81.5 "/>
<text text-anchor="middle" x="1070.9" y="-54.8" font-family="Times,serif" font-size="14.00" fill="white">ix.sub</text>
<polyline fill="none" stroke="white" points="1100.4,-35.5 1100.4,-81.5 "/>
<text text-anchor="middle" x="1110.9" y="-54.8" font-family="Times,serif" font-size="14.00" fill="white"> </text>
</g>
<!-- n_7&#45;&gt;e_7 -->
<g id="edge19" class="edge">
<title>n_7&#45;&gt;e_7:s_0</title>
<path fill="none" stroke="white" d="M984.23,-105.91C987.15,-98.83 1000.11,-70.5 1020.4,-70.5"/>
</g>
<!-- n_8 -->
<g id="node9" class="node">
<title>n_8</title>
<ellipse fill="white" stroke="white" cx="982.6" cy="-79.5" rx="1.8" ry="1.8"/>
<text text-anchor="middle" x="951.3" y="-66.5" font-family="Times,serif" font-size="14.00" fill="white">val(u64)</text>
</g>
<!-- n_8&#45;&gt;e_6 -->
<g id="edge17" class="edge">
<title>n_8&#45;&gt;e_6:s_1</title>
<path fill="none" stroke="white" d="M984.29,-80.88C987.48,-87 1001.43,-111.5 1020.4,-111.5"/>
</g>
<!-- n_9 -->
<g id="node10" class="node">
<title>n_9</title>
<ellipse fill="white" stroke="white" cx="982.6" cy="-34.5" rx="1.8" ry="1.8"/>
<text text-anchor="middle" x="951.3" y="-21.5" font-family="Times,serif" font-size="14.00" fill="white">val(u64)</text>
</g>
<!-- n_9&#45;&gt;e_7 -->
<g id="edge20" class="edge">
<title>n_9&#45;&gt;e_7:s_1</title>
<path fill="none" stroke="white" d="M984.48,-35.02C988.46,-37.31 1005.35,-46.5 1020.4,-46.5"/>
</g>
<!-- n_10 -->
<g id="node11" class="node">
<title>n_10</title>
<ellipse fill="white" stroke="white" cx="1159.2" cy="-122.5" rx="1.8" ry="1.8"/>
<text text-anchor="middle" x="1202" y="-109.5" font-family="Times,serif" font-size="14.00" fill="white">val(ix(u64))</text>
</g>
<!-- e_9 -->
<g id="node30" class="node">
<title>e_9</title>
<path fill="none" stroke="white" d="M1209,-111.5C1209,-111.5 1328,-111.5 1328,-111.5 1334,-111.5 1340,-117.5 1340,-123.5 1340,-123.5 1340,-145.5 1340,-145.5 1340,-151.5 1334,-157.5 1328,-157.5 1328,-157.5 1209,-157.5 1209,-157.5 1203,-157.5 1197,-151.5 1197,-145.5 1197,-145.5 1197,-123.5 1197,-123.5 1197,-117.5 1203,-111.5 1209,-111.5"/>
<text text-anchor="middle" x="1207.5" y="-142.3" font-family="Times,serif" font-size="14.00" fill="white"> </text>
<polyline fill="none" stroke="white" points="1197,-134.5 1218,-134.5 "/>
<text text-anchor="middle" x="1207.5" y="-119.3" font-family="Times,serif" font-size="14.00" fill="white"> </text>
<polyline fill="none" stroke="white" points="1218,-111.5 1218,-157.5 "/>
<text text-anchor="middle" x="1268.5" y="-130.8" font-family="Times,serif" font-size="14.00" fill="white">f32.buf.load</text>
<polyline fill="none" stroke="white" points="1319,-111.5 1319,-157.5 "/>
<text text-anchor="middle" x="1329.5" y="-142.3" font-family="Times,serif" font-size="14.00" fill="white"> </text>
<polyline fill="none" stroke="white" points="1319,-134.5 1340,-134.5 "/>
<text text-anchor="middle" x="1329.5" y="-119.3" font-family="Times,serif" font-size="14.00" fill="white"> </text>
</g>
<!-- n_10&#45;&gt;e_9 -->
<g id="edge27" class="edge">
<title>n_10&#45;&gt;e_9:s_1</title>
<path fill="none" stroke="white" d="M1161.11,-122.5C1165.25,-122.5 1182.69,-122.5 1197,-122.5"/>
</g>
<!-- n_11 -->
<g id="node12" class="node">
<title>n_11</title>
<ellipse fill="white" stroke="white" cx="1159.2" cy="-63.5" rx="1.8" ry="1.8"/>
<text text-anchor="middle" x="1202" y="-50.5" font-family="Times,serif" font-size="14.00" fill="white">val(ix(u64))</text>
</g>
<!-- e_10 -->
<g id="node31" class="node">
<title>e_10</title>
<path fill="none" stroke="white" d="M1427.6,-61.5C1427.6,-61.5 1546.6,-61.5 1546.6,-61.5 1552.6,-61.5 1558.6,-67.5 1558.6,-73.5 1558.6,-73.5 1558.6,-95.5 1558.6,-95.5 1558.6,-101.5 1552.6,-107.5 1546.6,-107.5 1546.6,-107.5 1427.6,-107.5 1427.6,-107.5 1421.6,-107.5 1415.6,-101.5 1415.6,-95.5 1415.6,-95.5 1415.6,-73.5 1415.6,-73.5 1415.6,-67.5 1421.6,-61.5 1427.6,-61.5"/>
<text text-anchor="middle" x="1426.1" y="-92.3" font-family="Times,serif" font-size="14.00" fill="white"> </text>
<polyline fill="none" stroke="white" points="1415.6,-84.5 1436.6,-84.5 "/>
<text text-anchor="middle" x="1426.1" y="-69.3" font-family="Times,serif" font-size="14.00" fill="white"> </text>
<polyline fill="none" stroke="white" points="1436.6,-61.5 1436.6,-107.5 "/>
<text text-anchor="middle" x="1487.1" y="-80.8" font-family="Times,serif" font-size="14.00" fill="white">f32.buf.load</text>
<polyline fill="none" stroke="white" points="1537.6,-61.5 1537.6,-107.5 "/>
<text text-anchor="middle" x="1548.1" y="-92.3" font-family="Times,serif" font-size="14.00" fill="white"> </text>
<polyline fill="none" stroke="white" points="1537.6,-84.5 1558.6,-84.5 "/>
<text text-anchor="middle" x="1548.1" y="-69.3" font-family="Times,serif" font-size="14.00" fill="white"> </text>
</g>
<!-- n_11&#45;&gt;e_10 -->
<g id="edge31" class="edge">
<title>n_11&#45;&gt;e_10:s_1</title>
<path fill="none" stroke="white" d="M1161.12,-63.56C1173.43,-64.32 1307.34,-72.5 1415.6,-72.5"/>
</g>
<!-- n_12 -->
<g id="node13" class="node">
<title>n_12</title>
<ellipse fill="white" stroke="white" cx="1070.9" cy="-214.5" rx="1.8" ry="1.8"/>
<text text-anchor="middle" x="1169.2" y="-201.5" font-family="Times,serif" font-size="14.00" fill="white">val(buf(cap.own, u64, f32))</text>
</g>
<!-- n_12&#45;&gt;e_9 -->
<g id="edge26" class="edge">
<title>n_12&#45;&gt;e_9:s_0</title>
<path fill="none" stroke="white" d="M1072.77,-214.19C1084.31,-210.1 1207.5,-166.27 1207.5,-158.5"/>
</g>
<!-- n_13 -->
<g id="node14" class="node">
<title>n_13</title>
<ellipse fill="white" stroke="white" cx="1268.5" cy="-177.5" rx="1.8" ry="1.8"/>
<text text-anchor="middle" x="1239.2" y="-164.5" font-family="Times,serif" font-size="14.00" fill="white">val(f32)</text>
</g>
<!-- e_12 -->
<g id="node33" class="node">
<title>e_12</title>
<path fill="none" stroke="white" d="M1442.6,-136.5C1442.6,-136.5 1531.6,-136.5 1531.6,-136.5 1537.6,-136.5 1543.6,-142.5 1543.6,-148.5 1543.6,-148.5 1543.6,-170.5 1543.6,-170.5 1543.6,-176.5 1537.6,-182.5 1531.6,-182.5 1531.6,-182.5 1442.6,-182.5 1442.6,-182.5 1436.6,-182.5 1430.6,-176.5 1430.6,-170.5 1430.6,-170.5 1430.6,-148.5 1430.6,-148.5 1430.6,-142.5 1436.6,-136.5 1442.6,-136.5"/>
<text text-anchor="middle" x="1441.1" y="-167.3" font-family="Times,serif" font-size="14.00" fill="white"> </text>
<polyline fill="none" stroke="white" points="1430.6,-159.5 1451.6,-159.5 "/>
<text text-anchor="middle" x="1441.1" y="-144.3" font-family="Times,serif" font-size="14.00" fill="white"> </text>
<polyline fill="none" stroke="white" points="1451.6,-136.5 1451.6,-182.5 "/>
<text text-anchor="middle" x="1487.1" y="-155.8" font-family="Times,serif" font-size="14.00" fill="white">f32.add</text>
<polyline fill="none" stroke="white" points="1522.6,-136.5 1522.6,-182.5 "/>
<text text-anchor="middle" x="1533.1" y="-155.8" font-family="Times,serif" font-size="14.00" fill="white"> </text>
</g>
<!-- n_13&#45;&gt;e_12 -->
<g id="edge35" class="edge">
<title>n_13&#45;&gt;e_12:s_0</title>
<path fill="none" stroke="white" d="M1270.51,-177.43C1280.51,-176.77 1362.55,-171.5 1429.1,-171.5"/>
</g>
<!-- n_14 -->
<g id="node15" class="node">
<title>n_14</title>
<ellipse fill="white" stroke="white" cx="1377.8" cy="-145.5" rx="1.8" ry="1.8"/>
<text text-anchor="middle" x="1476.1" y="-132.5" font-family="Times,serif" font-size="14.00" fill="white">val(buf(cap.own, u64, f32))</text>
</g>
<!-- n_14&#45;&gt;e_10 -->
<g id="edge30" class="edge">
<title>n_14&#45;&gt;e_10:s_0</title>
<path fill="none" stroke="white" d="M1379.62,-145.08C1385.9,-141.87 1426.1,-120.8 1426.1,-108.5"/>
</g>
<!-- n_15 -->
<g id="node16" class="node">
<title>n_15</title>
<ellipse fill="white" stroke="white" cx="1377.8" cy="-122.5" rx="1.8" ry="1.8"/>
<text text-anchor="middle" x="1407.1" y="-115.5" font-family="Times,serif" font-size="14.00" fill="white">val(f32)</text>
</g>
<!-- n_15&#45;&gt;e_12 -->
<g id="edge36" class="edge">
<title>n_15&#45;&gt;e_12:s_1</title>
<path fill="none" stroke="white" d="M1379.94,-123.57C1385.13,-128.36 1407.26,-147.5 1429.1,-147.5"/>
</g>
<!-- n_16 -->
<g id="node17" class="node">
<title>n_16</title>
<ellipse fill="white" stroke="white" cx="1596.4" cy="-95.5" rx="1.8" ry="1.8"/>
<text text-anchor="middle" x="1694.7" y="-101.1" font-family="Times,serif" font-size="14.00" fill="white">val(buf(cap.own, u64, f32))</text>
</g>
<!-- e_11 -->
<g id="node32" class="node">
<title>e_11</title>
<path fill="none" stroke="white" d="M1646.2,-69.5C1646.2,-69.5 1747.2,-69.5 1747.2,-69.5 1753.2,-69.5 1759.2,-75.5 1759.2,-81.5 1759.2,-81.5 1759.2,-93.5 1759.2,-93.5 1759.2,-99.5 1753.2,-105.5 1747.2,-105.5 1747.2,-105.5 1646.2,-105.5 1646.2,-105.5 1640.2,-105.5 1634.2,-99.5 1634.2,-93.5 1634.2,-93.5 1634.2,-81.5 1634.2,-81.5 1634.2,-75.5 1640.2,-69.5 1646.2,-69.5"/>
<text text-anchor="middle" x="1644.7" y="-83.8" font-family="Times,serif" font-size="14.00" fill="white"> </text>
<polyline fill="none" stroke="white" points="1655.2,-69.5 1655.2,-105.5 "/>
<text text-anchor="middle" x="1707.2" y="-83.8" font-family="Times,serif" font-size="14.00" fill="white">f32.buf.drop</text>
</g>
<!-- n_16&#45;&gt;e_11 -->
<g id="edge34" class="edge">
<title>n_16&#45;&gt;e_11:s_0</title>
<path fill="none" stroke="white" d="M1598.29,-95.16C1602.36,-93.62 1619.55,-87.5 1634.2,-87.5"/>
</g>
<!-- n_17 -->
<g id="node18" class="node">
<title>n_17</title>
<ellipse fill="white" stroke="white" cx="1596.4" cy="-73.5" rx="1.8" ry="1.8"/>
<text text-anchor="middle" x="1625.7" y="-60.5" font-family="Times,serif" font-size="14.00" fill="white">val(f32)</text>
</g>
<!-- e_13 -->
<g id="node34" class="node">
<title>e_13</title>
<path fill="none" stroke="white" d="M1652.2,-124.5C1652.2,-124.5 1741.2,-124.5 1741.2,-124.5 1747.2,-124.5 1753.2,-130.5 1753.2,-136.5 1753.2,-136.5 1753.2,-158.5 1753.2,-158.5 1753.2,-164.5 1747.2,-170.5 1741.2,-170.5 1741.2,-170.5 1652.2,-170.5 1652.2,-170.5 1646.2,-170.5 1640.2,-164.5 1640.2,-158.5 1640.2,-158.5 1640.2,-136.5 1640.2,-136.5 1640.2,-130.5 1646.2,-124.5 1652.2,-124.5"/>
<text text-anchor="middle" x="1650.7" y="-155.3" font-family="Times,serif" font-size="14.00" fill="white"> </text>
<polyline fill="none" stroke="white" points="1640.2,-147.5 1661.2,-147.5 "/>
<text text-anchor="middle" x="1650.7" y="-132.3" font-family="Times,serif" font-size="14.00" fill="white"> </text>
<polyline fill="none" stroke="white" points="1661.2,-124.5 1661.2,-170.5 "/>
<text text-anchor="middle" x="1696.7" y="-143.8" font-family="Times,serif" font-size="14.00" fill="white">f32.add</text>
<polyline fill="none" stroke="white" points="1732.2,-124.5 1732.2,-170.5 "/>
<text text-anchor="middle" x="1742.7" y="-143.8" font-family="Times,serif" font-size="14.00" fill="white"> </text>
</g>
<!-- n_17&#45;&gt;e_13 -->
<g id="edge39" class="edge">
<title>n_17&#45;&gt;e_13:s_1</title>
<path fill="none" stroke="white" d="M1598.19,-74.64C1601.82,-79.79 1617.4,-101.21 1634.2,-114.5 1640.75,-119.68 1650.7,-115.15 1650.7,-123.5"/>
</g>
<!-- n_18 -->
<g id="node19" class="node">
<title>n_18</title>
<ellipse fill="white" stroke="white" cx="1596.4" cy="-159.5" rx="1.8" ry="1.8"/>
<text text-anchor="middle" x="1570.7" y="-165.1" font-family="Times,serif" font-size="14.00" fill="white">val(f32)</text>
</g>
<!-- n_18&#45;&gt;e_13 -->
<g id="edge38" class="edge">
<title>n_18&#45;&gt;e_13:s_0</title>
<path fill="none" stroke="white" d="M1598.42,-159.5C1603.06,-159.5 1622.64,-159.5 1638.7,-159.5"/>
</g>
<!-- n_19 -->
<g id="node20" class="node">
<title>n_19</title>
<ellipse fill="white" stroke="white" cx="1797" cy="-147.5" rx="1.8" ry="1.8"/>
<text text-anchor="middle" x="1771.3" y="-134.5" font-family="Times,serif" font-size="14.00" fill="white">val(f32)</text>
</g>
<!-- targets -->
<g id="node36" class="node">
<title>targets</title>
</g>
<!-- n_19&#45;&gt;targets -->
<g id="edge3" class="edge">
<title>n_19&#45;&gt;targets:p_0</title>
<path fill="none" stroke="white" stroke-dasharray="5,2" d="M1798.91,-147.5C1803.05,-147.5 1820.49,-147.5 1834.8,-147.5"/>
</g>
<!-- e_1&#45;&gt;n_2 -->
<g id="edge6" class="edge">
<title>e_1:t_0&#45;&gt;n_2</title>
<path fill="none" stroke="white" d="M541.6,-200.5C595.55,-200.5 661.81,-209.29 669.88,-210.39"/>
</g>
<!-- e_1&#45;&gt;n_3 -->
<g id="edge7" class="edge">
<title>e_1:t_1&#45;&gt;n_3</title>
<path fill="none" stroke="white" d="M541.6,-176.5C555.96,-176.5 573.36,-174.2 577.49,-173.63"/>
</g>
<!-- e_2&#45;&gt;n_4 -->
<g id="edge9" class="edge">
<title>e_2:t_0&#45;&gt;n_4</title>
<path fill="none" stroke="white" d="M726.2,-179.5C740.51,-179.5 757.95,-179.5 762.09,-179.5"/>
</g>
<!-- e_2&#45;&gt;n_5 -->
<g id="edge10" class="edge">
<title>e_2:t_1&#45;&gt;n_5</title>
<path fill="none" stroke="white" d="M726.2,-155.5C741.14,-155.5 758.11,-147.08 762.12,-144.97"/>
</g>
<!-- e_3&#45;&gt;n_6 -->
<g id="edge12" class="edge">
<title>e_3:t_0&#45;&gt;n_6</title>
<path fill="none" stroke="white" d="M929.3,-145.5C949.7,-145.5 974.44,-142.44 980.31,-141.67"/>
</g>
<!-- e_3&#45;&gt;n_7 -->
<g id="edge13" class="edge">
<title>e_3:t_1&#45;&gt;n_7</title>
<path fill="none" stroke="white" d="M929.3,-121.5C950.35,-121.5 974.61,-110.78 980.34,-108.1"/>
</g>
<!-- e_4 -->
<g id="node25" class="node">
<title>e_4</title>
<path fill="none" stroke="white" d="M837.8,-55.5C837.8,-55.5 908.8,-55.5 908.8,-55.5 914.8,-55.5 920.8,-61.5 920.8,-67.5 920.8,-67.5 920.8,-79.5 920.8,-79.5 920.8,-85.5 914.8,-91.5 908.8,-91.5 908.8,-91.5 837.8,-91.5 837.8,-91.5 831.8,-91.5 825.8,-85.5 825.8,-79.5 825.8,-79.5 825.8,-67.5 825.8,-67.5 825.8,-61.5 831.8,-55.5 837.8,-55.5"/>
<text text-anchor="middle" x="862.8" y="-69.8" font-family="Times,serif" font-size="14.00" fill="white">u64.one</text>
<polyline fill="none" stroke="white" points="899.8,-55.5 899.8,-91.5 "/>
<text text-anchor="middle" x="910.3" y="-69.8" font-family="Times,serif" font-size="14.00" fill="white"> </text>
</g>
<!-- e_4&#45;&gt;n_8 -->
<g id="edge14" class="edge">
<title>e_4:t_0&#45;&gt;n_8</title>
<path fill="none" stroke="white" d="M922.3,-73.5C946.31,-73.5 975.5,-78.43 980.77,-79.35"/>
</g>
<!-- e_5 -->
<g id="node26" class="node">
<title>e_5</title>
<path fill="none" stroke="white" d="M837.8,-0.5C837.8,-0.5 908.8,-0.5 908.8,-0.5 914.8,-0.5 920.8,-6.5 920.8,-12.5 920.8,-12.5 920.8,-24.5 920.8,-24.5 920.8,-30.5 914.8,-36.5 908.8,-36.5 908.8,-36.5 837.8,-36.5 837.8,-36.5 831.8,-36.5 825.8,-30.5 825.8,-24.5 825.8,-24.5 825.8,-12.5 825.8,-12.5 825.8,-6.5 831.8,-0.5 837.8,-0.5"/>
<text text-anchor="middle" x="862.8" y="-14.8" font-family="Times,serif" font-size="14.00" fill="white">u64.two</text>
<polyline fill="none" stroke="white" points="899.8,-0.5 899.8,-36.5 "/>
<text text-anchor="middle" x="910.3" y="-14.8" font-family="Times,serif" font-size="14.00" fill="white"> </text>
</g>
<!-- e_5&#45;&gt;n_9 -->
<g id="edge15" class="edge">
<title>e_5:t_0&#45;&gt;n_9</title>
<path fill="none" stroke="white" d="M922.3,-18.5C947.04,-18.5 975.64,-31.64 980.79,-34.1"/>
</g>
<!-- e_6&#45;&gt;n_10 -->
<g id="edge18" class="edge">
<title>e_6:t_0&#45;&gt;n_10</title>
<path fill="none" stroke="white" d="M1121.4,-123.5C1135.72,-123.5 1153.15,-122.73 1157.29,-122.54"/>
</g>
<!-- e_7&#45;&gt;n_11 -->
<g id="edge21" class="edge">
<title>e_7:t_0&#45;&gt;n_11</title>
<path fill="none" stroke="white" d="M1121.4,-58.5C1135.84,-58.5 1153.19,-62.33 1157.3,-63.29"/>
</g>
<!-- e_8&#45;&gt;n_12 -->
<g id="edge24" class="edge">
<title>e_8:t_0&#45;&gt;n_12</title>
<path fill="none" stroke="white" d="M944.8,-210.5C996.52,-210.5 1060.2,-213.96 1068.9,-214.44"/>
</g>
<!-- e_8&#45;&gt;n_13 -->
<g id="edge25" class="edge">
<title>e_8:t_1&#45;&gt;n_13</title>
<path fill="none" stroke="white" d="M944.8,-186.5C1082.67,-186.5 1253.55,-178.19 1266.69,-177.54"/>
</g>
<!-- e_9&#45;&gt;n_14 -->
<g id="edge28" class="edge">
<title>e_9:t_0&#45;&gt;n_14</title>
<path fill="none" stroke="white" d="M1340,-146.5C1354.32,-146.5 1371.75,-145.73 1375.89,-145.54"/>
</g>
<!-- e_9&#45;&gt;n_15 -->
<g id="edge29" class="edge">
<title>e_9:t_1&#45;&gt;n_15</title>
<path fill="none" stroke="white" d="M1340,-122.5C1354.31,-122.5 1371.75,-122.5 1375.89,-122.5"/>
</g>
<!-- e_10&#45;&gt;n_16 -->
<g id="edge32" class="edge">
<title>e_10:t_0&#45;&gt;n_16</title>
<path fill="none" stroke="white" d="M1558.6,-96.5C1572.92,-96.5 1590.35,-95.73 1594.49,-95.54"/>
</g>
<!-- e_10&#45;&gt;n_17 -->
<g id="edge33" class="edge">
<title>e_10:t_1&#45;&gt;n_17</title>
<path fill="none" stroke="white" d="M1558.6,-72.5C1572.92,-72.5 1590.35,-73.27 1594.49,-73.46"/>
</g>
<!-- e_12&#45;&gt;n_18 -->
<g id="edge37" class="edge">
<title>e_12:t_0&#45;&gt;n_18</title>
<path fill="none" stroke="white" d="M1545.1,-159.5C1564.66,-159.5 1588.5,-159.5 1594.16,-159.5"/>
</g>
<!-- e_13&#45;&gt;n_19 -->
<g id="edge40" class="edge">
<title>e_13:t_0&#45;&gt;n_19</title>
<path fill="none" stroke="white" d="M1754.7,-147.5C1770.76,-147.5 1790.34,-147.5 1794.98,-147.5"/>
</g>
<!-- sources -->
<g id="node35" class="node">
<title>sources</title>
</g>
<!-- sources&#45;&gt;n_0 -->
<g id="edge1" class="edge">
<title>sources:p_0&#45;&gt;n_0</title>
<path fill="none" stroke="white" stroke-dasharray="5,2" d="M254,-239.5C268.4,-239.5 285.77,-242.56 289.89,-243.33"/>
</g>
<!-- sources&#45;&gt;n_1 -->
<g id="edge2" class="edge">
<title>sources:p_1&#45;&gt;n_1</title>
<path fill="none" stroke="white" stroke-dasharray="5,2" d="M254,-215.5C268.73,-215.5 285.86,-208.61 289.91,-206.89"/>
</g>
</g>
</svg>
