<?xml version="1.0" encoding="UTF-8" standalone="no"?>
<!DOCTYPE svg PUBLIC "-//W3C//DTD SVG 1.1//EN"
 "http://www.w3.org/Graphics/SVG/1.1/DTD/svg11.dtd">
<!-- Generated by graphviz version 2.43.0 (0)
 -->
<!-- Title: G Pages: 1 -->
<svg width="1697pt" height="275pt"
 viewBox="0.00 0.00 1696.80 275.00" xmlns="http://www.w3.org/2000/svg" xmlns:xlink="http://www.w3.org/1999/xlink">
<g id="graph0" class="graph" transform="scale(1 1) rotate(0) translate(4 271)">
<title>G</title>
<polygon fill="#4a4a4a" stroke="transparent" points="-4,4 -4,-271 1692.8,-271 1692.8,4 -4,4"/>
<!-- n_0 -->
<g id="node1" class="node">
<title>n_0</title>
<ellipse fill="white" stroke="white" cx="91.8" cy="-243.5" rx="1.8" ry="1.8"/>
</g>
<!-- e_0 -->
<g id="node21" class="node">
<title>e_0</title>
<path fill="none" stroke="white" d="M195.6,-230.5C195.6,-230.5 275.6,-230.5 275.6,-230.5 281.6,-230.5 287.6,-236.5 287.6,-242.5 287.6,-242.5 287.6,-254.5 287.6,-254.5 287.6,-260.5 281.6,-266.5 275.6,-266.5 275.6,-266.5 195.6,-266.5 195.6,-266.5 189.6,-266.5 183.6,-260.5 183.6,-254.5 183.6,-254.5 183.6,-242.5 183.6,-242.5 183.6,-236.5 189.6,-230.5 195.6,-230.5"/>
<text text-anchor="middle" x="194.1" y="-244.8" font-family="Times,serif" font-size="14.00" fill="white"> </text>
<polyline fill="none" stroke="white" points="204.6,-230.5 204.6,-266.5 "/>
<text text-anchor="middle" x="246.1" y="-244.8" font-family="Times,serif" font-size="14.00" fill="white">unit.drop</text>
</g>
<!-- n_0&#45;&gt;e_0 -->
<g id="edge4" class="edge">
<title>n_0&#45;&gt;e_0:s_0</title>
<path fill="none" stroke="white" d="M93.68,-243.59C100.53,-244.25 145.75,-248.5 182.6,-248.5"/>
</g>
<!-- n_1 -->
<g id="node2" class="node">
<title>n_1</title>
<ellipse fill="white" stroke="white" cx="91.8" cy="-206.5" rx="1.8" ry="1.8"/>
</g>
<!-- e_1 -->
<g id="node22" class="node">
<title>e_1</title>
<path fill="none" stroke="white" d="M141.6,-165.5C141.6,-165.5 329.6,-165.5 329.6,-165.5 335.6,-165.5 341.6,-171.5 341.6,-177.5 341.6,-177.5 341.6,-199.5 341.6,-199.5 341.6,-205.5 335.6,-211.5 329.6,-211.5 329.6,-211.5 141.6,-211.5 141.6,-211.5 135.6,-211.5 129.6,-205.5 129.6,-199.5 129.6,-199.5 129.6,-177.5 129.6,-177.5 129.6,-171.5 135.6,-165.5 141.6,-165.5"/>
<text text-anchor="middle" x="140.1" y="-184.8" font-family="Times,serif" font-size="14.00" fill="white"> </text>
<polyline fill="none" stroke="white" points="150.6,-165.5 150.6,-211.5 "/>
<text text-anchor="middle" x="235.6" y="-184.8" font-family="Times,serif" font-size="14.00" fill="white">f32.pool.payload.elim</text>
<polyline fill="none" stroke="white" points="320.6,-165.5 320.6,-211.5 "/>
<text text-anchor="middle" x="331.1" y="-196.3" font-family="Times,serif" font-size="14.00" fill="white"> </text>
<polyline fill="none" stroke="white" points="320.6,-188.5 341.6,-188.5 "/>
<text text-anchor="middle" x="331.1" y="-173.3" font-family="Times,serif" font-size="14.00" fill="white"> </text>
</g>
<!-- n_1&#45;&gt;e_1 -->
<g id="edge5" class="edge">
<title>n_1&#45;&gt;e_1:s_0</title>
<path fill="none" stroke="white" d="M93.63,-205.73C97.44,-202.28 113.67,-188.5 129.6,-188.5"/>
</g>
<!-- n_2 -->
<g id="node3" class="node">
<title>n_2</title>
<ellipse fill="white" stroke="white" cx="471.7" cy="-210.5" rx="1.8" ry="1.8"/>
</g>
<!-- e_8 -->
<g id="node29" class="node">
<title>e_8</title>
<path fill="none" stroke="white" d="M613.8,-175.5C613.8,-175.5 732.8,-175.5 732.8,-175.5 738.8,-175.5 744.8,-181.5 744.8,-187.5 744.8,-187.5 744.8,-209.5 744.8,-209.5 744.8,-215.5 738.8,-221.5 732.8,-221.5 732.8,-221.5 613.8,-221.5 613.8,-221.5 607.8,-221.5 601.8,-215.5 601.8,-209.5 601.8,-209.5 601.8,-187.5 601.8,-187.5 601.8,-181.5 607.8,-175.5 613.8,-175.5"/>
<text text-anchor="middle" x="612.3" y="-206.3" font-family="Times,serif" font-size="14.00" fill="white"> </text>
<polyline fill="none" stroke="white" points="601.8,-198.5 622.8,-198.5 "/>
<text text-anchor="middle" x="612.3" y="-183.3" font-family="Times,serif" font-size="14.00" fill="white"> </text>
<polyline fill="none" stroke="white" points="622.8,-175.5 622.8,-221.5 "/>
<text text-anchor="middle" x="673.3" y="-194.8" font-family="Times,serif" font-size="14.00" fill="white">f32.buf.load</text>
<polyline fill="none" stroke="white" points="723.8,-175.5 723.8,-221.5 "/>
<text text-anchor="middle" x="734.3" y="-206.3" font-family="Times,serif" font-size="14.00" fill="white"> </text>
<polyline fill="none" stroke="white" points="723.8,-198.5 744.8,-198.5 "/>
<text text-anchor="middle" x="734.3" y="-183.3" font-family="Times,serif" font-size="14.00" fill="white"> </text>
</g>
<!-- n_2&#45;&gt;e_8 -->
<g id="edge22" class="edge">
<title>n_2&#45;&gt;e_8:s_0</title>
<path fill="none" stroke="white" d="M473.52,-210.5C481.61,-210.5 548.01,-210.5 601.8,-210.5"/>
</g>
<!-- n_3 -->
<g id="node4" class="node">
<title>n_3</title>
<ellipse fill="white" stroke="white" cx="379.4" cy="-173.5" rx="1.8" ry="1.8"/>
</g>
<!-- e_2 -->
<g id="node23" class="node">
<title>e_2</title>
<path fill="none" stroke="white" d="M429.2,-144.5C429.2,-144.5 514.2,-144.5 514.2,-144.5 520.2,-144.5 526.2,-150.5 526.2,-156.5 526.2,-156.5 526.2,-178.5 526.2,-178.5 526.2,-184.5 520.2,-190.5 514.2,-190.5 514.2,-190.5 429.2,-190.5 429.2,-190.5 423.2,-190.5 417.2,-184.5 417.2,-178.5 417.2,-178.5 417.2,-156.5 417.2,-156.5 417.2,-150.5 423.2,-144.5 429.2,-144.5"/>
<text text-anchor="middle" x="427.7" y="-163.8" font-family="Times,serif" font-size="14.00" fill="white"> </text>
<polyline fill="none" stroke="white" points="438.2,-144.5 438.2,-190.5 "/>
<text text-anchor="middle" x="471.7" y="-163.8" font-family="Times,serif" font-size="14.00" fill="white">ix.copy</text>
<polyline fill="none" stroke="white" points="505.2,-144.5 505.2,-190.5 "/>
<text text-anchor="middle" x="515.7" y="-175.3" font-family="Times,serif" font-size="14.00" fill="white"> </text>
<polyline fill="none" stroke="white" points="505.2,-167.5 526.2,-167.5 "/>
<text text-anchor="middle" x="515.7" y="-152.3" font-family="Times,serif" font-size="14.00" fill="white"> </text>
</g>
<!-- n_3&#45;&gt;e_2 -->
<g id="edge8" class="edge">
<title>n_3&#45;&gt;e_2:s_0</title>
<path fill="none" stroke="white" d="M381.3,-173.24C385.4,-172.09 402.7,-167.5 417.2,-167.5"/>
</g>
<!-- n_4 -->
<g id="node5" class="node">
<title>n_4</title>
<ellipse fill="white" stroke="white" cx="564" cy="-179.5" rx="1.8" ry="1.8"/>
</g>
<!-- n_4&#45;&gt;e_8 -->
<g id="edge23" class="edge">
<title>n_4&#45;&gt;e_8:s_1</title>
<path fill="none" stroke="white" d="M565.9,-179.8C569.98,-181.14 587.23,-186.5 601.8,-186.5"/>
</g>
<!-- n_5 -->
<g id="node6" class="node">
<title>n_5</title>
<ellipse fill="white" stroke="white" cx="564" cy="-144.5" rx="1.8" ry="1.8"/>
</g>
<!-- e_3 -->
<g id="node24" class="node">
<title>e_3</title>
<path fill="none" stroke="white" d="M630.8,-110.5C630.8,-110.5 715.8,-110.5 715.8,-110.5 721.8,-110.5 727.8,-116.5 727.8,-122.5 727.8,-122.5 727.8,-144.5 727.8,-144.5 727.8,-150.5 721.8,-156.5 715.8,-156.5 715.8,-156.5 630.8,-156.5 630.8,-156.5 624.8,-156.5 618.8,-150.5 618.8,-144.5 618.8,-144.5 618.8,-122.5 618.8,-122.5 618.8,-116.5 624.8,-110.5 630.8,-110.5"/>
<text text-anchor="middle" x="629.3" y="-129.8" font-family="Times,serif" font-size="14.00" fill="white"> </text>
<polyline fill="none" stroke="white" points="639.8,-110.5 639.8,-156.5 "/>
<text text-anchor="middle" x="673.3" y="-129.8" font-family="Times,serif" font-size="14.00" fill="white">ix.copy</text>
<polyline fill="none" stroke="white" points="706.8,-110.5 706.8,-156.5 "/>
<text text-anchor="middle" x="717.3" y="-141.3" font-family="Times,serif" font-size="14.00" fill="white"> </text>
<polyline fill="none" stroke="white" points="706.8,-133.5 727.8,-133.5 "/>
<text text-anchor="middle" x="717.3" y="-118.3" font-family="Times,serif" font-size="14.00" fill="white"> </text>
</g>
<!-- n_5&#45;&gt;e_3 -->
<g id="edge11" class="edge">
<title>n_5&#45;&gt;e_3:s_0</title>
<path fill="none" stroke="white" d="M566.27,-144.03C572.06,-141.92 596.52,-133.5 617.3,-133.5"/>
</g>
<!-- n_6 -->
<g id="node7" class="node">
<title>n_6</title>
<ellipse fill="white" stroke="white" cx="782.6" cy="-141.5" rx="1.8" ry="1.8"/>
</g>
<!-- e_6 -->
<g id="node27" class="node">
<title>e_6</title>
<path fill="none" stroke="white" d="M832.4,-100.5C832.4,-100.5 909.4,-100.5 909.4,-100.5 915.4,-100.5 921.4,-106.5 921.4,-112.5 921.4,-112.5 921.4,-134.5 921.4,-134.5 921.4,-140.5 915.4,-146.5 909.4,-146.5 909.4,-146.5 832.4,-146.5 832.4,-146.5 826.4,-146.5 820.4,-140.5 820.4,-134.5 820.4,-134.5 820.4,-112.5 820.4,-112.5 820.4,-106.5 826.4,-100.5 832.4,-100.5"/>
<text text-anchor="middle" x="830.9" y="-131.3" font-family="Times,serif" font-size="14.00" fill="white"> </text>
<polyline fill="none" stroke="white" points="820.4,-123.5 841.4,-123.5 "/>
<text text-anchor="middle" x="830.9" y="-108.3" font-family="Times,serif" font-size="14.00" fill="white"> </text>
<polyline fill="none" stroke="white" points="841.4,-100.5 841.4,-146.5 "/>
<text text-anchor="middle" x="870.9" y="-119.8" font-family="Times,serif" font-size="14.00" fill="white">ix.sub</text>
<polyline fill="none" stroke="white" points="900.4,-100.5 900.4,-146.5 "/>
<text text-anchor="middle" x="910.9" y="-119.8" font-family="Times,serif" font-size="14.00" fill="white"> </text>
</g>
<!-- n_6&#45;&gt;e_6 -->
<g id="edge16" class="edge">
<title>n_6&#45;&gt;e_6:s_0</title>
<path fill="none" stroke="white" d="M784.5,-141.24C788.6,-140.09 805.9,-135.5 820.4,-135.5"/>
</g>
<!-- n_7 -->
<g id="node8" class="node">
<title>n_7</title>
<ellipse fill="white" stroke="white" cx="782.6" cy="-107.5" rx="1.8" ry="1.8"/>
</g>
<!-- e_7 -->
<g id="node28" class="node">
<title>e_7</title>
<path fill="none" stroke="white" d="M832.4,-35.5C832.4,-35.5 909.4,-35.5 909.4,-35.5 915.4,-35.5 921.4,-41.5 921.4,-47.5 921.4,-47.5 921.4,-69.5 921.4,-69.5 921.4,-75.5 915.4,-81.5 909.4,-81.5 909.4,-81.5 832.4,-81.5 832.4,-81.5 826.4,-81.5 820.4,-75.5 820.4,-69.5 820.4,-69.5 820.4,-47.5 820.4,-47.5 820.4,-41.5 826.4,-35.5 832.4,-35.5"/>
<text text-anchor="middle" x="830.9" y="-66.3" font-family="Times,serif" font-size="14.00" fill="white"> </text>
<polyline fill="none" stroke="white" points="820.4,-58.5 841.4,-58.5 "/>
<text text-anchor="middle" x="830.9" y="-43.3" font-family="Times,serif" font-size="14.00" fill="white"> </text>
<polyline fill="none" stroke="white" points="841.4,-35.5 841.4,-81.5 "/>
<text text-anchor="middle" x="870.9" y="-54.8" font-family="Times,serif" font-size="14.00" fill="white">ix.sub</text>
<polyline fill="none" stroke="white" points="900.4,-35.5 900.4,-81.5 "/>
<text text-anchor="middle" x="910.9" y="-54.8" font-family="Times,serif" font-size="14.00" fill="white"> </text>
</g>
<!-- n_7&#45;&gt;e_7 -->
<g id="edge19" class="edge">
<title>n_7&#45;&gt;e_7:s_0</title>
<path fill="none" stroke="white" d="M784.23,-105.91C787.15,-98.83 800.11,-70.5 820.4,-70.5"/>
</g>
<!-- n_8 -->
<g id="node9" class="node">
<title>n_8</title>
<ellipse fill="white" stroke="white" cx="782.6" cy="-79.5" rx="1.8" ry="1.8"/>
</g>
<!-- n_8&#45;&gt;e_6 -->
<g id="edge17" class="edge">
<title>n_8&#45;&gt;e_6:s_1</title>
<path fill="none" stroke="white" d="M784.29,-80.88C787.48,-87 801.43,-111.5 820.4,-111.5"/>
</g>
<!-- n_9 -->
<g id="node10" class="node">
<title>n_9</title>
<ellipse fill="white" stroke="white" cx="782.6" cy="-34.5" rx="1.8" ry="1.8"/>
</g>
<!-- n_9&#45;&gt;e_7 -->
<g id="edge20" class="edge">
<title>n_9&#45;&gt;e_7:s_1</title>
<path fill="none" stroke="white" d="M784.48,-35.02C788.46,-37.31 805.35,-46.5 820.4,-46.5"/>
</g>
<!-- n_10 -->
<g id="node11" class="node">
<title>n_10</title>
<ellipse fill="white" stroke="white" cx="959.2" cy="-122.5" rx="1.8" ry="1.8"/>
</g>
<!-- e_9 -->
<g id="node30" class="node">
<title>e_9</title>
<path fill="none" stroke="white" d="M1009,-111.5C1009,-111.5 1128,-111.5 1128,-111.5 1134,-111.5 1140,-117.5 1140,-123.5 1140,-123.5 1140,-145.5 1140,-145.5 1140,-151.5 1134,-157.5 1128,-157.5 1128,-157.5 1009,-157.5 1009,-157.5 1003,-157.5 997,-151.5 997,-145.5 997,-145.5 997,-123.5 997,-123.5 997,-117.5 1003,-111.5 1009,-111.5"/>
<text text-anchor="middle" x="1007.5" y="-142.3" font-family="Times,serif" font-size="14.00" fill="white"> </text>
<polyline fill="none" stroke="white" points="997,-134.5 1018,-134.5 "/>
<text text-anchor="middle" x="1007.5" y="-119.3" font-family="Times,serif" font-size="14.00" fill="white"> </text>
<polyline fill="none" stroke="white" points="1018,-111.5 1018,-157.5 "/>
<text text-anchor="middle" x="1068.5" y="-130.8" font-family="Times,serif" font-size="14.00" fill="white">f32.buf.load</text>
<polyline fill="none" stroke="white" points="1119,-111.5 1119,-157.5 "/>
<text text-anchor="middle" x="1129.5" y="-142.3" font-family="Times,serif" font-size="14.00" fill="white"> </text>
<polyline fill="none" stroke="white" points="1119,-134.5 1140,-134.5 "/>
<text text-anchor="middle" x="1129.5" y="-119.3" font-family="Times,serif" font-size="14.00" fill="white"> </text>
</g>
<!-- n_10&#45;&gt;e_9 -->
<g id="edge27" class="edge">
<title>n_10&#45;&gt;e_9:s_1</title>
<path fill="none" stroke="white" d="M961.11,-122.5C965.25,-122.5 982.69,-122.5 997,-122.5"/>
</g>
<!-- n_11 -->
<g id="node12" class="node">
<title>n_11</title>
<ellipse fill="white" stroke="white" cx="959.2" cy="-63.5" rx="1.8" ry="1.8"/>
</g>
<!-- e_10 -->
<g id="node31" class="node">
<title>e_10</title>
<path fill="none" stroke="white" d="M1227.6,-61.5C1227.6,-61.5 1346.6,-61.5 1346.6,-61.5 1352.6,-61.5 1358.6,-67.5 1358.6,-73.5 1358.6,-73.5 1358.6,-95.5 1358.6,-95.5 1358.6,-101.5 1352.6,-107.5 1346.6,-107.5 1346.6,-107.5 1227.6,-107.5 1227.6,-107.5 1221.6,-107.5 1215.6,-101.5 1215.6,-95.5 1215.6,-95.5 1215.6,-73.5 1215.6,-73.5 1215.6,-67.5 1221.6,-61.5 1227.6,-61.5"/>
<text text-anchor="middle" x="1226.1" y="-92.3" font-family="Times,serif" font-size="14.00" fill="white"> </text>
<polyline fill="none" stroke="white" points="1215.6,-84.5 1236.6,-84.5 "/>
<text text-anchor="middle" x="1226.1" y="-69.3" font-family="Times,serif" font-size="14.00" fill="white"> </text>
<polyline fill="none" stroke="white" points="1236.6,-61.5 1236.6,-107.5 "/>
<text text-anchor="middle" x="1287.1" y="-80.8" font-family="Times,serif" font-size="14.00" fill="white">f32.buf.load</text>
<polyline fill="none" stroke="white" points="1337.6,-61.5 1337.6,-107.5 "/>
<text text-anchor="middle" x="1348.1" y="-92.3" font-family="Times,serif" font-size="14.00" fill="white"> </text>
<polyline fill="none" stroke="white" points="1337.6,-84.5 1358.6,-84.5 "/>
<text text-anchor="middle" x="1348.1" y="-69.3" font-family="Times,serif" font-size="14.00" fill="white"> </text>
</g>
<!-- n_11&#45;&gt;e_10 -->
<g id="edge31" class="edge">
<title>n_11&#45;&gt;e_10:s_1</title>
<path fill="none" stroke="white" d="M961.12,-63.56C973.43,-64.32 1107.34,-72.5 1215.6,-72.5"/>
</g>
<!-- n_12 -->
<g id="node13" class="node">
<title>n_12</title>
<ellipse fill="white" stroke="white" cx="870.9" cy="-214.5" rx="1.8" ry="1.8"/>
</g>
<!-- n_12&#45;&gt;e_9 -->
<g id="edge26" class="edge">
<title>n_12&#45;&gt;e_9:s_0</title>
<path fill="none" stroke="white" d="M872.77,-214.19C884.31,-210.1 1007.5,-166.27 1007.5,-158.5"/>
</g>
<!-- n_13 -->
<g id="node14" class="node">
<title>n_13</title>
<ellipse fill="white" stroke="white" cx="1068.5" cy="-177.5" rx="1.8" ry="1.8"/>
</g>
<!-- e_12 -->
<g id="node33" class="node">
<title>e_12</title>
<path fill="none" stroke="white" d="M1242.6,-136.5C1242.6,-136.5 1331.6,-136.5 1331.6,-136.5 1337.6,-136.5 1343.6,-142.5 1343.6,-148.5 1343.6,-148.5 1343.6,-170.5 1343.6,-170.5 1343.6,-176.5 1337.6,-182.5 1331.6,-182.5 1331.6,-182.5 1242.6,-182.5 1242.6,-182.5 1236.6,-182.5 1230.6,-176.5 1230.6,-170.5 1230.6,-170.5 1230.6,-148.5 1230.6,-148.5 1230.6,-142.5 1236.6,-136.5 1242.6,-136.5"/>
<text text-anchor="middle" x="1241.1" y="-167.3" font-family="Times,serif" font-size="14.00" fill="white"> </text>
<polyline fill="none" stroke="white" points="1230.6,-159.5 1251.6,-159.5 "/>
<text text-anchor="middle" x="1241.1" y="-144.3" font-family="Times,serif" font-size="14.00" fill="white"> </text>
<polyline fill="none" stroke="white" points="1251.6,-136.5 1251.6,-182.5 "/>
<text text-anchor="middle" x="1287.1" y="-155.8" font-family="Times,serif" font-size="14.00" fill="white">f32.add</text>
<polyline fill="none" stroke="white" points="1322.6,-136.5 1322.6,-182.5 "/>
<text text-anchor="middle" x="1333.1" y="-155.8" font-family="Times,serif" font-size="14.00" fill="white"> </text>
</g>
<!-- n_13&#45;&gt;e_12 -->
<g id="edge35" class="edge">
<title>n_13&#45;&gt;e_12:s_0</title>
<path fill="none" stroke="white" d="M1070.51,-177.43C1080.51,-176.77 1162.55,-171.5 1229.1,-171.5"/>
</g>
<!-- n_14 -->
<g id="node15" class="node">
<title>n_14</title>
<ellipse fill="white" stroke="white" cx="1177.8" cy="-145.5" rx="1.8" ry="1.8"/>
</g>
<!-- n_14&#45;&gt;e_10 -->
<g id="edge30" class="edge">
<title>n_14&#45;&gt;e_10:s_0</title>
<path fill="none" stroke="white" d="M1179.62,-145.08C1185.9,-141.87 1226.1,-120.8 1226.1,-108.5"/>
</g>
<!-- n_15 -->
<g id="node16" class="node">
<title>n_15</title>
<ellipse fill="white" stroke="white" cx="1177.8" cy="-122.5" rx="1.8" ry="1.8"/>
</g>
<!-- n_15&#45;&gt;e_12 -->
<g id="edge36" class="edge">
<title>n_15&#45;&gt;e_12:s_1</title>
<path fill="none" stroke="white" d="M1179.94,-123.57C1185.13,-128.36 1207.26,-147.5 1229.1,-147.5"/>
</g>
<!-- n_16 -->
<g id="node17" class="node">
<title>n_16</title>
<ellipse fill="white" stroke="white" cx="1396.4" cy="-95.5" rx="1.8" ry="1.8"/>
</g>
<!-- e_11 -->
<g id="node32" class="node">
<title>e_11</title>
<path fill="none" stroke="white" d="M1446.2,-69.5C1446.2,-69.5 1547.2,-69.5 1547.2,-69.5 1553.2,-69.5 1559.2,-75.5 1559.2,-81.5 1559.2,-81.5 1559.2,-93.5 1559.2,-93.5 1559.2,-99.5 1553.2,-105.5 1547.2,-105.5 1547.2,-105.5 1446.2,-105.5 1446.2,-105.5 1440.2,-105.5 1434.2,-99.5 1434.2,-93.5 1434.2,-93.5 1434.2,-81.5 1434.2,-81.5 1434.2,-75.5 1440.2,-69.5 1446.2,-69.5"/>
<text text-anchor="middle" x="1444.7" y="-83.8" font-family="Times,serif" font-size="14.00" fill="white"> </text>
<polyline fill="none" stroke="white" points="1455.2,-69.5 1455.2,-105.5 "/>
<text text-anchor="middle" x="1507.2" y="-83.8" font-family="Times,serif" font-size="14.00" fill="white">f32.buf.drop</text>
</g>
<!-- n_16&#45;&gt;e_11 -->
<g id="edge34" class="edge">
<title>n_16&#45;&gt;e_11:s_0</title>
<path fill="none" stroke="white" d="M1398.29,-95.16C1402.36,-93.62 1419.55,-87.5 1434.2,-87.5"/>
</g>
<!-- n_17 -->
<g id="node18" class="node">
<title>n_17</title>
<ellipse fill="white" stroke="white" cx="1396.4" cy="-73.5" rx="1.8" ry="1.8"/>
</g>
<!-- e_13 -->
<g id="node34" class="node">
<title>e_13</title>
<path fill="none" stroke="white" d="M1452.2,-124.5C1452.2,-124.5 1541.2,-124.5 1541.2,-124.5 1547.2,-124.5 1553.2,-130.5 1553.2,-136.5 1553.2,-136.5 1553.2,-158.5 1553.2,-158.5 1553.2,-164.5 1547.2,-170.5 1541.2,-170.5 1541.2,-170.5 1452.2,-170.5 1452.2,-170.5 1446.2,-170.5 1440.2,-164.5 1440.2,-158.5 1440.2,-158.5 1440.2,-136.5 1440.2,-136.5 1440.2,-130.5 1446.2,-124.5 1452.2,-124.5"/>
<text text-anchor="middle" x="1450.7" y="-155.3" font-family="Times,serif" font-size="14.00" fill="white"> </text>
<polyline fill="none" stroke="white" points="1440.2,-147.5 1461.2,-147.5 "/>
<text text-anchor="middle" x="1450.7" y="-132.3" font-family="Times,serif" font-size="14.00" fill="white"> </text>
<polyline fill="none" stroke="white" points="1461.2,-124.5 1461.2,-170.5 "/>
<text text-anchor="middle" x="1496.7" y="-143.8" font-family="Times,serif" font-size="14.00" fill="white">f32.add</text>
<polyline fill="none" stroke="white" points="1532.2,-124.5 1532.2,-170.5 "/>
<text text-anchor="middle" x="1542.7" y="-143.8" font-family="Times,serif" font-size="14.00" fill="white"> </text>
</g>
<!-- n_17&#45;&gt;e_13 -->
<g id="edge39" class="edge">
<title>n_17&#45;&gt;e_13:s_1</title>
<path fill="none" stroke="white" d="M1398.19,-74.64C1401.82,-79.79 1417.4,-101.21 1434.2,-114.5 1440.75,-119.68 1450.7,-115.15 1450.7,-123.5"/>
</g>
<!-- n_18 -->
<g id="node19" class="node">
<title>n_18</title>
<ellipse fill="white" stroke="white" cx="1396.4" cy="-159.5" rx="1.8" ry="1.8"/>
</g>
<!-- n_18&#45;&gt;e_13 -->
<g id="edge38" class="edge">
<title>n_18&#45;&gt;e_13:s_0</title>
<path fill="none" stroke="white" d="M1398.42,-159.5C1403.06,-159.5 1422.64,-159.5 1438.7,-159.5"/>
</g>
<!-- n_19 -->
<g id="node20" class="node">
<title>n_19</title>
<ellipse fill="white" stroke="white" cx="1597" cy="-147.5" rx="1.8" ry="1.8"/>
</g>
<!-- targets -->
<g id="node36" class="node">
<title>targets</title>
</g>
<!-- n_19&#45;&gt;targets -->
<g id="edge3" class="edge">
<title>n_19&#45;&gt;targets:p_0</title>
<path fill="none" stroke="white" stroke-dasharray="5,2" d="M1598.91,-147.5C1603.05,-147.5 1620.49,-147.5 1634.8,-147.5"/>
</g>
<!-- e_1&#45;&gt;n_2 -->
<g id="edge6" class="edge">
<title>e_1:t_0&#45;&gt;n_2</title>
<path fill="none" stroke="white" d="M341.6,-200.5C395.55,-200.5 461.81,-209.29 469.88,-210.39"/>
</g>
<!-- e_1&#45;&gt;n_3 -->
<g id="edge7" class="edge">
<title>e_1:t_1&#45;&gt;n_3</title>
<path fill="none" stroke="white" d="M341.6,-176.5C355.96,-176.5 373.36,-174.2 377.49,-173.63"/>
</g>
<!-- e_2&#45;&gt;n_4 -->
<g id="edge9" class="edge">
<title>e_2:t_0&#45;&gt;n_4</title>
<path fill="none" stroke="white" d="M526.2,-179.5C540.51,-179.5 557.95,-179.5 562.09,-179.5"/>
</g>
<!-- e_2&#45;&gt;n_5 -->
<g id="edge10" class="edge">
<title>e_2:t_1&#45;&gt;n_5</title>
<path fill="none" stroke="white" d="M526.2,-155.5C541.14,-155.5 558.11,-147.08 562.12,-144.97"/>
</g>
<!-- e_3&#45;&gt;n_6 -->
<g id="edge12" class="edge">
<title>e_3:t_0&#45;&gt;n_6</title>
<path fill="none" stroke="white" d="M729.3,-145.5C749.7,-145.5 774.44,-142.44 780.31,-141.67"/>
</g>
<!-- e_3&#45;&gt;n_7 -->
<g id="edge13" class="edge">
<title>e_3:t_1&#45;&gt;n_7</title>
<path fill="none" stroke="white" d="M729.3,-121.5C750.35,-121.5 774.61,-110.78 780.34,-108.1"/>
</g>
<!-- e_4 -->
<g id="node25" class="node">
<title>e_4</title>
<path fill="none" stroke="white" d="M637.8,-55.5C637.8,-55.5 708.8,-55.5 708.8,-55.5 714.8,-55.5 720.8,-61.5 720.8,-67.5 720.8,-67.5 720.8,-79.5 720.8,-79.5 720.8,-85.5 714.8,-91.5 708.8,-91.5 708.8,-91.5 637.8,-91.5 637.8,-91.5 631.8,-91.5 625.8,-85.5 625.8,-79.5 625.8,-79.5 625.8,-67.5 625.8,-67.5 625.8,-61.5 631.8,-55.5 637.8,-55.5"/>
<text text-anchor="middle" x="662.8" y="-69.8" font-family="Times,serif" font-size="14.00" fill="white">u64.one</text>
<polyline fill="none" stroke="white" points="699.8,-55.5 699.8,-91.5 "/>
<text text-anchor="middle" x="710.3" y="-69.8" font-family="Times,serif" font-size="14.00" fill="white"> </text>
</g>
<!-- e_4&#45;&gt;n_8 -->
<g id="edge14" class="edge">
<title>e_4:t_0&#45;&gt;n_8</title>
<path fill="none" stroke="white" d="M722.3,-73.5C746.31,-73.5 775.5,-78.43 780.77,-79.35"/>
</g>
<!-- e_5 -->
<g id="node26" class="node">
<title>e_5</title>
<path fill="none" stroke="white" d="M637.8,-0.5C637.8,-0.5 708.8,-0.5 708.8,-0.5 714.8,-0.5 720.8,-6.5 720.8,-12.5 720.8,-12.5 720.8,-24.5 720.8,-24.5 720.8,-30.5 714.8,-36.5 708.8,-36.5 708.8,-36.5 637.8,-36.5 637.8,-36.5 631.8,-36.5 625.8,-30.5 625.8,-24.5 625.8,-24.5 625.8,-12.5 625.8,-12.5 625.8,-6.5 631.8,-0.5 637.8,-0.5"/>
<text text-anchor="middle" x="662.8" y="-14.8" font-family="Times,serif" font-size="14.00" fill="white">u64.two</text>
<polyline fill="none" stroke="white" points="699.8,-0.5 699.8,-36.5 "/>
<text text-anchor="middle" x="710.3" y="-14.8" font-family="Times,serif" font-size="14.00" fill="white"> </text>
</g>
<!-- e_5&#45;&gt;n_9 -->
<g id="edge15" class="edge">
<title>e_5:t_0&#45;&gt;n_9</title>
<path fill="none" stroke="white" d="M722.3,-18.5C747.04,-18.5 775.64,-31.64 780.79,-34.1"/>
</g>
<!-- e_6&#45;&gt;n_10 -->
<g id="edge18" class="edge">
<title>e_6:t_0&#45;&gt;n_10</title>
<path fill="none" stroke="white" d="M921.4,-123.5C935.72,-123.5 953.15,-122.73 957.29,-122.54"/>
</g>
<!-- e_7&#45;&gt;n_11 -->
<g id="edge21" class="edge">
<title>e_7:t_0&#45;&gt;n_11</title>
<path fill="none" stroke="white" d="M921.4,-58.5C935.84,-58.5 953.19,-62.33 957.3,-63.29"/>
</g>
<!-- e_8&#45;&gt;n_12 -->
<g id="edge24" class="edge">
<title>e_8:t_0&#45;&gt;n_12</title>
<path fill="none" stroke="white" d="M744.8,-210.5C796.52,-210.5 860.2,-213.96 868.9,-214.44"/>
</g>
<!-- e_8&#45;&gt;n_13 -->
<g id="edge25" class="edge">
<title>e_8:t_1&#45;&gt;n_13</title>
<path fill="none" stroke="white" d="M744.8,-186.5C882.67,-186.5 1053.55,-178.19 1066.69,-177.54"/>
</g>
<!-- e_9&#45;&gt;n_14 -->
<g id="edge28" class="edge">
<title>e_9:t_0&#45;&gt;n_14</title>
<path fill="none" stroke="white" d="M1140,-146.5C1154.32,-146.5 1171.75,-145.73 1175.89,-145.54"/>
</g>
<!-- e_9&#45;&gt;n_15 -->
<g id="edge29" class="edge">
<title>e_9:t_1&#45;&gt;n_15</title>
<path fill="none" stroke="white" d="M1140,-122.5C1154.31,-122.5 1171.75,-122.5 1175.89,-122.5"/>
</g>
<!-- e_10&#45;&gt;n_16 -->
<g id="edge32" class="edge">
<title>e_10:t_0&#45;&gt;n_16</title>
<path fill="none" stroke="white" d="M1358.6,-96.5C1372.92,-96.5 1390.35,-95.73 1394.49,-95.54"/>
</g>
<!-- e_10&#45;&gt;n_17 -->
<g id="edge33" class="edge">
<title>e_10:t_1&#45;&gt;n_17</title>
<path fill="none" stroke="white" d="M1358.6,-72.5C1372.92,-72.5 1390.35,-73.27 1394.49,-73.46"/>
</g>
<!-- e_12&#45;&gt;n_18 -->
<g id="edge37" class="edge">
<title>e_12:t_0&#45;&gt;n_18</title>
<path fill="none" stroke="white" d="M1345.1,-159.5C1364.66,-159.5 1388.5,-159.5 1394.16,-159.5"/>
</g>
<!-- e_13&#45;&gt;n_19 -->
<g id="edge40" class="edge">
<title>e_13:t_0&#45;&gt;n_19</title>
<path fill="none" stroke="white" d="M1554.7,-147.5C1570.76,-147.5 1590.34,-147.5 1594.98,-147.5"/>
</g>
<!-- sources -->
<g id="node35" class="node">
<title>sources</title>
</g>
<!-- sources&#45;&gt;n_0 -->
<g id="edge1" class="edge">
<title>sources:p_0&#45;&gt;n_0</title>
<path fill="none" stroke="white" stroke-dasharray="5,2" d="M54,-239.5C68.4,-239.5 85.77,-242.56 89.89,-243.33"/>
</g>
<!-- sources&#45;&gt;n_1 -->
<g id="edge2" class="edge">
<title>sources:p_1&#45;&gt;n_1</title>
<path fill="none" stroke="white" stroke-dasharray="5,2" d="M54,-215.5C68.73,-215.5 85.86,-208.61 89.91,-206.89"/>
</g>
</g>
</svg>
