<?xml version="1.0" encoding="UTF-8" standalone="no"?>
<!DOCTYPE svg PUBLIC "-//W3C//DTD SVG 1.1//EN"
 "http://www.w3.org/Graphics/SVG/1.1/DTD/svg11.dtd">
<!-- Generated by graphviz version 2.43.0 (0)
 -->
<!-- Title: G Pages: 1 -->
<svg width="1800pt" height="275pt"
 viewBox="0.00 0.00 1799.80 275.00" xmlns="http://www.w3.org/2000/svg" xmlns:xlink="http://www.w3.org/1999/xlink">
<g id="graph0" class="graph" transform="scale(1 1) rotate(0) translate(4 271)">
<title>G</title>
<polygon fill="#4a4a4a" stroke="transparent" points="-4,4 -4,-271 1795.8,-271 1795.8,4 -4,4"/>
<!-- n_0 -->
<g id="node1" class="node">
<title>n_0</title>
<ellipse fill="white" stroke="white" cx="194.8" cy="-200.5" rx="1.8" ry="1.8"/>
<text text-anchor="middle" x="96.5" y="-206.1" font-family="Times,serif" font-size="14.00" fill="white">val(buf(cap.own, u64, f32))</text>
</g>
<!-- e_1 -->
<g id="node22" class="node">
<title>e_1</title>
<path fill="none" stroke="white" d="M244.6,-165.5C244.6,-165.5 432.6,-165.5 432.6,-165.5 438.6,-165.5 444.6,-171.5 444.6,-177.5 444.6,-177.5 444.6,-199.5 444.6,-199.5 444.6,-205.5 438.6,-211.5 432.6,-211.5 432.6,-211.5 244.6,-211.5 244.6,-211.5 238.6,-211.5 232.6,-205.5 232.6,-199.5 232.6,-199.5 232.6,-177.5 232.6,-177.5 232.6,-171.5 238.6,-165.5 244.6,-165.5"/>
<text text-anchor="middle" x="243.1" y="-196.3" font-family="Times,serif" font-size="14.00" fill="white"> </text>
<polyline fill="none" stroke="white" points="232.6,-188.5 253.6,-188.5 "/>
<text text-anchor="middle" x="243.1" y="-173.3" font-family="Times,serif" font-size="14.00" fill="white"> </text>
<polyline fill="none" stroke="white" points="253.6,-165.5 253.6,-211.5 "/>
<text text-anchor="middle" x="338.6" y="-184.8" font-family="Times,serif" font-size="14.00" fill="white">f32.pool.payload.elim</text>
<polyline fill="none" stroke="white" points="423.6,-165.5 423.6,-211.5 "/>
<text text-anchor="middle" x="434.1" y="-196.3" font-family="Times,serif" font-size="14.00" fill="white"> </text>
<polyline fill="none" stroke="white" points="423.6,-188.5 444.6,-188.5 "/>
<text text-anchor="middle" x="434.1" y="-173.3" font-family="Times,serif" font-size="14.00" fill="white"> </text>
</g>
<!-- n_0&#45;&gt;e_1 -->
<g id="edge4" class="edge">
<title>n_0&#45;&gt;e_1:s_0</title>
<path fill="none" stroke="white" d="M196.71,-200.5C200.85,-200.5 218.29,-200.5 232.6,-200.5"/>
</g>
<!-- n_1 -->
<g id="node2" class="node">
<title>n_1</title>
<ellipse fill="white" stroke="white" cx="194.8" cy="-176.5" rx="1.8" ry="1.8"/>
<text text-anchor="middle" x="155.6" y="-163.5" font-family="Times,serif" font-size="14.00" fill="white">val(ix(u64))</text>
</g>
<!-- n_1&#45;&gt;e_1 -->
<g id="edge5" class="edge">
<title>n_1&#45;&gt;e_1:s_1</title>
<path fill="none" stroke="white" d="M196.71,-176.5C200.85,-176.5 218.29,-176.5 232.6,-176.5"/>
</g>
<!-- n_2 -->
<g id="node3" class="node">
<title>n_2</title>
<ellipse fill="white" stroke="white" cx="574.7" cy="-210.5" rx="1.8" ry="1.8"/>
<text text-anchor="middle" x="476.4" y="-216.1" font-family="Times,serif" font-size="14.00" fill="white">val(buf(cap.own, u64, f32))</text>
</g>
<!-- e_8 -->
<g id="node29" class="node">
<title>e_8</title>
<path fill="none" stroke="white" d="M716.8,-175.5C716.8,-175.5 835.8,-175.5 835.8,-175.5 841.8,-175.5 847.8,-181.5 847.8,-187.5 847.8,-187.5 847.8,-209.5 847.8,-209.5 847.8,-215.5 841.8,-221.5 835.8,-221.5 835.8,-221.5 716.8,-221.5 716.8,-221.5 710.8,-221.5 704.8,-215.5 704.8,-209.5 704.8,-209.5 704.8,-187.5 704.8,-187.5 704.8,-181.5 710.8,-175.5 716.8,-175.5"/>
<text text-anchor="middle" x="715.3" y="-206.3" font-family="Times,serif" font-size="14.00" fill="white"> </text>
<polyline fill="none" stroke="white" points="704.8,-198.5 725.8,-198.5 "/>
<text text-anchor="middle" x="715.3" y="-183.3" font-family="Times,serif" font-size="14.00" fill="white"> </text>
<polyline fill="none" stroke="white" points="725.8,-175.5 725.8,-221.5 "/>
<text text-anchor="middle" x="776.3" y="-194.8" font-family="Times,serif" font-size="14.00" fill="white">f32.buf.load</text>
<polyline fill="none" stroke="white" points="826.8,-175.5 826.8,-221.5 "/>
<text text-anchor="middle" x="837.3" y="-206.3" font-family="Times,serif" font-size="14.00" fill="white"> </text>
<polyline fill="none" stroke="white" points="826.8,-198.5 847.8,-198.5 "/>
<text text-anchor="middle" x="837.3" y="-183.3" font-family="Times,serif" font-size="14.00" fill="white"> </text>
</g>
<!-- n_2&#45;&gt;e_8 -->
<g id="edge22" class="edge">
<title>n_2&#45;&gt;e_8:s_0</title>
<path fill="none" stroke="white" d="M576.52,-210.5C584.61,-210.5 651.01,-210.5 704.8,-210.5"/>
</g>
<!-- n_3 -->
<g id="node4" class="node">
<title>n_3</title>
<ellipse fill="white" stroke="white" cx="482.4" cy="-173.5" rx="1.8" ry="1.8"/>
<text text-anchor="middle" x="443.2" y="-160.5" font-family="Times,serif" font-size="14.00" fill="white">val(ix(u64))</text>
</g>
<!-- e_2 -->
<g id="node23" class="node">
<title>e_2</title>
<path fill="none" stroke="white" d="M532.2,-144.5C532.2,-144.5 617.2,-144.5 617.2,-144.5 623.2,-144.5 629.2,-150.5 629.2,-156.5 629.2,-156.5 629.2,-178.5 629.2,-178.5 629.2,-184.5 623.2,-190.5 617.2,-190.5 617.2,-190.5 532.2,-190.5 532.2,-190.5 526.2,-190.5 520.2,-184.5 520.2,-178.5 520.2,-178.5 520.2,-156.5 520.2,-156.5 520.2,-150.5 526.2,-144.5 532.2,-144.5"/>
<text text-anchor="middle" x="530.7" y="-163.8" font-family="Times,serif" font-size="14.00" fill="white"> </text>
<polyline fill="none" stroke="white" points="541.2,-144.5 541.2,-190.5 "/>
<text text-anchor="middle" x="574.7" y="-163.8" font-family="Times,serif" font-size="14.00" fill="white">ix.copy</text>
<polyline fill="none" stroke="white" points="608.2,-144.5 608.2,-190.5 "/>
<text text-anchor="middle" x="618.7" y="-175.3" font-family="Times,serif" font-size="14.00" fill="white"> </text>
<polyline fill="none" stroke="white" points="608.2,-167.5 629.2,-167.5 "/>
<text text-anchor="middle" x="618.7" y="-152.3" font-family="Times,serif" font-size="14.00" fill="white"> </text>
</g>
<!-- n_3&#45;&gt;e_2 -->
<g id="edge8" class="edge">
<title>n_3&#45;&gt;e_2:s_0</title>
<path fill="none" stroke="white" d="M484.3,-173.24C488.4,-172.09 505.7,-167.5 520.2,-167.5"/>
</g>
<!-- n_4 -->
<g id="node5" class="node">
<title>n_4</title>
<ellipse fill="white" stroke="white" cx="667" cy="-179.5" rx="1.8" ry="1.8"/>
<text text-anchor="middle" x="709.8" y="-166.5" font-family="Times,serif" font-size="14.00" fill="white">val(ix(u64))</text>
</g>
<!-- n_4&#45;&gt;e_8 -->
<g id="edge23" class="edge">
<title>n_4&#45;&gt;e_8:s_1</title>
<path fill="none" stroke="white" d="M668.9,-179.8C672.98,-181.14 690.23,-186.5 704.8,-186.5"/>
</g>
<!-- n_5 -->
<g id="node6" class="node">
<title>n_5</title>
<ellipse fill="white" stroke="white" cx="667" cy="-144.5" rx="1.8" ry="1.8"/>
<text text-anchor="middle" x="624.2" y="-131.5" font-family="Times,serif" font-size="14.00" fill="white">val(ix(u64))</text>
</g>
<!-- e_3 -->
<g id="node24" class="node">
<title>e_3</title>
<path fill="none" stroke="white" d="M733.8,-110.5C733.8,-110.5 818.8,-110.5 818.8,-110.5 824.8,-110.5 830.8,-116.5 830.8,-122.5 830.8,-122.5 830.8,-144.5 830.8,-144.5 830.8,-150.5 824.8,-156.5 818.8,-156.5 818.8,-156.5 733.8,-156.5 733.8,-156.5 727.8,-156.5 721.8,-150.5 721.8,-144.5 721.8,-144.5 721.8,-122.5 721.8,-122.5 721.8,-116.5 727.8,-110.5 733.8,-110.5"/>
<text text-anchor="middle" x="732.3" y="-129.8" font-family="Times,serif" font-size="14.00" fill="white"> </text>
<polyline fill="none" stroke="white" points="742.8,-110.5 742.8,-156.5 "/>
<text text-anchor="middle" x="776.3" y="-129.8" font-family="Times,serif" font-size="14.00" fill="white">ix.copy</text>
<polyline fill="none" stroke="white" points="809.8,-110.5 809.8,-156.5 "/>
<text text-anchor="middle" x="820.3" y="-141.3" font-family="Times,serif" font-size="14.00" fill="white"> </text>
<polyline fill="none" stroke="white" points="809.8,-133.5 830.8,-133.5 "/>
<text text-anchor="middle" x="820.3" y="-118.3" font-family="Times,serif" font-size="14.00" fill="white"> </text>
</g>
<!-- n_5&#45;&gt;e_3 -->
<g id="edge11" class="edge">
<title>n_5&#45;&gt;e_3:s_0</title>
<path fill="none" stroke="white" d="M669.27,-144.03C675.06,-141.92 699.52,-133.5 720.3,-133.5"/>
</g>
<!-- n_6 -->
<g id="node7" class="node">
<title>n_6</title>
<ellipse fill="white" stroke="white" cx="885.6" cy="-141.5" rx="1.8" ry="1.8"/>
<text text-anchor="middle" x="928.4" y="-147.1" font-family="Times,serif" font-size="14.00" fill="white">val(ix(u64))</text>
</g>
<!-- e_6 -->
<g id="node27" class="node">
<title>e_6</title>
<path fill="none" stroke="white" d="M935.4,-100.5C935.4,-100.5 1012.4,-100.5 1012.4,-100.5 1018.4,-100.5 1024.4,-106.5 1024.4,-112.5 1024.4,-112.5 1024.4,-134.5 1024.4,-134.5 1024.4,-140.5 1018.4,-146.5 1012.4,-146.5 1012.4,-146.5 935.4,-146.5 935.4,-146.5 929.4,-146.5 923.4,-140.5 923.4,-134.5 923.4,-134.5 923.4,-112.5 923.4,-112.5 923.4,-106.5 929.4,-100.5 935.4,-100.5"/>
<text text-anchor="middle" x="933.9" y="-131.3" font-family="Times,serif" font-size="14.00" fill="white"> </text>
<polyline fill="none" stroke="white" points="923.4,-123.5 944.4,-123.5 "/>
<text text-anchor="middle" x="933.9" y="-108.3" font-family="Times,serif" font-size="14.00" fill="white"> </text>
<polyline fill="none" stroke="white" points="944.4,-100.5 944.4,-146.5 "/>
<text text-anchor="middle" x="973.9" y="-119.8" font-family="Times,serif" font-size="14.00" fill="white">ix.sub</text>
<polyline fill="none" stroke="white" points="1003.4,-100.5 1003.4,-146.5 "/>
<text text-anchor="middle" x="1013.9" y="-119.8" font-family="Times,serif" font-size="14.00" fill="white"> </text>
</g>
<!-- n_6&#45;&gt;e_6 -->
<g id="edge16" class="edge">
<title>n_6&#45;&gt;e_6:s_0</title>
<path fill="none" stroke="white" d="M887.5,-141.24C891.6,-140.09 908.9,-135.5 923.4,-135.5"/>
</g>
<!-- n_7 -->
<g id="node8" class="node">
<title>n_7</title>
<ellipse fill="white" stroke="white" cx="885.6" cy="-107.5" rx="1.8" ry="1.8"/>
<text text-anchor="middle" x="846.4" y="-94.5" font-family="Times,serif" font-size="14.00" fill="white">val(ix(u64))</text>
</g>
<!-- e_7 -->
<g id="node28" class="node">
<title>e_7</title>
<path fill="none" stroke="white" d="M935.4,-35.5C935.4,-35.5 1012.4,-35.5 1012.4,-35.5 1018.4,-35.5 1024.4,-41.5 1024.4,-47.5 1024.4,-47.5 1024.4,-69.5 1024.4,-69.5 1024.4,-75.5 1018.4,-81.5 1012.4,-81.5 1012.4,-81.5 935.4,-81.5 935.4,-81.5 929.4,-81.5 923.4,-75.5 923.4,-69.5 923.4,-69.5 923.4,-47.5 923.4,-47.5 923.4,-41.5 929.4,-35.5 935.4,-35.5"/>
<text text-anchor="middle" x="933.9" y="-66.3" font-family="Times,serif" font-size="14.00" fill="white"> </text>
<polyline fill="none" stroke="white" points="923.4,-58.5 944.4,-58.5 "/>
<text text-anchor="middle" x="933.9" y="-43.3" font-family="Times,serif" font-size="14.00" fill="white"> </text>
<polyline fill="none" stroke="white" points="944.4,-35.5 944.4,-81.5 "/>
<text text-anchor="middle" x="973.9" y="-54.8" font-family="Times,serif" font-size="14.00" fill="white">ix.sub</text>
<polyline fill="none" stroke="white" points="1003.4,-35.5 1003.4,-81.5 "/>
<text text-anchor="middle" x="1013.9" y="-54.8" font-family="Times,serif" font-size="14.00" fill="white"> </text>
</g>
<!-- n_7&#45;&gt;e_7 -->
<g id="edge19" class="edge">
<title>n_7&#45;&gt;e_7:s_0</title>
<path fill="none" stroke="white" d="M887.23,-105.91C890.15,-98.83 903.11,-70.5 923.4,-70.5"/>
</g>
<!-- n_8 -->
<g id="node9" class="node">
<title>n_8</title>
<ellipse fill="white" stroke="white" cx="885.6" cy="-79.5" rx="1.8" ry="1.8"/>
<text text-anchor="middle" x="854.3" y="-66.5" font-family="Times,serif" font-size="14.00" fill="white">val(u64)</text>
</g>
<!-- n_8&#45;&gt;e_6 -->
<g id="edge17" class="edge">
<title>n_8&#45;&gt;e_6:s_1</title>
<path fill="none" stroke="white" d="M887.29,-80.88C890.48,-87 904.43,-111.5 923.4,-111.5"/>
</g>
<!-- n_9 -->
<g id="node10" class="node">
<title>n_9</title>
<ellipse fill="white" stroke="white" cx="885.6" cy="-34.5" rx="1.8" ry="1.8"/>
<text text-anchor="middle" x="854.3" y="-21.5" font-family="Times,serif" font-size="14.00" fill="white">val(u64)</text>
</g>
<!-- n_9&#45;&gt;e_7 -->
<g id="edge20" class="edge">
<title>n_9&#45;&gt;e_7:s_1</title>
<path fill="none" stroke="white" d="M887.48,-35.02C891.46,-37.31 908.35,-46.5 923.4,-46.5"/>
</g>
<!-- n_10 -->
<g id="node11" class="node">
<title>n_10</title>
<ellipse fill="white" stroke="white" cx="1062.2" cy="-122.5" rx="1.8" ry="1.8"/>
<text text-anchor="middle" x="1105" y="-109.5" font-family="Times,serif" font-size="14.00" fill="white">val(ix(u64))</text>
</g>
<!-- e_9 -->
<g id="node30" class="node">
<title>e_9</title>
<path fill="none" stroke="white" d="M1112,-111.5C1112,-111.5 1231,-111.5 1231,-111.5 1237,-111.5 1243,-117.5 1243,-123.5 1243,-123.5 1243,-145.5 1243,-145.5 1243,-151.5 1237,-157.5 1231,-157.5 1231,-157.5 1112,-157.5 1112,-157.5 1106,-157.5 1100,-151.5 1100,-145.5 1100,-145.5 1100,-123.5 1100,-123.5 1100,-117.5 1106,-111.5 1112,-111.5"/>
<text text-anchor="middle" x="1110.5" y="-142.3" font-family="Times,serif" font-size="14.00" fill="white"> </text>
<polyline fill="none" stroke="white" points="1100,-134.5 1121,-134.5 "/>
<text text-anchor="middle" x="1110.5" y="-119.3" font-family="Times,serif" font-size="14.00" fill="white"> </text>
<polyline fill="none" stroke="white" points="1121,-111.5 1121,-157.5 "/>
<text text-anchor="middle" x="1171.5" y="-130.8" font-family="Times,serif" font-size="14.00" fill="white">f32.buf.load</text>
<polyline fill="none" stroke="white" points="1222,-111.5 1222,-157.5 "/>
<text text-anchor="middle" x="1232.5" y="-142.3" font-family="Times,serif" font-size="14.00" fill="white"> </text>
<polyline fill="none" stroke="white" points="1222,-134.5 1243,-134.5 "/>
<text text-anchor="middle" x="1232.5" y="-119.3" font-family="Times,serif" font-size="14.00" fill="white"> </text>
</g>
<!-- n_10&#45;&gt;e_9 -->
<g id="edge27" class="edge">
<title>n_10&#45;&gt;e_9:s_1</title>
<path fill="none" stroke="white" d="M1064.11,-122.5C1068.25,-122.5 1085.69,-122.5 1100,-122.5"/>
</g>
<!-- n_11 -->
<g id="node12" class="node">
<title>n_11</title>
<ellipse fill="white" stroke="white" cx="1062.2" cy="-63.5" rx="1.8" ry="1.8"/>
<text text-anchor="middle" x="1105" y="-50.5" font-family="Times,serif" font-size="14.00" fill="white">val(ix(u64))</text>
</g>
<!-- e_10 -->
<g id="node31" class="node">
<title>e_10</title>
<path fill="none" stroke="white" d="M1330.6,-61.5C1330.6,-61.5 1449.6,-61.5 1449.6,-61.5 1455.6,-61.5 1461.6,-67.5 1461.6,-73.5 1461.6,-73.5 1461.6,-95.5 1461.6,-95.5 1461.6,-101.5 1455.6,-107.5 1449.6,-107.5 1449.6,-107.5 1330.6,-107.5 1330.6,-107.5 1324.6,-107.5 1318.6,-101.5 1318.6,-95.5 1318.6,-95.5 1318.6,-73.5 1318.6,-73.5 1318.6,-67.5 1324.6,-61.5 1330.6,-61.5"/>
<text text-anchor="middle" x="1329.1" y="-92.3" font-family="Times,serif" font-size="14.00" fill="white"> </text>
<polyline fill="none" stroke="white" points="1318.6,-84.5 1339.6,-84.5 "/>
<text text-anchor="middle" x="1329.1" y="-69.3" font-family="Times,serif" font-size="14.00" fill="white"> </text>
<polyline fill="none" stroke="white" points="1339.6,-61.5 1339.6,-107.5 "/>
<text text-anchor="middle" x="1390.1" y="-80.8" font-family="Times,serif" font-size="14.00" fill="white">f32.buf.load</text>
<polyline fill="none" stroke="white" points="1440.6,-61.5 1440.6,-107.5 "/>
<text text-anchor="middle" x="1451.1" y="-92.3" font-family="Times,serif" font-size="14.00" fill="white"> </text>
<polyline fill="none" stroke="white" points="1440.6,-84.5 1461.6,-84.5 "/>
<text text-anchor="middle" x="1451.1" y="-69.3" font-family="Times,serif" font-size="14.00" fill="white"> </text>
</g>
<!-- n_11&#45;&gt;e_10 -->
<g id="edge31" class="edge">
<title>n_11&#45;&gt;e_10:s_1</title>
<path fill="none" stroke="white" d="M1064.12,-63.56C1076.43,-64.32 1210.34,-72.5 1318.6,-72.5"/>
</g>
<!-- n_12 -->
<g id="node13" class="node">
<title>n_12</title>
<ellipse fill="white" stroke="white" cx="973.9" cy="-214.5" rx="1.8" ry="1.8"/>
<text text-anchor="middle" x="1072.2" y="-201.5" font-family="Times,serif" font-size="14.00" fill="white">val(buf(cap.own, u64, f32))</text>
</g>
<!-- n_12&#45;&gt;e_9 -->
<g id="edge26" class="edge">
<title>n_12&#45;&gt;e_9:s_0</title>
<path fill="none" stroke="white" d="M975.77,-214.19C987.31,-210.1 1110.5,-166.27 1110.5,-158.5"/>
</g>
<!-- n_13 -->
<g id="node14" class="node">
<title>n_13</title>
<ellipse fill="white" stroke="white" cx="1171.5" cy="-177.5" rx="1.8" ry="1.8"/>
<text text-anchor="middle" x="1142.2" y="-164.5" font-family="Times,serif" font-size="14.00" fill="white">val(f32)</text>
</g>
<!-- e_12 -->
<g id="node33" class="node">
<title>e_12</title>
<path fill="none" stroke="white" d="M1345.6,-136.5C1345.6,-136.5 1434.6,-136.5 1434.6,-136.5 1440.6,-136.5 1446.6,-142.5 1446.6,-148.5 1446.6,-148.5 1446.6,-170.5 1446.6,-170.5 1446.6,-176.5 1440.6,-182.5 1434.6,-182.5 1434.6,-182.5 1345.6,-182.5 1345.6,-182.5 1339.6,-182.5 1333.6,-176.5 1333.6,-170.5 1333.6,-170.5 1333.6,-148.5 1333.6,-148.5 1333.6,-142.5 1339.6,-136.5 1345.6,-136.5"/>
<text text-anchor="middle" x="1344.1" y="-167.3" font-family="Times,serif" font-size="14.00" fill="white"> </text>
<polyline fill="none" stroke="white" points="1333.6,-159.5 1354.6,-159.5 "/>
<text text-anchor="middle" x="1344.1" y="-144.3" font-family="Times,serif" font-size="14.00" fill="white"> </text>
<polyline fill="none" stroke="white" points="1354.6,-136.5 1354.6,-182.5 "/>
<text text-anchor="middle" x="1390.1" y="-155.8" font-family="Times,serif" font-size="14.00" fill="white">f32.add</text>
<polyline fill="none" stroke="white" points="1425.6,-136.5 1425.6,-182.5 "/>
<text text-anchor="middle" x="1436.1" y="-155.8" font-family="Times,serif" font-size="14.00" fill="white"> </text>
</g>
<!-- n_13&#45;&gt;e_12 -->
<g id="edge35" class="edge">
<title>n_13&#45;&gt;e_12:s_0</title>
<path fill="none" stroke="white" d="M1173.51,-177.43C1183.51,-176.77 1265.55,-171.5 1332.1,-171.5"/>
</g>
<!-- n_14 -->
<g id="node15" class="node">
<title>n_14</title>
<ellipse fill="white" stroke="white" cx="1280.8" cy="-145.5" rx="1.8" ry="1.8"/>
<text text-anchor="middle" x="1379.1" y="-132.5" font-family="Times,serif" font-size="14.00" fill="white">val(buf(cap.own, u64, f32))</text>
</g>
<!-- n_14&#45;&gt;e_10 -->
<g id="edge30" class="edge">
<title>n_14&#45;&gt;e_10:s_0</title>
<path fill="none" stroke="white" d="M1282.62,-145.08C1288.9,-141.87 1329.1,-120.8 1329.1,-108.5"/>
</g>
<!-- n_15 -->
<g id="node16" class="node">
<title>n_15</title>
<ellipse fill="white" stroke="white" cx="1280.8" cy="-122.5" rx="1.8" ry="1.8"/>
<text text-anchor="middle" x="1310.1" y="-115.5" font-family="Times,serif" font-size="14.00" fill="white">val(f32)</text>
</g>
<!-- n_15&#45;&gt;e_12 -->
<g id="edge36" class="edge">
<title>n_15&#45;&gt;e_12:s_1</title>
<path fill="none" stroke="white" d="M1282.94,-123.57C1288.13,-128.36 1310.26,-147.5 1332.1,-147.5"/>
</g>
<!-- n_16 -->
<g id="node17" class="node">
<title>n_16</title>
<ellipse fill="white" stroke="white" cx="1499.4" cy="-95.5" rx="1.8" ry="1.8"/>
<text text-anchor="middle" x="1597.7" y="-101.1" font-family="Times,serif" font-size="14.00" fill="white">val(buf(cap.own, u64, f32))</text>
</g>
<!-- e_11 -->
<g id="node32" class="node">
<title>e_11</title>
<path fill="none" stroke="white" d="M1549.2,-69.5C1549.2,-69.5 1650.2,-69.5 1650.2,-69.5 1656.2,-69.5 1662.2,-75.5 1662.2,-81.5 1662.2,-81.5 1662.2,-93.5 1662.2,-93.5 1662.2,-99.5 1656.2,-105.5 1650.2,-105.5 1650.2,-105.5 1549.2,-105.5 1549.2,-105.5 1543.2,-105.5 1537.2,-99.5 1537.2,-93.5 1537.2,-93.5 1537.2,-81.5 1537.2,-81.5 1537.2,-75.5 1543.2,-69.5 1549.2,-69.5"/>
<text text-anchor="middle" x="1547.7" y="-83.8" font-family="Times,serif" font-size="14.00" fill="white"> </text>
<polyline fill="none" stroke="white" points="1558.2,-69.5 1558.2,-105.5 "/>
<text text-anchor="middle" x="1610.2" y="-83.8" font-family="Times,serif" font-size="14.00" fill="white">f32.buf.drop</text>
</g>
<!-- n_16&#45;&gt;e_11 -->
<g id="edge34" class="edge">
<title>n_16&#45;&gt;e_11:s_0</title>
<path fill="none" stroke="white" d="M1501.29,-95.16C1505.36,-93.62 1522.55,-87.5 1537.2,-87.5"/>
</g>
<!-- n_17 -->
<g id="node18" class="node">
<title>n_17</title>
<ellipse fill="white" stroke="white" cx="1499.4" cy="-73.5" rx="1.8" ry="1.8"/>
<text text-anchor="middle" x="1528.7" y="-60.5" font-family="Times,serif" font-size="14.00" fill="white">val(f32)</text>
</g>
<!-- e_13 -->
<g id="node34" class="node">
<title>e_13</title>
<path fill="none" stroke="white" d="M1555.2,-124.5C1555.2,-124.5 1644.2,-124.5 1644.2,-124.5 1650.2,-124.5 1656.2,-130.5 1656.2,-136.5 1656.2,-136.5 1656.2,-158.5 1656.2,-158.5 1656.2,-164.5 1650.2,-170.5 1644.2,-170.5 1644.2,-170.5 1555.2,-170.5 1555.2,-170.5 1549.2,-170.5 1543.2,-164.5 1543.2,-158.5 1543.2,-158.5 1543.2,-136.5 1543.2,-136.5 1543.2,-130.5 1549.2,-124.5 1555.2,-124.5"/>
<text text-anchor="middle" x="1553.7" y="-155.3" font-family="Times,serif" font-size="14.00" fill="white"> </text>
<polyline fill="none" stroke="white" points="1543.2,-147.5 1564.2,-147.5 "/>
<text text-anchor="middle" x="1553.7" y="-132.3" font-family="Times,serif" font-size="14.00" fill="white"> </text>
<polyline fill="none" stroke="white" points="1564.2,-124.5 1564.2,-170.5 "/>
<text text-anchor="middle" x="1599.7" y="-143.8" font-family="Times,serif" font-size="14.00" fill="white">f32.add</text>
<polyline fill="none" stroke="white" points="1635.2,-124.5 1635.2,-170.5 "/>
<text text-anchor="middle" x="1645.7" y="-143.8" font-family="Times,serif" font-size="14.00" fill="white"> </text>
</g>
<!-- n_17&#45;&gt;e_13 -->
<g id="edge39" class="edge">
<title>n_17&#45;&gt;e_13:s_1</title>
<path fill="none" stroke="white" d="M1501.19,-74.64C1504.82,-79.79 1520.4,-101.21 1537.2,-114.5 1543.75,-119.68 1553.7,-115.15 1553.7,-123.5"/>
</g>
<!-- n_18 -->
<g id="node19" class="node">
<title>n_18</title>
<ellipse fill="white" stroke="white" cx="1499.4" cy="-159.5" rx="1.8" ry="1.8"/>
<text text-anchor="middle" x="1473.7" y="-165.1" font-family="Times,serif" font-size="14.00" fill="white">val(f32)</text>
</g>
<!-- n_18&#45;&gt;e_13 -->
<g id="edge38" class="edge">
<title>n_18&#45;&gt;e_13:s_0</title>
<path fill="none" stroke="white" d="M1501.42,-159.5C1506.06,-159.5 1525.64,-159.5 1541.7,-159.5"/>
</g>
<!-- n_19 -->
<g id="node20" class="node">
<title>n_19</title>
<ellipse fill="white" stroke="white" cx="1700" cy="-147.5" rx="1.8" ry="1.8"/>
<text text-anchor="middle" x="1674.3" y="-134.5" font-family="Times,serif" font-size="14.00" fill="white">val(f32)</text>
</g>
<!-- targets -->
<g id="node36" class="node">
<title>targets</title>
</g>
<!-- n_19&#45;&gt;targets -->
<g id="edge3" class="edge">
<title>n_19&#45;&gt;targets:p_0</title>
<path fill="none" stroke="white" stroke-dasharray="5,2" d="M1701.91,-147.5C1706.05,-147.5 1723.49,-147.5 1737.8,-147.5"/>
</g>
<!-- e_0 -->
<g id="node21" class="node">
<title>e_0</title>
<path fill="none" stroke="white" d="M86,-230.5C86,-230.5 145,-230.5 145,-230.5 151,-230.5 157,-236.5 157,-242.5 157,-242.5 157,-254.5 157,-254.5 157,-260.5 151,-266.5 145,-266.5 145,-266.5 86,-266.5 86,-266.5 80,-266.5 74,-260.5 74,-254.5 74,-254.5 74,-242.5 74,-242.5 74,-236.5 80,-230.5 86,-230.5"/>
<text text-anchor="middle" x="115.5" y="-244.8" font-family="Times,serif" font-size="14.00" fill="white">unit.drop</text>
</g>
<!-- e_1&#45;&gt;n_2 -->
<g id="edge6" class="edge">
<title>e_1:t_0&#45;&gt;n_2</title>
<path fill="none" stroke="white" d="M444.6,-200.5C498.55,-200.5 564.81,-209.29 572.88,-210.39"/>
</g>
<!-- e_1&#45;&gt;n_3 -->
<g id="edge7" class="edge">
<title>e_1:t_1&#45;&gt;n_3</title>
<path fill="none" stroke="white" d="M444.6,-176.5C458.96,-176.5 476.36,-174.2 480.49,-173.63"/>
</g>
<!-- e_2&#45;&gt;n_4 -->
<g id="edge9" class="edge">
<title>e_2:t_0&#45;&gt;n_4</title>
<path fill="none" stroke="white" d="M629.2,-179.5C643.51,-179.5 660.95,-179.5 665.09,-179.5"/>
</g>
<!-- e_2&#45;&gt;n_5 -->
<g id="edge10" class="edge">
<title>e_2:t_1&#45;&gt;n_5</title>
<path fill="none" stroke="white" d="M629.2,-155.5C644.14,-155.5 661.11,-147.08 665.12,-144.97"/>
</g>
<!-- e_3&#45;&gt;n_6 -->
<g id="edge12" class="edge">
<title>e_3:t_0&#45;&gt;n_6</title>
<path fill="none" stroke="white" d="M832.3,-145.5C852.7,-145.5 877.44,-142.44 883.31,-141.67"/>
</g>
<!-- e_3&#45;&gt;n_7 -->
<g id="edge13" class="edge">
<title>e_3:t_1&#45;&gt;n_7</title>
<path fill="none" stroke="white" d="M832.3,-121.5C853.35,-121.5 877.61,-110.78 883.34,-108.1"/>
</g>
<!-- e_4 -->
<g id="node25" class="node">
<title>e_4</title>
<path fill="none" stroke="white" d="M740.8,-55.5C740.8,-55.5 811.8,-55.5 811.8,-55.5 817.8,-55.5 823.8,-61.5 823.8,-67.5 823.8,-67.5 823.8,-79.5 823.8,-79.5 823.8,-85.5 817.8,-91.5 811.8,-91.5 811.8,-91.5 740.8,-91.5 740.8,-91.5 734.8,-91.5 728.8,-85.5 728.8,-79.5 728.8,-79.5 728.8,-67.5 728.8,-67.5 728.8,-61.5 734.8,-55.5 740.8,-55.5"/>
<text text-anchor="middle" x="765.8" y="-69.8" font-family="Times,serif" font-size="14.00" fill="white">u64.one</text>
<polyline fill="none" stroke="white" points="802.8,-55.5 802.8,-91.5 "/>
<text text-anchor="middle" x="813.3" y="-69.8" font-family="Times,serif" font-size="14.00" fill="white"> </text>
</g>
<!-- e_4&#45;&gt;n_8 -->
<g id="edge14" class="edge">
<title>e_4:t_0&#45;&gt;n_8</title>
<path fill="none" stroke="white" d="M825.3,-73.5C849.31,-73.5 878.5,-78.43 883.77,-79.35"/>
</g>
<!-- e_5 -->
<g id="node26" class="node">
<title>e_5</title>
<path fill="none" stroke="white" d="M740.8,-0.5C740.8,-0.5 811.8,-0.5 811.8,-0.5 817.8,-0.5 823.8,-6.5 823.8,-12.5 823.8,-12.5 823.8,-24.5 823.8,-24.5 823.8,-30.5 817.8,-36.5 811.8,-36.5 811.8,-36.5 740.8,-36.5 740.8,-36.5 734.8,-36.5 728.8,-30.5 728.8,-24.5 728.8,-24.5 728.8,-12.5 728.8,-12.5 728.8,-6.5 734.8,-0.5 740.8,-0.5"/>
<text text-anchor="middle" x="765.8" y="-14.8" font-family="Times,serif" font-size="14.00" fill="white">u64.two</text>
<polyline fill="none" stroke="white" points="802.8,-0.5 802.8,-36.5 "/>
<text text-anchor="middle" x="813.3" y="-14.8" font-family="Times,serif" font-size="14.00" fill="white"> </text>
</g>
<!-- e_5&#45;&gt;n_9 -->
<g id="edge15" class="edge">
<title>e_5:t_0&#45;&gt;n_9</title>
<path fill="none" stroke="white" d="M825.3,-18.5C850.04,-18.5 878.64,-31.64 883.79,-34.1"/>
</g>
<!-- e_6&#45;&gt;n_10 -->
<g id="edge18" class="edge">
<title>e_6:t_0&#45;&gt;n_10</title>
<path fill="none" stroke="white" d="M1024.4,-123.5C1038.72,-123.5 1056.15,-122.73 1060.29,-122.54"/>
</g>
<!-- e_7&#45;&gt;n_11 -->
<g id="edge21" class="edge">
<title>e_7:t_0&#45;&gt;n_11</title>
<path fill="none" stroke="white" d="M1024.4,-58.5C1038.84,-58.5 1056.19,-62.33 1060.3,-63.29"/>
</g>
<!-- e_8&#45;&gt;n_12 -->
<g id="edge24" class="edge">
<title>e_8:t_0&#45;&gt;n_12</title>
<path fill="none" stroke="white" d="M847.8,-210.5C899.52,-210.5 963.2,-213.96 971.9,-214.44"/>
</g>
<!-- e_8&#45;&gt;n_13 -->
<g id="edge25" class="edge">
<title>e_8:t_1&#45;&gt;n_13</title>
<path fill="none" stroke="white" d="M847.8,-186.5C985.67,-186.5 1156.55,-178.19 1169.69,-177.54"/>
</g>
<!-- e_9&#45;&gt;n_14 -->
<g id="edge28" class="edge">
<title>e_9:t_0&#45;&gt;n_14</title>
<path fill="none" stroke="white" d="M1243,-146.5C1257.32,-146.5 1274.75,-145.73 1278.89,-145.54"/>
</g>
<!-- e_9&#45;&gt;n_15 -->
<g id="edge29" class="edge">
<title>e_9:t_1&#45;&gt;n_15</title>
<path fill="none" stroke="white" d="M1243,-122.5C1257.31,-122.5 1274.75,-122.5 1278.89,-122.5"/>
</g>
<!-- e_10&#45;&gt;n_16 -->
<g id="edge32" class="edge">
<title>e_10:t_0&#45;&gt;n_16</title>
<path fill="none" stroke="white" d="M1461.6,-96.5C1475.92,-96.5 1493.35,-95.73 1497.49,-95.54"/>
</g>
<!-- e_10&#45;&gt;n_17 -->
<g id="edge33" class="edge">
<title>e_10:t_1&#45;&gt;n_17</title>
<path fill="none" stroke="white" d="M1461.6,-72.5C1475.92,-72.5 1493.35,-73.27 1497.49,-73.46"/>
</g>
<!-- e_12&#45;&gt;n_18 -->
<g id="edge37" class="edge">
<title>e_12:t_0&#45;&gt;n_18</title>
<path fill="none" stroke="white" d="M1448.1,-159.5C1467.66,-159.5 1491.5,-159.5 1497.16,-159.5"/>
</g>
<!-- e_13&#45;&gt;n_19 -->
<g id="edge40" class="edge">
<title>e_13:t_0&#45;&gt;n_19</title>
<path fill="none" stroke="white" d="M1657.7,-147.5C1673.76,-147.5 1693.34,-147.5 1697.98,-147.5"/>
</g>
<!-- sources -->
<g id="node35" class="node">
<title>sources</title>
</g>
<!-- sources&#45;&gt;n_0 -->
<g id="edge1" class="edge">
<title>sources:p_0&#45;&gt;n_0</title>
<path fill="none" stroke="white" stroke-dasharray="5,2" d="M143.5,-200.5C163.06,-200.5 186.9,-200.5 192.56,-200.5"/>
</g>
<!-- sources&#45;&gt;n_1 -->
<g id="edge2" class="edge">
<title>sources:p_1&#45;&gt;n_1</title>
<path fill="none" stroke="white" stroke-dasharray="5,2" d="M143.5,-176.5C163.06,-176.5 186.9,-176.5 192.56,-176.5"/>
</g>
</g>
</svg>
