<?xml version="1.0" encoding="UTF-8" standalone="no"?>
<!DOCTYPE svg PUBLIC "-//W3C//DTD SVG 1.1//EN"
 "http://www.w3.org/Graphics/SVG/1.1/DTD/svg11.dtd">
<!-- Generated by graphviz version 2.43.0 (0)
 -->
<!-- Title: G Pages: 1 -->
<svg width="908pt" height="275pt"
 viewBox="0.00 0.00 907.60 275.00" xmlns="http://www.w3.org/2000/svg" xmlns:xlink="http://www.w3.org/1999/xlink">
<g id="graph0" class="graph" transform="scale(1 1) rotate(0) translate(4 271)">
<title>G</title>
<polygon fill="#4a4a4a" stroke="transparent" points="-4,4 -4,-271 903.6,-271 903.6,4 -4,4"/>
<!-- n_0 -->
<g id="node1" class="node">
<title>n_0</title>
<ellipse fill="white" stroke="white" cx="449.8" cy="-49.5" rx="1.8" ry="1.8"/>
<text text-anchor="middle" x="417" y="-36.5" font-family="Times,serif" font-size="14.00" fill="white">val(bool)</text>
</g>
<!-- e_4 -->
<g id="node12" class="node">
<title>e_4</title>
<path fill="none" stroke="white" d="M499.6,-32.5C499.6,-32.5 585.6,-32.5 585.6,-32.5 591.6,-32.5 597.6,-38.5 597.6,-44.5 597.6,-44.5 597.6,-158.5 597.6,-158.5 597.6,-164.5 591.6,-170.5 585.6,-170.5 585.6,-170.5 499.6,-170.5 499.6,-170.5 493.6,-170.5 487.6,-164.5 487.6,-158.5 487.6,-158.5 487.6,-44.5 487.6,-44.5 487.6,-38.5 493.6,-32.5 499.6,-32.5"/>
<text text-anchor="middle" x="498.1" y="-155.3" font-family="Times,serif" font-size="14.00" fill="white"> </text>
<polyline fill="none" stroke="white" points="487.6,-147.5 508.6,-147.5 "/>
<text text-anchor="middle" x="498.1" y="-132.3" font-family="Times,serif" font-size="14.00" fill="white"> </text>
<polyline fill="none" stroke="white" points="487.6,-124.5 508.6,-124.5 "/>
<text text-anchor="middle" x="498.1" y="-109.3" font-family="Times,serif" font-size="14.00" fill="white"> </text>
<polyline fill="none" stroke="white" points="487.6,-101.5 508.6,-101.5 "/>
<text text-anchor="middle" x="498.1" y="-86.3" font-family="Times,serif" font-size="14.00" fill="white"> </text>
<polyline fill="none" stroke="white" points="487.6,-78.5 508.6,-78.5 "/>
<text text-anchor="middle" x="498.1" y="-63.3" font-family="Times,serif" font-size="14.00" fill="white"> </text>
<polyline fill="none" stroke="white" points="487.6,-55.5 508.6,-55.5 "/>
<text text-anchor="middle" x="498.1" y="-40.3" font-family="Times,serif" font-size="14.00" fill="white"> </text>
<polyline fill="none" stroke="white" points="508.6,-32.5 508.6,-170.5 "/>
<text text-anchor="middle" x="542.6" y="-97.8" font-family="Times,serif" font-size="14.00" fill="white">bool.ifc</text>
<polyline fill="none" stroke="white" points="576.6,-32.5 576.6,-170.5 "/>
<text text-anchor="middle" x="587.1" y="-97.8" font-family="Times,serif" font-size="14.00" fill="white"> </text>
</g>
<!-- n_0&#45;&gt;e_4 -->
<g id="edge12" class="edge">
<title>n_0&#45;&gt;e_4:s_4</title>
<path fill="none" stroke="white" d="M451.64,-50.23C455.48,-53.48 471.84,-66.5 487.6,-66.5"/>
</g>
<!-- n_1 -->
<g id="node2" class="node">
<title>n_1</title>
<ellipse fill="white" stroke="white" cx="449.8" cy="-26.5" rx="1.8" ry="1.8"/>
<text text-anchor="middle" x="596.6" y="-13.5" font-family="Times,serif" font-size="14.00" fill="white">val(buf(cap.own, u64, f32)) * val(ix(u64))</text>
</g>
<!-- n_1&#45;&gt;e_4 -->
<g id="edge13" class="edge">
<title>n_1&#45;&gt;e_4:s_5</title>
<path fill="none" stroke="white" d="M451.64,-27.23C455.48,-30.48 471.84,-43.5 487.6,-43.5"/>
</g>
<!-- n_2 -->
<g id="node3" class="node">
<title>n_2</title>
<ellipse fill="white" stroke="white" cx="449.8" cy="-225.5" rx="1.8" ry="1.8"/>
<text text-anchor="middle" x="443" y="-212.5" font-family="Times,serif" font-size="14.00" fill="white">1</text>
</g>
<!-- n_2&#45;&gt;e_4 -->
<g id="edge8" class="edge">
<title>n_2&#45;&gt;e_4:s_0</title>
<path fill="none" stroke="white" d="M451.61,-225.1C457.83,-221.97 497.6,-200.78 497.6,-171.5"/>
</g>
<!-- n_3 -->
<g id="node4" class="node">
<title>n_3</title>
<ellipse fill="white" stroke="white" cx="449.8" cy="-137.5" rx="1.8" ry="1.8"/>
<text text-anchor="middle" x="675.6" y="-124.5" font-family="Times,serif" font-size="14.00" fill="white">val((1 * (val(buf(cap.own, u64, f32)) * val(ix(u64)))) &#45;&gt; val(f32))</text>
</g>
<!-- n_3&#45;&gt;e_4 -->
<g id="edge9" class="edge">
<title>n_3&#45;&gt;e_4:s_1</title>
<path fill="none" stroke="white" d="M451.71,-137.46C455.85,-137.27 473.28,-136.5 487.6,-136.5"/>
</g>
<!-- n_4 -->
<g id="node5" class="node">
<title>n_4</title>
<ellipse fill="white" stroke="white" cx="449.8" cy="-177.5" rx="1.8" ry="1.8"/>
<text text-anchor="middle" x="443" y="-164.5" font-family="Times,serif" font-size="14.00" fill="white">1</text>
</g>
<!-- n_4&#45;&gt;e_4 -->
<g id="edge10" class="edge">
<title>n_4&#45;&gt;e_4:s_2</title>
<path fill="none" stroke="white" d="M450.93,-175.92C451.8,-166.06 457.86,-113.5 487.6,-113.5"/>
</g>
<!-- n_5 -->
<g id="node6" class="node">
<title>n_5</title>
<ellipse fill="white" stroke="white" cx="449.8" cy="-85.5" rx="1.8" ry="1.8"/>
<text text-anchor="middle" x="224" y="-72.5" font-family="Times,serif" font-size="14.00" fill="white">val((1 * (val(buf(cap.own, u64, f32)) * val(ix(u64)))) &#45;&gt; val(f32))</text>
</g>
<!-- n_5&#45;&gt;e_4 -->
<g id="edge11" class="edge">
<title>n_5&#45;&gt;e_4:s_3</title>
<path fill="none" stroke="white" d="M451.71,-85.67C455.83,-86.44 473.2,-89.5 487.6,-89.5"/>
</g>
<!-- n_6 -->
<g id="node7" class="node">
<title>n_6</title>
<ellipse fill="white" stroke="white" cx="635.4" cy="-101.5" rx="1.8" ry="1.8"/>
<text text-anchor="middle" x="609.7" y="-88.5" font-family="Times,serif" font-size="14.00" fill="white">val(f32)</text>
</g>
<!-- targets -->
<g id="node14" class="node">
<title>targets</title>
</g>
<!-- n_6&#45;&gt;targets -->
<g id="edge3" class="edge">
<title>n_6&#45;&gt;targets:p_0</title>
<path fill="none" stroke="white" stroke-dasharray="5,2" d="M637.31,-101.5C641.45,-101.5 658.89,-101.5 673.2,-101.5"/>
</g>
<!-- e_0 -->
<g id="node8" class="node">
<title>e_0</title>
<path fill="none" stroke="white" d="M271,-230.5C271,-230.5 352,-230.5 352,-230.5 358,-230.5 364,-236.5 364,-242.5 364,-242.5 364,-254.5 364,-254.5 364,-260.5 358,-266.5 352,-266.5 352,-266.5 271,-266.5 271,-266.5 265,-266.5 259,-260.5 259,-254.5 259,-254.5 259,-242.5 259,-242.5 259,-236.5 265,-230.5 271,-230.5"/>
<text text-anchor="middle" x="301" y="-244.8" font-family="Times,serif" font-size="14.00" fill="white">unit.intro</text>
<polyline fill="none" stroke="white" points="343,-230.5 343,-266.5 "/>
<text text-anchor="middle" x="353.5" y="-244.8" font-family="Times,serif" font-size="14.00" fill="white"> </text>
</g>
<!-- e_0&#45;&gt;n_2 -->
<g id="edge4" class="edge">
<title>e_0:t_0&#45;&gt;n_2</title>
<path fill="none" stroke="white" d="M365.5,-248.5C400.91,-248.5 441.83,-228.95 448,-225.9"/>
</g>
<!-- e_1 -->
<g id="node9" class="node">
<title>e_1</title>
<path fill="none" stroke="white" d="M229.5,-120.5C229.5,-120.5 393.5,-120.5 393.5,-120.5 399.5,-120.5 405.5,-126.5 405.5,-132.5 405.5,-132.5 405.5,-144.5 405.5,-144.5 405.5,-150.5 399.5,-156.5 393.5,-156.5 393.5,-156.5 229.5,-156.5 229.5,-156.5 223.5,-156.5 217.5,-150.5 217.5,-144.5 217.5,-144.5 217.5,-132.5 217.5,-132.5 217.5,-126.5 223.5,-120.5 229.5,-120.5"/>
<text text-anchor="middle" x="301" y="-134.8" font-family="Times,serif" font-size="14.00" fill="white">name.f32.pool&#45;at&#45;one</text>
<polyline fill="none" stroke="white" points="384.5,-120.5 384.5,-156.5 "/>
<text text-anchor="middle" x="395" y="-134.8" font-family="Times,serif" font-size="14.00" fill="white"> </text>
</g>
<!-- e_1&#45;&gt;n_3 -->
<g id="edge5" class="edge">
<title>e_1:t_0&#45;&gt;n_3</title>
<path fill="none" stroke="white" d="M406.5,-138.5C422.95,-138.5 443,-137.73 447.75,-137.54"/>
</g>
<!-- e_2 -->
<g id="node10" class="node">
<title>e_2</title>
<path fill="none" stroke="white" d="M271,-175.5C271,-175.5 352,-175.5 352,-175.5 358,-175.5 364,-181.5 364,-187.5 364,-187.5 364,-199.5 364,-199.5 364,-205.5 358,-211.5 352,-211.5 352,-211.5 271,-211.5 271,-211.5 265,-211.5 259,-205.5 259,-199.5 259,-199.5 259,-187.5 259,-187.5 259,-181.5 265,-175.5 271,-175.5"/>
<text text-anchor="middle" x="301" y="-189.8" font-family="Times,serif" font-size="14.00" fill="white">unit.intro</text>
<polyline fill="none" stroke="white" points="343,-175.5 343,-211.5 "/>
<text text-anchor="middle" x="353.5" y="-189.8" font-family="Times,serif" font-size="14.00" fill="white"> </text>
</g>
<!-- e_2&#45;&gt;n_4 -->
<g id="edge6" class="edge">
<title>e_2:t_0&#45;&gt;n_4</title>
<path fill="none" stroke="white" d="M365.5,-193.5C400.25,-193.5 441.72,-179.9 447.99,-177.78"/>
</g>
<!-- e_3 -->
<g id="node11" class="node">
<title>e_3</title>
<path fill="none" stroke="white" d="M223,-65.5C223,-65.5 400,-65.5 400,-65.5 406,-65.5 412,-71.5 412,-77.5 412,-77.5 412,-89.5 412,-89.5 412,-95.5 406,-101.5 400,-101.5 400,-101.5 223,-101.5 223,-101.5 217,-101.5 211,-95.5 211,-89.5 211,-89.5 211,-77.5 211,-77.5 211,-71.5 217,-65.5 223,-65.5"/>
<text text-anchor="middle" x="301" y="-79.8" font-family="Times,serif" font-size="14.00" fill="white">name.f32.pool&#45;at&#45;many</text>
<polyline fill="none" stroke="white" points="391,-65.5 391,-101.5 "/>
<text text-anchor="middle" x="401.5" y="-79.8" font-family="Times,serif" font-size="14.00" fill="white"> </text>
</g>
<!-- e_3&#45;&gt;n_5 -->
<g id="edge7" class="edge">
<title>e_3:t_0&#45;&gt;n_5</title>
<path fill="none" stroke="white" d="M412,-83.5C426.33,-83.5 443.76,-85.03 447.89,-85.41"/>
</g>
<!-- e_4&#45;&gt;n_6 -->
<g id="edge14" class="edge">
<title>e_4:t_0&#45;&gt;n_6</title>
<path fill="none" stroke="white" d="M597.6,-101.5C611.91,-101.5 629.35,-101.5 633.49,-101.5"/>
</g>
<!-- sources -->
<g id="node13" class="node">
<title>sources</title>
</g>
<!-- sources&#45;&gt;n_0 -->
<g id="edge1" class="edge">
<title>sources:p_0&#45;&gt;n_0</title>
<path fill="none" stroke="white" stroke-dasharray="5,2" d="M339.5,-35.5C384.65,-35.5 439.44,-47.4 447.73,-49.26"/>
</g>
<!-- sources&#45;&gt;n_1 -->
<g id="edge2" class="edge">
<title>sources:p_1&#45;&gt;n_1</title>
<path fill="none" stroke="white" stroke-dasharray="5,2" d="M339.5,-11.5C384.7,-11.5 439.45,-24.25 447.73,-26.24"/>
</g>
</g>
</svg>
