<?xml version="1.0" encoding="UTF-8" standalone="no"?>
<!DOCTYPE svg PUBLIC "-//W3C//DTD SVG 1.1//EN"
 "http://www.w3.org/Graphics/SVG/1.1/DTD/svg11.dtd">
<!-- Generated by graphviz version 2.43.0 (0)
 -->
<!-- Title: G Pages: 1 -->
<svg width="243pt" height="100pt"
 viewBox="0.00 0.00 242.60 100.00" xmlns="http://www.w3.org/2000/svg" xmlns:xlink="http://www.w3.org/1999/xlink">
<g id="graph0" class="graph" transform="scale(1 1) rotate(0) translate(4 96)">
<title>G</title>
<polygon fill="#4a4a4a" stroke="transparent" points="-4,4 -4,-96 238.6,-96 238.6,4 -4,4"/>
<!-- n_0 -->
<g id="node1" class="node">
<title>n_0</title>
<ellipse fill="white" stroke="white" cx="142.8" cy="-69.5" rx="1.8" ry="1.8"/>
</g>
<!-- targets -->
<g id="node5" class="node">
<title>targets</title>
</g>
<!-- n_0&#45;&gt;targets -->
<g id="edge2" class="edge">
<title>n_0&#45;&gt;targets:p_0</title>
<path fill="none" stroke="white" stroke-dasharray="5,2" d="M144.71,-69.33C148.83,-68.56 166.2,-65.5 180.6,-65.5"/>
</g>
<!-- n_1 -->
<g id="node2" class="node">
<title>n_1</title>
<ellipse fill="white" stroke="white" cx="142.8" cy="-33.5" rx="1.8" ry="1.8"/>
</g>
<!-- n_1&#45;&gt;targets -->
<g id="edge3" class="edge">
<title>n_1&#45;&gt;targets:p_1</title>
<path fill="none" stroke="white" stroke-dasharray="5,2" d="M144.69,-33.84C148.76,-35.38 165.95,-41.5 180.6,-41.5"/>
</g>
<!-- e_0 -->
<g id="node3" class="node">
<title>e_0</title>
<path fill="none" stroke="white" d="M12,-55.5C12,-55.5 93,-55.5 93,-55.5 99,-55.5 105,-61.5 105,-67.5 105,-67.5 105,-79.5 105,-79.5 105,-85.5 99,-91.5 93,-91.5 93,-91.5 12,-91.5 12,-91.5 6,-91.5 0,-85.5 0,-79.5 0,-79.5 0,-67.5 0,-67.5 0,-61.5 6,-55.5 12,-55.5"/>
<text text-anchor="middle" x="42" y="-69.8" font-family="Times,serif" font-size="14.00" fill="white">unit.intro</text>
<polyline fill="none" stroke="white" points="84,-55.5 84,-91.5 "/>
<text text-anchor="middle" x="94.5" y="-69.8" font-family="Times,serif" font-size="14.00" fill="white"> </text>
</g>
<!-- e_0&#45;&gt;n_0 -->
<g id="edge4" class="edge">
<title>e_0:t_0&#45;&gt;n_0</title>
<path fill="none" stroke="white" d="M105,-73.5C119.4,-73.5 136.77,-70.44 140.89,-69.67"/>
</g>
<!-- sources -->
<g id="node4" class="node">
<title>sources</title>
</g>
<!-- sources&#45;&gt;n_1 -->
<g id="edge1" class="edge">
<title>sources:p_0&#45;&gt;n_1</title>
<path fill="none" stroke="white" stroke-dasharray="5,2" d="M80.5,-18.5C105.92,-18.5 135.61,-30.82 140.95,-33.13"/>
</g>
</g>
</svg>
