<?xml version="1.0" encoding="UTF-8" standalone="no"?>
<!DOCTYPE svg PUBLIC "-//W3C//DTD SVG 1.1//EN"
 "http://www.w3.org/Graphics/SVG/1.1/DTD/svg11.dtd">
<!-- Generated by graphviz version 2.43.0 (0)
 -->
<!-- Title: G Pages: 1 -->
<svg width="547pt" height="81pt"
 viewBox="0.00 0.00 546.80 81.30" xmlns="http://www.w3.org/2000/svg" xmlns:xlink="http://www.w3.org/1999/xlink">
<g id="graph0" class="graph" transform="scale(1 1) rotate(0) translate(4 77.3)">
<title>G</title>
<polygon fill="#4a4a4a" stroke="transparent" points="-4,4 -4,-77.3 542.8,-77.3 542.8,4 -4,4"/>
<!-- n_0 -->
<g id="node1" class="node">
<title>n_0</title>
<ellipse fill="white" stroke="white" cx="91.8" cy="-52.8" rx="1.8" ry="1.8"/>
<text text-anchor="middle" x="63.1" y="-58.4" font-family="Times,serif" font-size="14.00" fill="white">x0 : bool</text>
</g>
<!-- e_0 -->
<g id="node5" class="node">
<title>e_0</title>
<path fill="none" stroke="white" d="M141.6,-36.8C141.6,-36.8 220.6,-36.8 220.6,-36.8 226.6,-36.8 232.6,-42.8 232.6,-48.8 232.6,-48.8 232.6,-60.8 232.6,-60.8 232.6,-66.8 226.6,-72.8 220.6,-72.8 220.6,-72.8 141.6,-72.8 141.6,-72.8 135.6,-72.8 129.6,-66.8 129.6,-60.8 129.6,-60.8 129.6,-48.8 129.6,-48.8 129.6,-42.8 135.6,-36.8 141.6,-36.8"/>
<text text-anchor="middle" x="140.1" y="-51.1" font-family="Times,serif" font-size="14.00" fill="white"> </text>
<polyline fill="none" stroke="white" points="150.6,-36.8 150.6,-72.8 "/>
<text text-anchor="middle" x="181.1" y="-51.1" font-family="Times,serif" font-size="14.00" fill="white">assert</text>
<polyline fill="none" stroke="white" points="211.6,-36.8 211.6,-72.8 "/>
<text text-anchor="middle" x="222.1" y="-51.1" font-family="Times,serif" font-size="14.00" fill="white"> </text>
</g>
<!-- n_0&#45;&gt;e_0 -->
<g id="edge4" class="edge">
<title>n_0&#45;&gt;e_0:s_0</title>
<path fill="none" stroke="white" d="M93.71,-52.89C97.84,-53.27 115.27,-54.8 129.6,-54.8"/>
</g>
<!-- n_1 -->
<g id="node2" class="node">
<title>n_1</title>
<ellipse fill="white" stroke="white" cx="270.4" cy="-52.8" rx="1.8" ry="1.8"/>
<text text-anchor="middle" x="321.7" y="-58.4" font-family="Times,serif" font-size="14.00" fill="white">|&#45;(x0 = bool.t)</text>
</g>
<!-- e_1 -->
<g id="node6" class="node">
<title>e_1</title>
<path fill="none" stroke="white" d="M320.2,-12.8C320.2,-12.8 397.2,-12.8 397.2,-12.8 403.2,-12.8 409.2,-18.8 409.2,-24.8 409.2,-24.8 409.2,-46.8 409.2,-46.8 409.2,-52.8 403.2,-58.8 397.2,-58.8 397.2,-58.8 320.2,-58.8 320.2,-58.8 314.2,-58.8 308.2,-52.8 308.2,-46.8 308.2,-46.8 308.2,-24.8 308.2,-24.8 308.2,-18.8 314.2,-12.8 320.2,-12.8"/>
<text text-anchor="middle" x="318.7" y="-43.6" font-family="Times,serif" font-size="14.00" fill="white"> </text>
<polyline fill="none" stroke="white" points="308.2,-35.8 329.2,-35.8 "/>
<text text-anchor="middle" x="318.7" y="-20.6" font-family="Times,serif" font-size="14.00" fill="white"> </text>
<polyline fill="none" stroke="white" points="329.2,-12.8 329.2,-58.8 "/>
<text text-anchor="middle" x="358.7" y="-32.1" font-family="Times,serif" font-size="14.00" fill="white">ax&#45;mp</text>
<polyline fill="none" stroke="white" points="388.2,-12.8 388.2,-58.8 "/>
<text text-anchor="middle" x="398.7" y="-32.1" font-family="Times,serif" font-size="14.00" fill="white"> </text>
</g>
<!-- n_1&#45;&gt;e_1 -->
<g id="edge6" class="edge">
<title>n_1&#45;&gt;e_1:s_0</title>
<path fill="none" stroke="white" d="M272.3,-52.59C276.41,-51.63 293.76,-47.8 308.2,-47.8"/>
</g>
<!-- n_2 -->
<g id="node3" class="node">
<title>n_2</title>
<ellipse fill="white" stroke="white" cx="181.1" cy="-16.8" rx="1.8" ry="1.8"/>
<text text-anchor="middle" x="96.9" y="-3.8" font-family="Times,serif" font-size="14.00" fill="white">|&#45;((x0 = bool.t) ==&gt; x1)</text>
</g>
<!-- n_2&#45;&gt;e_1 -->
<g id="edge7" class="edge">
<title>n_2&#45;&gt;e_1:s_1</title>
<path fill="none" stroke="white" d="M182.9,-16.88C190.79,-17.65 255.58,-23.8 308.2,-23.8"/>
</g>
<!-- n_3 -->
<g id="node4" class="node">
<title>n_3</title>
<ellipse fill="white" stroke="white" cx="447" cy="-35.8" rx="1.8" ry="1.8"/>
<text text-anchor="middle" x="430.3" y="-22.8" font-family="Times,serif" font-size="14.00" fill="white">|&#45;(x1)</text>
</g>
<!-- targets -->
<g id="node8" class="node">
<title>targets</title>
</g>
<!-- n_3&#45;&gt;targets -->
<g id="edge3" class="edge">
<title>n_3&#45;&gt;targets:p_0</title>
<path fill="none" stroke="white" stroke-dasharray="5,2" d="M448.91,-35.8C453.05,-35.8 470.49,-35.8 484.8,-35.8"/>
</g>
<!-- e_0&#45;&gt;n_1 -->
<g id="edge5" class="edge">
<title>e_0:t_0&#45;&gt;n_1</title>
<path fill="none" stroke="white" d="M232.6,-54.8C246.93,-54.8 264.36,-53.27 268.49,-52.89"/>
</g>
<!-- e_1&#45;&gt;n_3 -->
<g id="edge8" class="edge">
<title>e_1:t_0&#45;&gt;n_3</title>
<path fill="none" stroke="white" d="M409.2,-35.8C423.51,-35.8 440.95,-35.8 445.09,-35.8"/>
</g>
<!-- sources -->
<g id="node7" class="node">
<title>sources</title>
</g>
<!-- sources&#45;&gt;n_0 -->
<g id="edge1" class="edge">
<title>sources:p_0&#45;&gt;n_0</title>
<path fill="none" stroke="white" stroke-dasharray="5,2" d="M54,-47.8C68.44,-47.8 85.79,-51.63 89.9,-52.59"/>
</g>
<!-- sources&#45;&gt;n_2 -->
<g id="edge2" class="edge">
<title>sources:p_1&#45;&gt;n_2</title>
<path fill="none" stroke="white" stroke-dasharray="5,2" d="M54,-23.8C106.62,-23.8 171.41,-17.65 179.3,-16.88"/>
</g>
</g>
</svg>
