<?xml version="1.0" encoding="UTF-8" standalone="no"?>
<!DOCTYPE svg PUBLIC "-//W3C//DTD SVG 1.1//EN"
 "http://www.w3.org/Graphics/SVG/1.1/DTD/svg11.dtd">
<!-- Generated by graphviz version 2.43.0 (0)
 -->
<!-- Title: G Pages: 1 -->
<svg width="547pt" height="69pt"
 viewBox="0.00 0.00 546.80 69.00" xmlns="http://www.w3.org/2000/svg" xmlns:xlink="http://www.w3.org/1999/xlink">
<g id="graph0" class="graph" transform="scale(1 1) rotate(0) translate(4 65)">
<title>G</title>
<polygon fill="#4a4a4a" stroke="transparent" points="-4,4 -4,-65 542.8,-65 542.8,4 -4,4"/>
<!-- n_0 -->
<g id="node1" class="node">
<title>n_0</title>
<ellipse fill="white" stroke="white" cx="91.8" cy="-40.5" rx="1.8" ry="1.8"/>
</g>
<!-- e_0 -->
<g id="node5" class="node">
<title>e_0</title>
<path fill="none" stroke="white" d="M141.6,-24.5C141.6,-24.5 220.6,-24.5 220.6,-24.5 226.6,-24.5 232.6,-30.5 232.6,-36.5 232.6,-36.5 232.6,-48.5 232.6,-48.5 232.6,-54.5 226.6,-60.5 220.6,-60.5 220.6,-60.5 141.6,-60.5 141.6,-60.5 135.6,-60.5 129.6,-54.5 129.6,-48.5 129.6,-48.5 129.6,-36.5 129.6,-36.5 129.6,-30.5 135.6,-24.5 141.6,-24.5"/>
<text text-anchor="middle" x="140.1" y="-38.8" font-family="Times,serif" font-size="14.00" fill="white"> </text>
<polyline fill="none" stroke="white" points="150.6,-24.5 150.6,-60.5 "/>
<text text-anchor="middle" x="181.1" y="-38.8" font-family="Times,serif" font-size="14.00" fill="white">assert</text>
<polyline fill="none" stroke="white" points="211.6,-24.5 211.6,-60.5 "/>
<text text-anchor="middle" x="222.1" y="-38.8" font-family="Times,serif" font-size="14.00" fill="white"> </text>
</g>
<!-- n_0&#45;&gt;e_0 -->
<g id="edge4" class="edge">
<title>n_0&#45;&gt;e_0:s_0</title>
<path fill="none" stroke="white" d="M93.71,-40.59C97.84,-40.97 115.27,-42.5 129.6,-42.5"/>
</g>
<!-- n_1 -->
<g id="node2" class="node">
<title>n_1</title>
<ellipse fill="white" stroke="white" cx="270.4" cy="-40.5" rx="1.8" ry="1.8"/>
</g>
<!-- e_1 -->
<g id="node6" class="node">
<title>e_1</title>
<path fill="none" stroke="white" d="M320.2,-0.5C320.2,-0.5 397.2,-0.5 397.2,-0.5 403.2,-0.5 409.2,-6.5 409.2,-12.5 409.2,-12.5 409.2,-34.5 409.2,-34.5 409.2,-40.5 403.2,-46.5 397.2,-46.5 397.2,-46.5 320.2,-46.5 320.2,-46.5 314.2,-46.5 308.2,-40.5 308.2,-34.5 308.2,-34.5 308.2,-12.5 308.2,-12.5 308.2,-6.5 314.2,-0.5 320.2,-0.5"/>
<text text-anchor="middle" x="318.7" y="-31.3" font-family="Times,serif" font-size="14.00" fill="white"> </text>
<polyline fill="none" stroke="white" points="308.2,-23.5 329.2,-23.5 "/>
<text text-anchor="middle" x="318.7" y="-8.3" font-family="Times,serif" font-size="14.00" fill="white"> </text>
<polyline fill="none" stroke="white" points="329.2,-0.5 329.2,-46.5 "/>
<text text-anchor="middle" x="358.7" y="-19.8" font-family="Times,serif" font-size="14.00" fill="white">ax&#45;mp</text>
<polyline fill="none" stroke="white" points="388.2,-0.5 388.2,-46.5 "/>
<text text-anchor="middle" x="398.7" y="-19.8" font-family="Times,serif" font-size="14.00" fill="white"> </text>
</g>
<!-- n_1&#45;&gt;e_1 -->
<g id="edge6" class="edge">
<title>n_1&#45;&gt;e_1:s_0</title>
<path fill="none" stroke="white" d="M272.3,-40.29C276.41,-39.33 293.76,-35.5 308.2,-35.5"/>
</g>
<!-- n_2 -->
<g id="node3" class="node">
<title>n_2</title>
<ellipse fill="white" stroke="white" cx="181.1" cy="-4.5" rx="1.8" ry="1.8"/>
</g>
<!-- n_2&#45;&gt;e_1 -->
<g id="edge7" class="edge">
<title>n_2&#45;&gt;e_1:s_1</title>
<path fill="none" stroke="white" d="M182.9,-4.58C190.79,-5.35 255.58,-11.5 308.2,-11.5"/>
</g>
<!-- n_3 -->
<g id="node4" class="node">
<title>n_3</title>
<ellipse fill="white" stroke="white" cx="447" cy="-23.5" rx="1.8" ry="1.8"/>
</g>
<!-- targets -->
<g id="node8" class="node">
<title>targets</title>
</g>
<!-- n_3&#45;&gt;targets -->
<g id="edge3" class="edge">
<title>n_3&#45;&gt;targets:p_0</title>
<path fill="none" stroke="white" stroke-dasharray="5,2" d="M448.91,-23.5C453.05,-23.5 470.49,-23.5 484.8,-23.5"/>
</g>
<!-- e_0&#45;&gt;n_1 -->
<g id="edge5" class="edge">
<title>e_0:t_0&#45;&gt;n_1</title>
<path fill="none" stroke="white" d="M232.6,-42.5C246.93,-42.5 264.36,-40.97 268.49,-40.59"/>
</g>
<!-- e_1&#45;&gt;n_3 -->
<g id="edge8" class="edge">
<title>e_1:t_0&#45;&gt;n_3</title>
<path fill="none" stroke="white" d="M409.2,-23.5C423.51,-23.5 440.95,-23.5 445.09,-23.5"/>
</g>
<!-- sources -->
<g id="node7" class="node">
<title>sources</title>
</g>
<!-- sources&#45;&gt;n_0 -->
<g id="edge1" class="edge">
<title>sources:p_0&#45;&gt;n_0</title>
<path fill="none" stroke="white" stroke-dasharray="5,2" d="M54,-35.5C68.44,-35.5 85.79,-39.33 89.9,-40.29"/>
</g>
<!-- sources&#45;&gt;n_2 -->
<g id="edge2" class="edge">
<title>sources:p_1&#45;&gt;n_2</title>
<path fill="none" stroke="white" stroke-dasharray="5,2" d="M54,-11.5C106.62,-11.5 171.41,-5.35 179.3,-4.58"/>
</g>
</g>
</svg>
