<?xml version="1.0" encoding="UTF-8" standalone="no"?>
<!DOCTYPE svg PUBLIC "-//W3C//DTD SVG 1.1//EN"
 "http://www.w3.org/Graphics/SVG/1.1/DTD/svg11.dtd">
<!-- Generated by graphviz version 2.43.0 (0)
 -->
<!-- Title: G Pages: 1 -->
<svg width="1502pt" height="198pt"
 viewBox="0.00 0.00 1501.60 198.00" xmlns="http://www.w3.org/2000/svg" xmlns:xlink="http://www.w3.org/1999/xlink">
<g id="graph0" class="graph" transform="scale(1 1) rotate(0) translate(4 194)">
<title>G</title>
<polygon fill="#4a4a4a" stroke="transparent" points="-4,4 -4,-194 1497.6,-194 1497.6,4 -4,4"/>
<!-- n_0 -->
<g id="node1" class="node">
<title>n_0</title>
<ellipse fill="white" stroke="white" cx="291.8" cy="-166.5" rx="1.8" ry="1.8"/>
<text text-anchor="middle" x="285" y="-153.5" font-family="Times,serif" font-size="14.00" fill="white">1</text>
</g>
<!-- e_0 -->
<g id="node14" class="node">
<title>e_0</title>
<path fill="none" stroke="white" d="M395.6,-153.5C395.6,-153.5 475.6,-153.5 475.6,-153.5 481.6,-153.5 487.6,-159.5 487.6,-165.5 487.6,-165.5 487.6,-177.5 487.6,-177.5 487.6,-183.5 481.6,-189.5 475.6,-189.5 475.6,-189.5 395.6,-189.5 395.6,-189.5 389.6,-189.5 383.6,-183.5 383.6,-177.5 383.6,-177.5 383.6,-165.5 383.6,-165.5 383.6,-159.5 389.6,-153.5 395.6,-153.5"/>
<text text-anchor="middle" x="394.1" y="-167.8" font-family="Times,serif" font-size="14.00" fill="white"> </text>
<polyline fill="none" stroke="white" points="404.6,-153.5 404.6,-189.5 "/>
<text text-anchor="middle" x="446.1" y="-167.8" font-family="Times,serif" font-size="14.00" fill="white">unit.drop</text>
</g>
<!-- n_0&#45;&gt;e_0 -->
<g id="edge4" class="edge">
<title>n_0&#45;&gt;e_0:s_0</title>
<path fill="none" stroke="white" d="M293.68,-166.59C300.53,-167.25 345.75,-171.5 382.6,-171.5"/>
</g>
<!-- n_1 -->
<g id="node2" class="node">
<title>n_1</title>
<ellipse fill="white" stroke="white" cx="291.8" cy="-129.5" rx="1.8" ry="1.8"/>
<text text-anchor="middle" x="145" y="-116.5" font-family="Times,serif" font-size="14.00" fill="white">val(buf(cap.own, u64, f32)) * val(ix(u64))</text>
</g>
<!-- e_1 -->
<g id="node15" class="node">
<title>e_1</title>
<path fill="none" stroke="white" d="M341.6,-88.5C341.6,-88.5 529.6,-88.5 529.6,-88.5 535.6,-88.5 541.6,-94.5 541.6,-100.5 541.6,-100.5 541.6,-122.5 541.6,-122.5 541.6,-128.5 535.6,-134.5 529.6,-134.5 529.6,-134.5 341.6,-134.5 341.6,-134.5 335.6,-134.5 329.6,-128.5 329.6,-122.5 329.6,-122.5 329.6,-100.5 329.6,-100.5 329.6,-94.5 335.6,-88.5 341.6,-88.5"/>
<text text-anchor="middle" x="340.1" y="-107.8" font-family="Times,serif" font-size="14.00" fill="white"> </text>
<polyline fill="none" stroke="white" points="350.6,-88.5 350.6,-134.5 "/>
<text text-anchor="middle" x="435.6" y="-107.8" font-family="Times,serif" font-size="14.00" fill="white">f32.pool.payload.elim</text>
<polyline fill="none" stroke="white" points="520.6,-88.5 520.6,-134.5 "/>
<text text-anchor="middle" x="531.1" y="-119.3" font-family="Times,serif" font-size="14.00" fill="white"> </text>
<polyline fill="none" stroke="white" points="520.6,-111.5 541.6,-111.5 "/>
<text text-anchor="middle" x="531.1" y="-96.3" font-family="Times,serif" font-size="14.00" fill="white"> </text>
</g>
<!-- n_1&#45;&gt;e_1 -->
<g id="edge5" class="edge">
<title>n_1&#45;&gt;e_1:s_0</title>
<path fill="none" stroke="white" d="M293.63,-128.73C297.44,-125.28 313.67,-111.5 329.6,-111.5"/>
</g>
<!-- n_2 -->
<g id="node3" class="node">
<title>n_2</title>
<ellipse fill="white" stroke="white" cx="579.4" cy="-126.5" rx="1.8" ry="1.8"/>
<text text-anchor="middle" x="677.7" y="-113.5" font-family="Times,serif" font-size="14.00" fill="white">val(buf(cap.own, u64, f32))</text>
</g>
<!-- e_5 -->
<g id="node19" class="node">
<title>e_5</title>
<path fill="none" stroke="white" d="M813.8,-89.5C813.8,-89.5 932.8,-89.5 932.8,-89.5 938.8,-89.5 944.8,-95.5 944.8,-101.5 944.8,-101.5 944.8,-123.5 944.8,-123.5 944.8,-129.5 938.8,-135.5 932.8,-135.5 932.8,-135.5 813.8,-135.5 813.8,-135.5 807.8,-135.5 801.8,-129.5 801.8,-123.5 801.8,-123.5 801.8,-101.5 801.8,-101.5 801.8,-95.5 807.8,-89.5 813.8,-89.5"/>
<text text-anchor="middle" x="812.3" y="-120.3" font-family="Times,serif" font-size="14.00" fill="white"> </text>
<polyline fill="none" stroke="white" points="801.8,-112.5 822.8,-112.5 "/>
<text text-anchor="middle" x="812.3" y="-97.3" font-family="Times,serif" font-size="14.00" fill="white"> </text>
<polyline fill="none" stroke="white" points="822.8,-89.5 822.8,-135.5 "/>
<text text-anchor="middle" x="873.3" y="-108.8" font-family="Times,serif" font-size="14.00" fill="white">f32.buf.load</text>
<polyline fill="none" stroke="white" points="923.8,-89.5 923.8,-135.5 "/>
<text text-anchor="middle" x="934.3" y="-120.3" font-family="Times,serif" font-size="14.00" fill="white"> </text>
<polyline fill="none" stroke="white" points="923.8,-112.5 944.8,-112.5 "/>
<text text-anchor="middle" x="934.3" y="-97.3" font-family="Times,serif" font-size="14.00" fill="white"> </text>
</g>
<!-- n_2&#45;&gt;e_5 -->
<g id="edge15" class="edge">
<title>n_2&#45;&gt;e_5:s_0</title>
<path fill="none" stroke="white" d="M581.81,-126.48C595.68,-126.26 709.55,-124.5 801.8,-124.5"/>
</g>
<!-- n_3 -->
<g id="node4" class="node">
<title>n_3</title>
<ellipse fill="white" stroke="white" cx="579.4" cy="-92.5" rx="1.8" ry="1.8"/>
<text text-anchor="middle" x="540.2" y="-79.5" font-family="Times,serif" font-size="14.00" fill="white">val(ix(u64))</text>
</g>
<!-- e_2 -->
<g id="node16" class="node">
<title>e_2</title>
<path fill="none" stroke="white" d="M629.2,-55.5C629.2,-55.5 714.2,-55.5 714.2,-55.5 720.2,-55.5 726.2,-61.5 726.2,-67.5 726.2,-67.5 726.2,-89.5 726.2,-89.5 726.2,-95.5 720.2,-101.5 714.2,-101.5 714.2,-101.5 629.2,-101.5 629.2,-101.5 623.2,-101.5 617.2,-95.5 617.2,-89.5 617.2,-89.5 617.2,-67.5 617.2,-67.5 617.2,-61.5 623.2,-55.5 629.2,-55.5"/>
<text text-anchor="middle" x="627.7" y="-74.8" font-family="Times,serif" font-size="14.00" fill="white"> </text>
<polyline fill="none" stroke="white" points="638.2,-55.5 638.2,-101.5 "/>
<text text-anchor="middle" x="671.7" y="-74.8" font-family="Times,serif" font-size="14.00" fill="white">ix.copy</text>
<polyline fill="none" stroke="white" points="705.2,-55.5 705.2,-101.5 "/>
<text text-anchor="middle" x="715.7" y="-86.3" font-family="Times,serif" font-size="14.00" fill="white"> </text>
<polyline fill="none" stroke="white" points="705.2,-78.5 726.2,-78.5 "/>
<text text-anchor="middle" x="715.7" y="-63.3" font-family="Times,serif" font-size="14.00" fill="white"> </text>
</g>
<!-- n_3&#45;&gt;e_2 -->
<g id="edge8" class="edge">
<title>n_3&#45;&gt;e_2:s_0</title>
<path fill="none" stroke="white" d="M581.26,-91.9C585.2,-89.22 601.89,-78.5 617.2,-78.5"/>
</g>
<!-- n_4 -->
<g id="node5" class="node">
<title>n_4</title>
<ellipse fill="white" stroke="white" cx="764" cy="-95.5" rx="1.8" ry="1.8"/>
<text text-anchor="middle" x="806.8" y="-82.5" font-family="Times,serif" font-size="14.00" fill="white">val(ix(u64))</text>
</g>
<!-- n_4&#45;&gt;e_5 -->
<g id="edge16" class="edge">
<title>n_4&#45;&gt;e_5:s_1</title>
<path fill="none" stroke="white" d="M765.9,-95.71C770.01,-96.67 787.36,-100.5 801.8,-100.5"/>
</g>
<!-- n_5 -->
<g id="node6" class="node">
<title>n_5</title>
<ellipse fill="white" stroke="white" cx="764" cy="-62.5" rx="1.8" ry="1.8"/>
<text text-anchor="middle" x="806.8" y="-68.1" font-family="Times,serif" font-size="14.00" fill="white">val(ix(u64))</text>
</g>
<!-- e_4 -->
<g id="node18" class="node">
<title>e_4</title>
<path fill="none" stroke="white" d="M834.8,-24.5C834.8,-24.5 911.8,-24.5 911.8,-24.5 917.8,-24.5 923.8,-30.5 923.8,-36.5 923.8,-36.5 923.8,-58.5 923.8,-58.5 923.8,-64.5 917.8,-70.5 911.8,-70.5 911.8,-70.5 834.8,-70.5 834.8,-70.5 828.8,-70.5 822.8,-64.5 822.8,-58.5 822.8,-58.5 822.8,-36.5 822.8,-36.5 822.8,-30.5 828.8,-24.5 834.8,-24.5"/>
<text text-anchor="middle" x="833.3" y="-55.3" font-family="Times,serif" font-size="14.00" fill="white"> </text>
<polyline fill="none" stroke="white" points="822.8,-47.5 843.8,-47.5 "/>
<text text-anchor="middle" x="833.3" y="-32.3" font-family="Times,serif" font-size="14.00" fill="white"> </text>
<polyline fill="none" stroke="white" points="843.8,-24.5 843.8,-70.5 "/>
<text text-anchor="middle" x="873.3" y="-43.8" font-family="Times,serif" font-size="14.00" fill="white">ix.sub</text>
<polyline fill="none" stroke="white" points="902.8,-24.5 902.8,-70.5 "/>
<text text-anchor="middle" x="913.3" y="-43.8" font-family="Times,serif" font-size="14.00" fill="white"> </text>
</g>
<!-- n_5&#45;&gt;e_4 -->
<g id="edge12" class="edge">
<title>n_5&#45;&gt;e_4:s_0</title>
<path fill="none" stroke="white" d="M766.39,-62.37C772.71,-61.8 799.37,-59.5 821.3,-59.5"/>
</g>
<!-- n_6 -->
<g id="node7" class="node">
<title>n_6</title>
<ellipse fill="white" stroke="white" cx="764" cy="-24.5" rx="1.8" ry="1.8"/>
<text text-anchor="middle" x="795.3" y="-11.5" font-family="Times,serif" font-size="14.00" fill="white">val(u64)</text>
</g>
<!-- n_6&#45;&gt;e_4 -->
<g id="edge13" class="edge">
<title>n_6&#45;&gt;e_4:s_1</title>
<path fill="none" stroke="white" d="M765.78,-24.77C770.73,-26.47 798.19,-35.5 821.3,-35.5"/>
</g>
<!-- n_7 -->
<g id="node8" class="node">
<title>n_7</title>
<ellipse fill="white" stroke="white" cx="982.6" cy="-52.5" rx="1.8" ry="1.8"/>
<text text-anchor="middle" x="1025.4" y="-39.5" font-family="Times,serif" font-size="14.00" fill="white">val(ix(u64))</text>
</g>
<!-- e_6 -->
<g id="node20" class="node">
<title>e_6</title>
<path fill="none" stroke="white" d="M1032.4,-89.5C1032.4,-89.5 1151.4,-89.5 1151.4,-89.5 1157.4,-89.5 1163.4,-95.5 1163.4,-101.5 1163.4,-101.5 1163.4,-123.5 1163.4,-123.5 1163.4,-129.5 1157.4,-135.5 1151.4,-135.5 1151.4,-135.5 1032.4,-135.5 1032.4,-135.5 1026.4,-135.5 1020.4,-129.5 1020.4,-123.5 1020.4,-123.5 1020.4,-101.5 1020.4,-101.5 1020.4,-95.5 1026.4,-89.5 1032.4,-89.5"/>
<text text-anchor="middle" x="1030.9" y="-120.3" font-family="Times,serif" font-size="14.00" fill="white"> </text>
<polyline fill="none" stroke="white" points="1020.4,-112.5 1041.4,-112.5 "/>
<text text-anchor="middle" x="1030.9" y="-97.3" font-family="Times,serif" font-size="14.00" fill="white"> </text>
<polyline fill="none" stroke="white" points="1041.4,-89.5 1041.4,-135.5 "/>
<text text-anchor="middle" x="1091.9" y="-108.8" font-family="Times,serif" font-size="14.00" fill="white">f32.buf.load</text>
<polyline fill="none" stroke="white" points="1142.4,-89.5 1142.4,-135.5 "/>
<text text-anchor="middle" x="1152.9" y="-120.3" font-family="Times,serif" font-size="14.00" fill="white"> </text>
<polyline fill="none" stroke="white" points="1142.4,-112.5 1163.4,-112.5 "/>
<text text-anchor="middle" x="1152.9" y="-97.3" font-family="Times,serif" font-size="14.00" fill="white"> </text>
</g>
<!-- n_7&#45;&gt;e_6 -->
<g id="edge20" class="edge">
<title>n_7&#45;&gt;e_6:s_1</title>
<path fill="none" stroke="white" d="M984.42,-53.12C990.7,-57.9 1030.9,-88.45 1030.9,-88.5"/>
</g>
<!-- n_8 -->
<g id="node9" class="node">
<title>n_8</title>
<ellipse fill="white" stroke="white" cx="982.6" cy="-124.5" rx="1.8" ry="1.8"/>
<text text-anchor="middle" x="884.3" y="-130.1" font-family="Times,serif" font-size="14.00" fill="white">val(buf(cap.own, u64, f32))</text>
</g>
<!-- n_8&#45;&gt;e_6 -->
<g id="edge19" class="edge">
<title>n_8&#45;&gt;e_6:s_0</title>
<path fill="none" stroke="white" d="M984.51,-124.5C988.65,-124.5 1006.09,-124.5 1020.4,-124.5"/>
</g>
<!-- n_9 -->
<g id="node10" class="node">
<title>n_9</title>
<ellipse fill="white" stroke="white" cx="1091.9" cy="-69.5" rx="1.8" ry="1.8"/>
<text text-anchor="middle" x="1062.6" y="-56.5" font-family="Times,serif" font-size="14.00" fill="white">val(f32)</text>
</g>
<!-- e_8 -->
<g id="node22" class="node">
<title>e_8</title>
<path fill="none" stroke="white" d="M1257,-38.5C1257,-38.5 1346,-38.5 1346,-38.5 1352,-38.5 1358,-44.5 1358,-50.5 1358,-50.5 1358,-72.5 1358,-72.5 1358,-78.5 1352,-84.5 1346,-84.5 1346,-84.5 1257,-84.5 1257,-84.5 1251,-84.5 1245,-78.5 1245,-72.5 1245,-72.5 1245,-50.5 1245,-50.5 1245,-44.5 1251,-38.5 1257,-38.5"/>
<text text-anchor="middle" x="1255.5" y="-69.3" font-family="Times,serif" font-size="14.00" fill="white"> </text>
<polyline fill="none" stroke="white" points="1245,-61.5 1266,-61.5 "/>
<text text-anchor="middle" x="1255.5" y="-46.3" font-family="Times,serif" font-size="14.00" fill="white"> </text>
<polyline fill="none" stroke="white" points="1266,-38.5 1266,-84.5 "/>
<text text-anchor="middle" x="1301.5" y="-57.8" font-family="Times,serif" font-size="14.00" fill="white">f32.add</text>
<polyline fill="none" stroke="white" points="1337,-38.5 1337,-84.5 "/>
<text text-anchor="middle" x="1347.5" y="-57.8" font-family="Times,serif" font-size="14.00" fill="white"> </text>
</g>
<!-- n_9&#45;&gt;e_8 -->
<g id="edge24" class="edge">
<title>n_9&#45;&gt;e_8:s_0</title>
<path fill="none" stroke="white" d="M1093.86,-69.54C1103.29,-69.98 1180.73,-73.5 1243.5,-73.5"/>
</g>
<!-- n_10 -->
<g id="node11" class="node">
<title>n_10</title>
<ellipse fill="white" stroke="white" cx="1201.2" cy="-124.5" rx="1.8" ry="1.8"/>
<text text-anchor="middle" x="1102.9" y="-130.1" font-family="Times,serif" font-size="14.00" fill="white">val(buf(cap.own, u64, f32))</text>
</g>
<!-- e_7 -->
<g id="node21" class="node">
<title>e_7</title>
<path fill="none" stroke="white" d="M1251,-106.5C1251,-106.5 1352,-106.5 1352,-106.5 1358,-106.5 1364,-112.5 1364,-118.5 1364,-118.5 1364,-130.5 1364,-130.5 1364,-136.5 1358,-142.5 1352,-142.5 1352,-142.5 1251,-142.5 1251,-142.5 1245,-142.5 1239,-136.5 1239,-130.5 1239,-130.5 1239,-118.5 1239,-118.5 1239,-112.5 1245,-106.5 1251,-106.5"/>
<text text-anchor="middle" x="1249.5" y="-120.8" font-family="Times,serif" font-size="14.00" fill="white"> </text>
<polyline fill="none" stroke="white" points="1260,-106.5 1260,-142.5 "/>
<text text-anchor="middle" x="1312" y="-120.8" font-family="Times,serif" font-size="14.00" fill="white">f32.buf.drop</text>
</g>
<!-- n_10&#45;&gt;e_7 -->
<g id="edge23" class="edge">
<title>n_10&#45;&gt;e_7:s_0</title>
<path fill="none" stroke="white" d="M1203.11,-124.5C1207.25,-124.5 1224.69,-124.5 1239,-124.5"/>
</g>
<!-- n_11 -->
<g id="node12" class="node">
<title>n_11</title>
<ellipse fill="white" stroke="white" cx="1201.2" cy="-100.5" rx="1.8" ry="1.8"/>
<text text-anchor="middle" x="1230.5" y="-93.5" font-family="Times,serif" font-size="14.00" fill="white">val(f32)</text>
</g>
<!-- n_11&#45;&gt;e_8 -->
<g id="edge25" class="edge">
<title>n_11&#45;&gt;e_8:s_1</title>
<path fill="none" stroke="white" d="M1202.52,-99.24C1204.62,-91.39 1217.07,-49.5 1243.5,-49.5"/>
</g>
<!-- n_12 -->
<g id="node13" class="node">
<title>n_12</title>
<ellipse fill="white" stroke="white" cx="1401.8" cy="-61.5" rx="1.8" ry="1.8"/>
<text text-anchor="middle" x="1376.1" y="-67.1" font-family="Times,serif" font-size="14.00" fill="white">val(f32)</text>
</g>
<!-- targets -->
<g id="node24" class="node">
<title>targets</title>
</g>
<!-- n_12&#45;&gt;targets -->
<g id="edge3" class="edge">
<title>n_12&#45;&gt;targets:p_0</title>
<path fill="none" stroke="white" stroke-dasharray="5,2" d="M1403.71,-61.5C1407.85,-61.5 1425.29,-61.5 1439.6,-61.5"/>
</g>
<!-- e_1&#45;&gt;n_2 -->
<g id="edge6" class="edge">
<title>e_1:t_0&#45;&gt;n_2</title>
<path fill="none" stroke="white" d="M541.6,-123.5C555.96,-123.5 573.36,-125.8 577.49,-126.37"/>
</g>
<!-- e_1&#45;&gt;n_3 -->
<g id="edge7" class="edge">
<title>e_1:t_1&#45;&gt;n_3</title>
<path fill="none" stroke="white" d="M541.6,-99.5C556.17,-99.5 573.42,-94.14 577.5,-92.8"/>
</g>
<!-- e_2&#45;&gt;n_4 -->
<g id="edge9" class="edge">
<title>e_2:t_0&#45;&gt;n_4</title>
<path fill="none" stroke="white" d="M726.2,-90.5C740.64,-90.5 757.99,-94.33 762.1,-95.29"/>
</g>
<!-- e_2&#45;&gt;n_5 -->
<g id="edge10" class="edge">
<title>e_2:t_1&#45;&gt;n_5</title>
<path fill="none" stroke="white" d="M726.2,-66.5C740.6,-66.5 757.97,-63.44 762.09,-62.67"/>
</g>
<!-- e_3 -->
<g id="node17" class="node">
<title>e_3</title>
<path fill="none" stroke="white" d="M636.2,-0.5C636.2,-0.5 707.2,-0.5 707.2,-0.5 713.2,-0.5 719.2,-6.5 719.2,-12.5 719.2,-12.5 719.2,-24.5 719.2,-24.5 719.2,-30.5 713.2,-36.5 707.2,-36.5 707.2,-36.5 636.2,-36.5 636.2,-36.5 630.2,-36.5 624.2,-30.5 624.2,-24.5 624.2,-24.5 624.2,-12.5 624.2,-12.5 624.2,-6.5 630.2,-0.5 636.2,-0.5"/>
<text text-anchor="middle" x="661.2" y="-14.8" font-family="Times,serif" font-size="14.00" fill="white">u64.one</text>
<polyline fill="none" stroke="white" points="698.2,-0.5 698.2,-36.5 "/>
<text text-anchor="middle" x="708.7" y="-14.8" font-family="Times,serif" font-size="14.00" fill="white"> </text>
</g>
<!-- e_3&#45;&gt;n_6 -->
<g id="edge11" class="edge">
<title>e_3:t_0&#45;&gt;n_6</title>
<path fill="none" stroke="white" d="M720.7,-18.5C737.31,-18.5 757.24,-23.09 761.96,-24.24"/>
</g>
<!-- e_4&#45;&gt;n_7 -->
<g id="edge14" class="edge">
<title>e_4:t_0&#45;&gt;n_7</title>
<path fill="none" stroke="white" d="M925.3,-47.5C947.28,-47.5 973.9,-51.33 980.21,-52.29"/>
</g>
<!-- e_5&#45;&gt;n_8 -->
<g id="edge17" class="edge">
<title>e_5:t_0&#45;&gt;n_8</title>
<path fill="none" stroke="white" d="M944.8,-124.5C959.11,-124.5 976.55,-124.5 980.69,-124.5"/>
</g>
<!-- e_5&#45;&gt;n_9 -->
<g id="edge18" class="edge">
<title>e_5:t_1&#45;&gt;n_9</title>
<path fill="none" stroke="white" d="M944.8,-100.5C979.56,-100.5 986.38,-87.63 1020.4,-80.5 1048.53,-74.6 1083.57,-70.36 1089.9,-69.62"/>
</g>
<!-- e_6&#45;&gt;n_10 -->
<g id="edge21" class="edge">
<title>e_6:t_0&#45;&gt;n_10</title>
<path fill="none" stroke="white" d="M1163.4,-124.5C1177.71,-124.5 1195.15,-124.5 1199.29,-124.5"/>
</g>
<!-- e_6&#45;&gt;n_11 -->
<g id="edge22" class="edge">
<title>e_6:t_1&#45;&gt;n_11</title>
<path fill="none" stroke="white" d="M1163.4,-100.5C1177.71,-100.5 1195.15,-100.5 1199.29,-100.5"/>
</g>
<!-- e_8&#45;&gt;n_12 -->
<g id="edge26" class="edge">
<title>e_8:t_0&#45;&gt;n_12</title>
<path fill="none" stroke="white" d="M1359.5,-61.5C1375.56,-61.5 1395.14,-61.5 1399.78,-61.5"/>
</g>
<!-- sources -->
<g id="node23" class="node">
<title>sources</title>
</g>
<!-- sources&#45;&gt;n_0 -->
<g id="edge1" class="edge">
<title>sources:p_0&#45;&gt;n_0</title>
<path fill="none" stroke="white" stroke-dasharray="5,2" d="M254,-162.5C268.4,-162.5 285.77,-165.56 289.89,-166.33"/>
</g>
<!-- sources&#45;&gt;n_1 -->
<g id="edge2" class="edge">
<title>sources:p_1&#45;&gt;n_1</title>
<path fill="none" stroke="white" stroke-dasharray="5,2" d="M254,-138.5C268.73,-138.5 285.86,-131.61 289.91,-129.89"/>
</g>
</g>
</svg>
