<?xml version="1.0" encoding="UTF-8" standalone="no"?>
<!DOCTYPE svg PUBLIC "-//W3C//DTD SVG 1.1//EN"
 "http://www.w3.org/Graphics/SVG/1.1/DTD/svg11.dtd">
<!-- Generated by graphviz version 2.43.0 (0)
 -->
<!-- Title: G Pages: 1 -->
<svg width="1405pt" height="198pt"
 viewBox="0.00 0.00 1404.60 198.00" xmlns="http://www.w3.org/2000/svg" xmlns:xlink="http://www.w3.org/1999/xlink">
<g id="graph0" class="graph" transform="scale(1 1) rotate(0) translate(4 194)">
<title>G</title>
<polygon fill="#4a4a4a" stroke="transparent" points="-4,4 -4,-194 1400.6,-194 1400.6,4 -4,4"/>
<!-- n_0 -->
<g id="node1" class="node">
<title>n_0</title>
<ellipse fill="white" stroke="white" cx="194.8" cy="-123.5" rx="1.8" ry="1.8"/>
<text text-anchor="middle" x="96.5" y="-129.1" font-family="Times,serif" font-size="14.00" fill="white">val(buf(cap.own, u64, f32))</text>
</g>
<!-- e_1 -->
<g id="node15" class="node">
<title>e_1</title>
<path fill="none" stroke="white" d="M244.6,-88.5C244.6,-88.5 432.6,-88.5 432.6,-88.5 438.6,-88.5 444.6,-94.5 444.6,-100.5 444.6,-100.5 444.6,-122.5 444.6,-122.5 444.6,-128.5 438.6,-134.5 432.6,-134.5 432.6,-134.5 244.6,-134.5 244.6,-134.5 238.6,-134.5 232.6,-128.5 232.6,-122.5 232.6,-122.5 232.6,-100.5 232.6,-100.5 232.6,-94.5 238.6,-88.5 244.6,-88.5"/>
<text text-anchor="middle" x="243.1" y="-119.3" font-family="Times,serif" font-size="14.00" fill="white"> </text>
<polyline fill="none" stroke="white" points="232.6,-111.5 253.6,-111.5 "/>
<text text-anchor="middle" x="243.1" y="-96.3" font-family="Times,serif" font-size="14.00" fill="white"> </text>
<polyline fill="none" stroke="white" points="253.6,-88.5 253.6,-134.5 "/>
<text text-anchor="middle" x="338.6" y="-107.8" font-family="Times,serif" font-size="14.00" fill="white">f32.pool.payload.elim</text>
<polyline fill="none" stroke="white" points="423.6,-88.5 423.6,-134.5 "/>
<text text-anchor="middle" x="434.1" y="-119.3" font-family="Times,serif" font-size="14.00" fill="white"> </text>
<polyline fill="none" stroke="white" points="423.6,-111.5 444.6,-111.5 "/>
<text text-anchor="middle" x="434.1" y="-96.3" font-family="Times,serif" font-size="14.00" fill="white"> </text>
</g>
<!-- n_0&#45;&gt;e_1 -->
<g id="edge4" class="edge">
<title>n_0&#45;&gt;e_1:s_0</title>
<path fill="none" stroke="white" d="M196.71,-123.5C200.85,-123.5 218.29,-123.5 232.6,-123.5"/>
</g>
<!-- n_1 -->
<g id="node2" class="node">
<title>n_1</title>
<ellipse fill="white" stroke="white" cx="194.8" cy="-99.5" rx="1.8" ry="1.8"/>
<text text-anchor="middle" x="155.6" y="-86.5" font-family="Times,serif" font-size="14.00" fill="white">val(ix(u64))</text>
</g>
<!-- n_1&#45;&gt;e_1 -->
<g id="edge5" class="edge">
<title>n_1&#45;&gt;e_1:s_1</title>
<path fill="none" stroke="white" d="M196.71,-99.5C200.85,-99.5 218.29,-99.5 232.6,-99.5"/>
</g>
<!-- n_2 -->
<g id="node3" class="node">
<title>n_2</title>
<ellipse fill="white" stroke="white" cx="482.4" cy="-126.5" rx="1.8" ry="1.8"/>
<text text-anchor="middle" x="580.7" y="-113.5" font-family="Times,serif" font-size="14.00" fill="white">val(buf(cap.own, u64, f32))</text>
</g>
<!-- e_5 -->
<g id="node19" class="node">
<title>e_5</title>
<path fill="none" stroke="white" d="M716.8,-89.5C716.8,-89.5 835.8,-89.5 835.8,-89.5 841.8,-89.5 847.8,-95.5 847.8,-101.5 847.8,-101.5 847.8,-123.5 847.8,-123.5 847.8,-129.5 841.8,-135.5 835.8,-135.5 835.8,-135.5 716.8,-135.5 716.8,-135.5 710.8,-135.5 704.8,-129.5 704.8,-123.5 704.8,-123.5 704.8,-101.5 704.8,-101.5 704.8,-95.5 710.8,-89.5 716.8,-89.5"/>
<text text-anchor="middle" x="715.3" y="-120.3" font-family="Times,serif" font-size="14.00" fill="white"> </text>
<polyline fill="none" stroke="white" points="704.8,-112.5 725.8,-112.5 "/>
<text text-anchor="middle" x="715.3" y="-97.3" font-family="Times,serif" font-size="14.00" fill="white"> </text>
<polyline fill="none" stroke="white" points="725.8,-89.5 725.8,-135.5 "/>
<text text-anchor="middle" x="776.3" y="-108.8" font-family="Times,serif" font-size="14.00" fill="white">f32.buf.load</text>
<polyline fill="none" stroke="white" points="826.8,-89.5 826.8,-135.5 "/>
<text text-anchor="middle" x="837.3" y="-120.3" font-family="Times,serif" font-size="14.00" fill="white"> </text>
<polyline fill="none" stroke="white" points="826.8,-112.5 847.8,-112.5 "/>
<text text-anchor="middle" x="837.3" y="-97.3" font-family="Times,serif" font-size="14.00" fill="white"> </text>
</g>
<!-- n_2&#45;&gt;e_5 -->
<g id="edge15" class="edge">
<title>n_2&#45;&gt;e_5:s_0</title>
<path fill="none" stroke="white" d="M484.81,-126.48C498.68,-126.26 612.55,-124.5 704.8,-124.5"/>
</g>
<!-- n_3 -->
<g id="node4" class="node">
<title>n_3</title>
<ellipse fill="white" stroke="white" cx="482.4" cy="-85.5" rx="1.8" ry="1.8"/>
<text text-anchor="middle" x="439.6" y="-72.5" font-family="Times,serif" font-size="14.00" fill="white">val(ix(u64))</text>
</g>
<!-- e_2 -->
<g id="node16" class="node">
<title>e_2</title>
<path fill="none" stroke="white" d="M532.2,-55.5C532.2,-55.5 617.2,-55.5 617.2,-55.5 623.2,-55.5 629.2,-61.5 629.2,-67.5 629.2,-67.5 629.2,-89.5 629.2,-89.5 629.2,-95.5 623.2,-101.5 617.2,-101.5 617.2,-101.5 532.2,-101.5 532.2,-101.5 526.2,-101.5 520.2,-95.5 520.2,-89.5 520.2,-89.5 520.2,-67.5 520.2,-67.5 520.2,-61.5 526.2,-55.5 532.2,-55.5"/>
<text text-anchor="middle" x="530.7" y="-74.8" font-family="Times,serif" font-size="14.00" fill="white"> </text>
<polyline fill="none" stroke="white" points="541.2,-55.5 541.2,-101.5 "/>
<text text-anchor="middle" x="574.7" y="-74.8" font-family="Times,serif" font-size="14.00" fill="white">ix.copy</text>
<polyline fill="none" stroke="white" points="608.2,-55.5 608.2,-101.5 "/>
<text text-anchor="middle" x="618.7" y="-86.3" font-family="Times,serif" font-size="14.00" fill="white"> </text>
<polyline fill="none" stroke="white" points="608.2,-78.5 629.2,-78.5 "/>
<text text-anchor="middle" x="618.7" y="-63.3" font-family="Times,serif" font-size="14.00" fill="white"> </text>
</g>
<!-- n_3&#45;&gt;e_2 -->
<g id="edge8" class="edge">
<title>n_3&#45;&gt;e_2:s_0</title>
<path fill="none" stroke="white" d="M484.3,-85.2C488.38,-83.86 505.63,-78.5 520.2,-78.5"/>
</g>
<!-- n_4 -->
<g id="node5" class="node">
<title>n_4</title>
<ellipse fill="white" stroke="white" cx="667" cy="-95.5" rx="1.8" ry="1.8"/>
<text text-anchor="middle" x="709.8" y="-82.5" font-family="Times,serif" font-size="14.00" fill="white">val(ix(u64))</text>
</g>
<!-- n_4&#45;&gt;e_5 -->
<g id="edge16" class="edge">
<title>n_4&#45;&gt;e_5:s_1</title>
<path fill="none" stroke="white" d="M668.9,-95.71C673.01,-96.67 690.36,-100.5 704.8,-100.5"/>
</g>
<!-- n_5 -->
<g id="node6" class="node">
<title>n_5</title>
<ellipse fill="white" stroke="white" cx="667" cy="-62.5" rx="1.8" ry="1.8"/>
<text text-anchor="middle" x="709.8" y="-68.1" font-family="Times,serif" font-size="14.00" fill="white">val(ix(u64))</text>
</g>
<!-- e_4 -->
<g id="node18" class="node">
<title>e_4</title>
<path fill="none" stroke="white" d="M737.8,-24.5C737.8,-24.5 814.8,-24.5 814.8,-24.5 820.8,-24.5 826.8,-30.5 826.8,-36.5 826.8,-36.5 826.8,-58.5 826.8,-58.5 826.8,-64.5 820.8,-70.5 814.8,-70.5 814.8,-70.5 737.8,-70.5 737.8,-70.5 731.8,-70.5 725.8,-64.5 725.8,-58.5 725.8,-58.5 725.8,-36.5 725.8,-36.5 725.8,-30.5 731.8,-24.5 737.8,-24.5"/>
<text text-anchor="middle" x="736.3" y="-55.3" font-family="Times,serif" font-size="14.00" fill="white"> </text>
<polyline fill="none" stroke="white" points="725.8,-47.5 746.8,-47.5 "/>
<text text-anchor="middle" x="736.3" y="-32.3" font-family="Times,serif" font-size="14.00" fill="white"> </text>
<polyline fill="none" stroke="white" points="746.8,-24.5 746.8,-70.5 "/>
<text text-anchor="middle" x="776.3" y="-43.8" font-family="Times,serif" font-size="14.00" fill="white">ix.sub</text>
<polyline fill="none" stroke="white" points="805.8,-24.5 805.8,-70.5 "/>
<text text-anchor="middle" x="816.3" y="-43.8" font-family="Times,serif" font-size="14.00" fill="white"> </text>
</g>
<!-- n_5&#45;&gt;e_4 -->
<g id="edge12" class="edge">
<title>n_5&#45;&gt;e_4:s_0</title>
<path fill="none" stroke="white" d="M669.39,-62.37C675.71,-61.8 702.37,-59.5 724.3,-59.5"/>
</g>
<!-- n_6 -->
<g id="node7" class="node">
<title>n_6</title>
<ellipse fill="white" stroke="white" cx="667" cy="-24.5" rx="1.8" ry="1.8"/>
<text text-anchor="middle" x="698.3" y="-11.5" font-family="Times,serif" font-size="14.00" fill="white">val(u64)</text>
</g>
<!-- n_6&#45;&gt;e_4 -->
<g id="edge13" class="edge">
<title>n_6&#45;&gt;e_4:s_1</title>
<path fill="none" stroke="white" d="M668.78,-24.77C673.73,-26.47 701.19,-35.5 724.3,-35.5"/>
</g>
<!-- n_7 -->
<g id="node8" class="node">
<title>n_7</title>
<ellipse fill="white" stroke="white" cx="885.6" cy="-52.5" rx="1.8" ry="1.8"/>
<text text-anchor="middle" x="928.4" y="-39.5" font-family="Times,serif" font-size="14.00" fill="white">val(ix(u64))</text>
</g>
<!-- e_6 -->
<g id="node20" class="node">
<title>e_6</title>
<path fill="none" stroke="white" d="M935.4,-89.5C935.4,-89.5 1054.4,-89.5 1054.4,-89.5 1060.4,-89.5 1066.4,-95.5 1066.4,-101.5 1066.4,-101.5 1066.4,-123.5 1066.4,-123.5 1066.4,-129.5 1060.4,-135.5 1054.4,-135.5 1054.4,-135.5 935.4,-135.5 935.4,-135.5 929.4,-135.5 923.4,-129.5 923.4,-123.5 923.4,-123.5 923.4,-101.5 923.4,-101.5 923.4,-95.5 929.4,-89.5 935.4,-89.5"/>
<text text-anchor="middle" x="933.9" y="-120.3" font-family="Times,serif" font-size="14.00" fill="white"> </text>
<polyline fill="none" stroke="white" points="923.4,-112.5 944.4,-112.5 "/>
<text text-anchor="middle" x="933.9" y="-97.3" font-family="Times,serif" font-size="14.00" fill="white"> </text>
<polyline fill="none" stroke="white" points="944.4,-89.5 944.4,-135.5 "/>
<text text-anchor="middle" x="994.9" y="-108.8" font-family="Times,serif" font-size="14.00" fill="white">f32.buf.load</text>
<polyline fill="none" stroke="white" points="1045.4,-89.5 1045.4,-135.5 "/>
<text text-anchor="middle" x="1055.9" y="-120.3" font-family="Times,serif" font-size="14.00" fill="white"> </text>
<polyline fill="none" stroke="white" points="1045.4,-112.5 1066.4,-112.5 "/>
<text text-anchor="middle" x="1055.9" y="-97.3" font-family="Times,serif" font-size="14.00" fill="white"> </text>
</g>
<!-- n_7&#45;&gt;e_6 -->
<g id="edge20" class="edge">
<title>n_7&#45;&gt;e_6:s_1</title>
<path fill="none" stroke="white" d="M887.42,-53.12C893.7,-57.9 933.9,-88.45 933.9,-88.5"/>
</g>
<!-- n_8 -->
<g id="node9" class="node">
<title>n_8</title>
<ellipse fill="white" stroke="white" cx="885.6" cy="-124.5" rx="1.8" ry="1.8"/>
<text text-anchor="middle" x="787.3" y="-130.1" font-family="Times,serif" font-size="14.00" fill="white">val(buf(cap.own, u64, f32))</text>
</g>
<!-- n_8&#45;&gt;e_6 -->
<g id="edge19" class="edge">
<title>n_8&#45;&gt;e_6:s_0</title>
<path fill="none" stroke="white" d="M887.51,-124.5C891.65,-124.5 909.09,-124.5 923.4,-124.5"/>
</g>
<!-- n_9 -->
<g id="node10" class="node">
<title>n_9</title>
<ellipse fill="white" stroke="white" cx="994.9" cy="-69.5" rx="1.8" ry="1.8"/>
<text text-anchor="middle" x="965.6" y="-56.5" font-family="Times,serif" font-size="14.00" fill="white">val(f32)</text>
</g>
<!-- e_8 -->
<g id="node22" class="node">
<title>e_8</title>
<path fill="none" stroke="white" d="M1160,-38.5C1160,-38.5 1249,-38.5 1249,-38.5 1255,-38.5 1261,-44.5 1261,-50.5 1261,-50.5 1261,-72.5 1261,-72.5 1261,-78.5 1255,-84.5 1249,-84.5 1249,-84.5 1160,-84.5 1160,-84.5 1154,-84.5 1148,-78.5 1148,-72.5 1148,-72.5 1148,-50.5 1148,-50.5 1148,-44.5 1154,-38.5 1160,-38.5"/>
<text text-anchor="middle" x="1158.5" y="-69.3" font-family="Times,serif" font-size="14.00" fill="white"> </text>
<polyline fill="none" stroke="white" points="1148,-61.5 1169,-61.5 "/>
<text text-anchor="middle" x="1158.5" y="-46.3" font-family="Times,serif" font-size="14.00" fill="white"> </text>
<polyline fill="none" stroke="white" points="1169,-38.5 1169,-84.5 "/>
<text text-anchor="middle" x="1204.5" y="-57.8" font-family="Times,serif" font-size="14.00" fill="white">f32.add</text>
<polyline fill="none" stroke="white" points="1240,-38.5 1240,-84.5 "/>
<text text-anchor="middle" x="1250.5" y="-57.8" font-family="Times,serif" font-size="14.00" fill="white"> </text>
</g>
<!-- n_9&#45;&gt;e_8 -->
<g id="edge24" class="edge">
<title>n_9&#45;&gt;e_8:s_0</title>
<path fill="none" stroke="white" d="M996.86,-69.54C1006.29,-69.98 1083.73,-73.5 1146.5,-73.5"/>
</g>
<!-- n_10 -->
<g id="node11" class="node">
<title>n_10</title>
<ellipse fill="white" stroke="white" cx="1104.2" cy="-124.5" rx="1.8" ry="1.8"/>
<text text-anchor="middle" x="1005.9" y="-130.1" font-family="Times,serif" font-size="14.00" fill="white">val(buf(cap.own, u64, f32))</text>
</g>
<!-- e_7 -->
<g id="node21" class="node">
<title>e_7</title>
<path fill="none" stroke="white" d="M1154,-106.5C1154,-106.5 1255,-106.5 1255,-106.5 1261,-106.5 1267,-112.5 1267,-118.5 1267,-118.5 1267,-130.5 1267,-130.5 1267,-136.5 1261,-142.5 1255,-142.5 1255,-142.5 1154,-142.5 1154,-142.5 1148,-142.5 1142,-136.5 1142,-130.5 1142,-130.5 1142,-118.5 1142,-118.5 1142,-112.5 1148,-106.5 1154,-106.5"/>
<text text-anchor="middle" x="1152.5" y="-120.8" font-family="Times,serif" font-size="14.00" fill="white"> </text>
<polyline fill="none" stroke="white" points="1163,-106.5 1163,-142.5 "/>
<text text-anchor="middle" x="1215" y="-120.8" font-family="Times,serif" font-size="14.00" fill="white">f32.buf.drop</text>
</g>
<!-- n_10&#45;&gt;e_7 -->
<g id="edge23" class="edge">
<title>n_10&#45;&gt;e_7:s_0</title>
<path fill="none" stroke="white" d="M1106.11,-124.5C1110.25,-124.5 1127.69,-124.5 1142,-124.5"/>
</g>
<!-- n_11 -->
<g id="node12" class="node">
<title>n_11</title>
<ellipse fill="white" stroke="white" cx="1104.2" cy="-100.5" rx="1.8" ry="1.8"/>
<text text-anchor="middle" x="1133.5" y="-93.5" font-family="Times,serif" font-size="14.00" fill="white">val(f32)</text>
</g>
<!-- n_11&#45;&gt;e_8 -->
<g id="edge25" class="edge">
<title>n_11&#45;&gt;e_8:s_1</title>
<path fill="none" stroke="white" d="M1105.52,-99.24C1107.62,-91.39 1120.07,-49.5 1146.5,-49.5"/>
</g>
<!-- n_12 -->
<g id="node13" class="node">
<title>n_12</title>
<ellipse fill="white" stroke="white" cx="1304.8" cy="-61.5" rx="1.8" ry="1.8"/>
<text text-anchor="middle" x="1279.1" y="-48.5" font-family="Times,serif" font-size="14.00" fill="white">val(f32)</text>
</g>
<!-- targets -->
<g id="node24" class="node">
<title>targets</title>
</g>
<!-- n_12&#45;&gt;targets -->
<g id="edge3" class="edge">
<title>n_12&#45;&gt;targets:p_0</title>
<path fill="none" stroke="white" stroke-dasharray="5,2" d="M1306.71,-61.5C1310.85,-61.5 1328.29,-61.5 1342.6,-61.5"/>
</g>
<!-- e_0 -->
<g id="node14" class="node">
<title>e_0</title>
<path fill="none" stroke="white" d="M86,-153.5C86,-153.5 145,-153.5 145,-153.5 151,-153.5 157,-159.5 157,-165.5 157,-165.5 157,-177.5 157,-177.5 157,-183.5 151,-189.5 145,-189.5 145,-189.5 86,-189.5 86,-189.5 80,-189.5 74,-183.5 74,-177.5 74,-177.5 74,-165.5 74,-165.5 74,-159.5 80,-153.5 86,-153.5"/>
<text text-anchor="middle" x="115.5" y="-167.8" font-family="Times,serif" font-size="14.00" fill="white">unit.drop</text>
</g>
<!-- e_1&#45;&gt;n_2 -->
<g id="edge6" class="edge">
<title>e_1:t_0&#45;&gt;n_2</title>
<path fill="none" stroke="white" d="M444.6,-123.5C458.96,-123.5 476.36,-125.8 480.49,-126.37"/>
</g>
<!-- e_1&#45;&gt;n_3 -->
<g id="edge7" class="edge">
<title>e_1:t_1&#45;&gt;n_3</title>
<path fill="none" stroke="white" d="M444.6,-99.5C459.91,-99.5 476.6,-88.78 480.54,-86.1"/>
</g>
<!-- e_2&#45;&gt;n_4 -->
<g id="edge9" class="edge">
<title>e_2:t_0&#45;&gt;n_4</title>
<path fill="none" stroke="white" d="M629.2,-90.5C643.64,-90.5 660.99,-94.33 665.1,-95.29"/>
</g>
<!-- e_2&#45;&gt;n_5 -->
<g id="edge10" class="edge">
<title>e_2:t_1&#45;&gt;n_5</title>
<path fill="none" stroke="white" d="M629.2,-66.5C643.6,-66.5 660.97,-63.44 665.09,-62.67"/>
</g>
<!-- e_3 -->
<g id="node17" class="node">
<title>e_3</title>
<path fill="none" stroke="white" d="M539.2,-0.5C539.2,-0.5 610.2,-0.5 610.2,-0.5 616.2,-0.5 622.2,-6.5 622.2,-12.5 622.2,-12.5 622.2,-24.5 622.2,-24.5 622.2,-30.5 616.2,-36.5 610.2,-36.5 610.2,-36.5 539.2,-36.5 539.2,-36.5 533.2,-36.5 527.2,-30.5 527.2,-24.5 527.2,-24.5 527.2,-12.5 527.2,-12.5 527.2,-6.5 533.2,-0.5 539.2,-0.5"/>
<text text-anchor="middle" x="564.2" y="-14.8" font-family="Times,serif" font-size="14.00" fill="white">u64.one</text>
<polyline fill="none" stroke="white" points="601.2,-0.5 601.2,-36.5 "/>
<text text-anchor="middle" x="611.7" y="-14.8" font-family="Times,serif" font-size="14.00" fill="white"> </text>
</g>
<!-- e_3&#45;&gt;n_6 -->
<g id="edge11" class="edge">
<title>e_3:t_0&#45;&gt;n_6</title>
<path fill="none" stroke="white" d="M623.7,-18.5C640.31,-18.5 660.24,-23.09 664.96,-24.24"/>
</g>
<!-- e_4&#45;&gt;n_7 -->
<g id="edge14" class="edge">
<title>e_4:t_0&#45;&gt;n_7</title>
<path fill="none" stroke="white" d="M828.3,-47.5C850.28,-47.5 876.9,-51.33 883.21,-52.29"/>
</g>
<!-- e_5&#45;&gt;n_8 -->
<g id="edge17" class="edge">
<title>e_5:t_0&#45;&gt;n_8</title>
<path fill="none" stroke="white" d="M847.8,-124.5C862.11,-124.5 879.55,-124.5 883.69,-124.5"/>
</g>
<!-- e_5&#45;&gt;n_9 -->
<g id="edge18" class="edge">
<title>e_5:t_1&#45;&gt;n_9</title>
<path fill="none" stroke="white" d="M847.8,-100.5C882.67,-100.5 889.26,-86.63 923.4,-79.5 951.47,-73.64 986.56,-70.19 992.9,-69.59"/>
</g>
<!-- e_6&#45;&gt;n_10 -->
<g id="edge21" class="edge">
<title>e_6:t_0&#45;&gt;n_10</title>
<path fill="none" stroke="white" d="M1066.4,-124.5C1080.71,-124.5 1098.15,-124.5 1102.29,-124.5"/>
</g>
<!-- e_6&#45;&gt;n_11 -->
<g id="edge22" class="edge">
<title>e_6:t_1&#45;&gt;n_11</title>
<path fill="none" stroke="white" d="M1066.4,-100.5C1080.71,-100.5 1098.15,-100.5 1102.29,-100.5"/>
</g>
<!-- e_8&#45;&gt;n_12 -->
<g id="edge26" class="edge">
<title>e_8:t_0&#45;&gt;n_12</title>
<path fill="none" stroke="white" d="M1262.5,-61.5C1278.56,-61.5 1298.14,-61.5 1302.78,-61.5"/>
</g>
<!-- sources -->
<g id="node23" class="node">
<title>sources</title>
</g>
<!-- sources&#45;&gt;n_0 -->
<g id="edge1" class="edge">
<title>sources:p_0&#45;&gt;n_0</title>
<path fill="none" stroke="white" stroke-dasharray="5,2" d="M143.5,-123.5C163.06,-123.5 186.9,-123.5 192.56,-123.5"/>
</g>
<!-- sources&#45;&gt;n_1 -->
<g id="edge2" class="edge">
<title>sources:p_1&#45;&gt;n_1</title>
<path fill="none" stroke="white" stroke-dasharray="5,2" d="M143.5,-99.5C163.06,-99.5 186.9,-99.5 192.56,-99.5"/>
</g>
</g>
</svg>
