<?xml version="1.0" encoding="UTF-8" standalone="no"?>
<!DOCTYPE svg PUBLIC "-//W3C//DTD SVG 1.1//EN"
 "http://www.w3.org/Graphics/SVG/1.1/DTD/svg11.dtd">
<!-- Generated by graphviz version 2.43.0 (0)
 -->
<!-- Title: G Pages: 1 -->
<svg width="1685pt" height="249pt"
 viewBox="0.00 0.00 1685.20 249.23" xmlns="http://www.w3.org/2000/svg" xmlns:xlink="http://www.w3.org/1999/xlink">
<g id="graph0" class="graph" transform="scale(1 1) rotate(0) translate(4 245.23)">
<title>G</title>
<polygon fill="#4a4a4a" stroke="transparent" points="-4,4 -4,-245.23 1681.2,-245.23 1681.2,4 -4,4"/>
<!-- n_0 -->
<g id="node1" class="node">
<title>n_0</title>
<ellipse fill="white" stroke="white" cx="184.1" cy="-218.8" rx="1.8" ry="1.8"/>
<text text-anchor="middle" x="282.4" y="-205.8" font-family="Times,serif" font-size="14.00" fill="white">val(buf(cap.own, u64, f32))</text>
</g>
<!-- e_5 -->
<g id="node20" class="node">
<title>e_5</title>
<path fill="none" stroke="white" d="M510.8,-105.8C510.8,-105.8 701.8,-105.8 701.8,-105.8 707.8,-105.8 713.8,-111.8 713.8,-117.8 713.8,-117.8 713.8,-139.8 713.8,-139.8 713.8,-145.8 707.8,-151.8 701.8,-151.8 701.8,-151.8 510.8,-151.8 510.8,-151.8 504.8,-151.8 498.8,-145.8 498.8,-139.8 498.8,-139.8 498.8,-117.8 498.8,-117.8 498.8,-111.8 504.8,-105.8 510.8,-105.8"/>
<text text-anchor="middle" x="509.3" y="-136.6" font-family="Times,serif" font-size="14.00" fill="white"> </text>
<polyline fill="none" stroke="white" points="498.8,-128.8 519.8,-128.8 "/>
<text text-anchor="middle" x="509.3" y="-113.6" font-family="Times,serif" font-size="14.00" fill="white"> </text>
<polyline fill="none" stroke="white" points="519.8,-105.8 519.8,-151.8 "/>
<text text-anchor="middle" x="606.3" y="-125.1" font-family="Times,serif" font-size="14.00" fill="white">f32.pool.payload.intro</text>
<polyline fill="none" stroke="white" points="692.8,-105.8 692.8,-151.8 "/>
<text text-anchor="middle" x="703.3" y="-125.1" font-family="Times,serif" font-size="14.00" fill="white"> </text>
</g>
<!-- n_0&#45;&gt;e_5 -->
<g id="edge18" class="edge">
<title>n_0&#45;&gt;e_5:s_0</title>
<path fill="none" stroke="white" d="M186.03,-219.03C205.05,-223.64 509.3,-295.25 509.3,-152.8"/>
</g>
<!-- n_1 -->
<g id="node2" class="node">
<title>n_1</title>
<ellipse fill="white" stroke="white" cx="368.7" cy="-180.8" rx="1.8" ry="1.8"/>
<text text-anchor="middle" x="270.4" y="-167.8" font-family="Times,serif" font-size="14.00" fill="white">val(buf(cap.own, u64, f32))</text>
</g>
<!-- e_7 -->
<g id="node22" class="node">
<title>e_7</title>
<path fill="none" stroke="white" d="M1306.6,-79.3C1306.6,-79.3 1432.6,-79.3 1432.6,-79.3 1438.6,-79.3 1444.6,-85.3 1444.6,-91.3 1444.6,-91.3 1444.6,-136.3 1444.6,-136.3 1444.6,-142.3 1438.6,-148.3 1432.6,-148.3 1432.6,-148.3 1306.6,-148.3 1306.6,-148.3 1300.6,-148.3 1294.6,-142.3 1294.6,-136.3 1294.6,-136.3 1294.6,-91.3 1294.6,-91.3 1294.6,-85.3 1300.6,-79.3 1306.6,-79.3"/>
<text text-anchor="middle" x="1305.1" y="-133.1" font-family="Times,serif" font-size="14.00" fill="white"> </text>
<polyline fill="none" stroke="white" points="1294.6,-125.3 1315.6,-125.3 "/>
<text text-anchor="middle" x="1305.1" y="-110.1" font-family="Times,serif" font-size="14.00" fill="white"> </text>
<polyline fill="none" stroke="white" points="1294.6,-102.3 1315.6,-102.3 "/>
<text text-anchor="middle" x="1305.1" y="-87.1" font-family="Times,serif" font-size="14.00" fill="white"> </text>
<polyline fill="none" stroke="white" points="1315.6,-79.3 1315.6,-148.3 "/>
<text text-anchor="middle" x="1369.6" y="-110.1" font-family="Times,serif" font-size="14.00" fill="white">f32.buf.store</text>
<polyline fill="none" stroke="white" points="1423.6,-79.3 1423.6,-148.3 "/>
<text text-anchor="middle" x="1434.1" y="-110.1" font-family="Times,serif" font-size="14.00" fill="white"> </text>
</g>
<!-- n_1&#45;&gt;e_7 -->
<g id="edge25" class="edge">
<title>n_1&#45;&gt;e_7:s_0</title>
<path fill="none" stroke="white" d="M370.55,-180.8C381.91,-180.8 505.5,-180.8 605.3,-180.8 605.3,-180.8 605.3,-180.8 1104.5,-180.8 1191.22,-180.8 1207.88,-136.8 1294.6,-136.8"/>
</g>
<!-- n_2 -->
<g id="node3" class="node">
<title>n_2</title>
<ellipse fill="white" stroke="white" cx="91.8" cy="-121.8" rx="1.8" ry="1.8"/>
<text text-anchor="middle" x="49" y="-108.8" font-family="Times,serif" font-size="14.00" fill="white">val(ix(u64))</text>
</g>
<!-- e_0 -->
<g id="node15" class="node">
<title>e_0</title>
<path fill="none" stroke="white" d="M141.6,-48.8C141.6,-48.8 226.6,-48.8 226.6,-48.8 232.6,-48.8 238.6,-54.8 238.6,-60.8 238.6,-60.8 238.6,-82.8 238.6,-82.8 238.6,-88.8 232.6,-94.8 226.6,-94.8 226.6,-94.8 141.6,-94.8 141.6,-94.8 135.6,-94.8 129.6,-88.8 129.6,-82.8 129.6,-82.8 129.6,-60.8 129.6,-60.8 129.6,-54.8 135.6,-48.8 141.6,-48.8"/>
<text text-anchor="middle" x="140.1" y="-68.1" font-family="Times,serif" font-size="14.00" fill="white"> </text>
<polyline fill="none" stroke="white" points="150.6,-48.8 150.6,-94.8 "/>
<text text-anchor="middle" x="184.1" y="-68.1" font-family="Times,serif" font-size="14.00" fill="white">ix.copy</text>
<polyline fill="none" stroke="white" points="217.6,-48.8 217.6,-94.8 "/>
<text text-anchor="middle" x="228.1" y="-79.6" font-family="Times,serif" font-size="14.00" fill="white"> </text>
<polyline fill="none" stroke="white" points="217.6,-71.8 238.6,-71.8 "/>
<text text-anchor="middle" x="228.1" y="-56.6" font-family="Times,serif" font-size="14.00" fill="white"> </text>
</g>
<!-- n_2&#45;&gt;e_0 -->
<g id="edge5" class="edge">
<title>n_2&#45;&gt;e_0:s_0</title>
<path fill="none" stroke="white" d="M93.62,-121.75C99.9,-121.35 140.1,-117.91 140.1,-95.8"/>
</g>
<!-- n_3 -->
<g id="node4" class="node">
<title>n_3</title>
<ellipse fill="white" stroke="white" cx="276.4" cy="-83.8" rx="1.8" ry="1.8"/>
<text text-anchor="middle" x="237.2" y="-89.4" font-family="Times,serif" font-size="14.00" fill="white">val(ix(u64))</text>
</g>
<!-- e_1 -->
<g id="node16" class="node">
<title>e_1</title>
<path fill="none" stroke="white" d="M326.2,-60.8C326.2,-60.8 411.2,-60.8 411.2,-60.8 417.2,-60.8 423.2,-66.8 423.2,-72.8 423.2,-72.8 423.2,-94.8 423.2,-94.8 423.2,-100.8 417.2,-106.8 411.2,-106.8 411.2,-106.8 326.2,-106.8 326.2,-106.8 320.2,-106.8 314.2,-100.8 314.2,-94.8 314.2,-94.8 314.2,-72.8 314.2,-72.8 314.2,-66.8 320.2,-60.8 326.2,-60.8"/>
<text text-anchor="middle" x="324.7" y="-80.1" font-family="Times,serif" font-size="14.00" fill="white"> </text>
<polyline fill="none" stroke="white" points="335.2,-60.8 335.2,-106.8 "/>
<text text-anchor="middle" x="368.7" y="-80.1" font-family="Times,serif" font-size="14.00" fill="white">ix.copy</text>
<polyline fill="none" stroke="white" points="402.2,-60.8 402.2,-106.8 "/>
<text text-anchor="middle" x="412.7" y="-91.6" font-family="Times,serif" font-size="14.00" fill="white"> </text>
<polyline fill="none" stroke="white" points="402.2,-83.8 423.2,-83.8 "/>
<text text-anchor="middle" x="412.7" y="-68.6" font-family="Times,serif" font-size="14.00" fill="white"> </text>
</g>
<!-- n_3&#45;&gt;e_1 -->
<g id="edge8" class="edge">
<title>n_3&#45;&gt;e_1:s_0</title>
<path fill="none" stroke="white" d="M278.31,-83.8C282.45,-83.8 299.89,-83.8 314.2,-83.8"/>
</g>
<!-- n_4 -->
<g id="node5" class="node">
<title>n_4</title>
<ellipse fill="white" stroke="white" cx="1103.5" cy="-16.8" rx="1.8" ry="1.8"/>
<text text-anchor="middle" x="1060.7" y="-3.8" font-family="Times,serif" font-size="14.00" fill="white">val(ix(u64))</text>
</g>
<!-- n_4&#45;&gt;e_7 -->
<g id="edge26" class="edge">
<title>n_4&#45;&gt;e_7:s_1</title>
<path fill="none" stroke="white" d="M1105.31,-16.74C1113.33,-16.18 1178.69,-12.54 1219,-39.8 1243.2,-56.17 1233.02,-75.55 1255,-94.8 1269.69,-107.66 1275.08,-113.8 1294.6,-113.8"/>
</g>
<!-- n_5 -->
<g id="node6" class="node">
<title>n_5</title>
<ellipse fill="white" stroke="white" cx="461" cy="-102.8" rx="1.8" ry="1.8"/>
<text text-anchor="middle" x="503.8" y="-89.8" font-family="Times,serif" font-size="14.00" fill="white">val(ix(u64))</text>
</g>
<!-- n_5&#45;&gt;e_5 -->
<g id="edge19" class="edge">
<title>n_5&#45;&gt;e_5:s_1</title>
<path fill="none" stroke="white" d="M462.86,-103.4C466.8,-106.08 483.49,-116.8 498.8,-116.8"/>
</g>
<!-- n_6 -->
<g id="node7" class="node">
<title>n_6</title>
<ellipse fill="white" stroke="white" cx="461" cy="-67.8" rx="1.8" ry="1.8"/>
<text text-anchor="middle" x="503.8" y="-54.8" font-family="Times,serif" font-size="14.00" fill="white">val(ix(u64))</text>
</g>
<!-- e_2 -->
<g id="node17" class="node">
<title>e_2</title>
<path fill="none" stroke="white" d="M563.8,-40.8C563.8,-40.8 648.8,-40.8 648.8,-40.8 654.8,-40.8 660.8,-46.8 660.8,-52.8 660.8,-52.8 660.8,-74.8 660.8,-74.8 660.8,-80.8 654.8,-86.8 648.8,-86.8 648.8,-86.8 563.8,-86.8 563.8,-86.8 557.8,-86.8 551.8,-80.8 551.8,-74.8 551.8,-74.8 551.8,-52.8 551.8,-52.8 551.8,-46.8 557.8,-40.8 563.8,-40.8"/>
<text text-anchor="middle" x="562.3" y="-60.1" font-family="Times,serif" font-size="14.00" fill="white"> </text>
<polyline fill="none" stroke="white" points="572.8,-40.8 572.8,-86.8 "/>
<text text-anchor="middle" x="606.3" y="-60.1" font-family="Times,serif" font-size="14.00" fill="white">ix.copy</text>
<polyline fill="none" stroke="white" points="639.8,-40.8 639.8,-86.8 "/>
<text text-anchor="middle" x="650.3" y="-71.6" font-family="Times,serif" font-size="14.00" fill="white"> </text>
<polyline fill="none" stroke="white" points="639.8,-63.8 660.8,-63.8 "/>
<text text-anchor="middle" x="650.3" y="-48.6" font-family="Times,serif" font-size="14.00" fill="white"> </text>
</g>
<!-- n_6&#45;&gt;e_2 -->
<g id="edge11" class="edge">
<title>n_6&#45;&gt;e_2:s_0</title>
<path fill="none" stroke="white" d="M462.87,-67.73C469.6,-67.2 514.08,-63.8 550.3,-63.8"/>
</g>
<!-- n_7 -->
<g id="node8" class="node">
<title>n_7</title>
<ellipse fill="white" stroke="white" cx="751.6" cy="-90.8" rx="1.8" ry="1.8"/>
<text text-anchor="middle" x="708.8" y="-77.8" font-family="Times,serif" font-size="14.00" fill="white">val(ix(u64))</text>
</g>
<!-- e_3 -->
<g id="node18" class="node">
<title>e_3</title>
<path fill="none" stroke="white" d="M801.4,-88.8C801.4,-88.8 900.4,-88.8 900.4,-88.8 906.4,-88.8 912.4,-94.8 912.4,-100.8 912.4,-100.8 912.4,-112.8 912.4,-112.8 912.4,-118.8 906.4,-124.8 900.4,-124.8 900.4,-124.8 801.4,-124.8 801.4,-124.8 795.4,-124.8 789.4,-118.8 789.4,-112.8 789.4,-112.8 789.4,-100.8 789.4,-100.8 789.4,-94.8 795.4,-88.8 801.4,-88.8"/>
<text text-anchor="middle" x="799.9" y="-103.1" font-family="Times,serif" font-size="14.00" fill="white"> </text>
<polyline fill="none" stroke="white" points="810.4,-88.8 810.4,-124.8 "/>
<text text-anchor="middle" x="850.9" y="-103.1" font-family="Times,serif" font-size="14.00" fill="white">ix.is&#45;zero</text>
<polyline fill="none" stroke="white" points="891.4,-88.8 891.4,-124.8 "/>
<text text-anchor="middle" x="901.9" y="-103.1" font-family="Times,serif" font-size="14.00" fill="white"> </text>
</g>
<!-- n_7&#45;&gt;e_3 -->
<g id="edge14" class="edge">
<title>n_7&#45;&gt;e_3:s_0</title>
<path fill="none" stroke="white" d="M753.45,-91.49C757.32,-94.55 773.79,-106.8 789.4,-106.8"/>
</g>
<!-- n_8 -->
<g id="node9" class="node">
<title>n_8</title>
<ellipse fill="white" stroke="white" cx="751.6" cy="-51.8" rx="1.8" ry="1.8"/>
<text text-anchor="middle" x="708.8" y="-38.8" font-family="Times,serif" font-size="14.00" fill="white">val(ix(u64))</text>
</g>
<!-- e_4 -->
<g id="node19" class="node">
<title>e_4</title>
<path fill="none" stroke="white" d="M803.9,-33.8C803.9,-33.8 897.9,-33.8 897.9,-33.8 903.9,-33.8 909.9,-39.8 909.9,-45.8 909.9,-45.8 909.9,-57.8 909.9,-57.8 909.9,-63.8 903.9,-69.8 897.9,-69.8 897.9,-69.8 803.9,-69.8 803.9,-69.8 797.9,-69.8 791.9,-63.8 791.9,-57.8 791.9,-57.8 791.9,-45.8 791.9,-45.8 791.9,-39.8 797.9,-33.8 803.9,-33.8"/>
<text text-anchor="middle" x="802.4" y="-48.1" font-family="Times,serif" font-size="14.00" fill="white"> </text>
<polyline fill="none" stroke="white" points="812.9,-33.8 812.9,-69.8 "/>
<text text-anchor="middle" x="850.9" y="-48.1" font-family="Times,serif" font-size="14.00" fill="white">ix.is&#45;one</text>
<polyline fill="none" stroke="white" points="888.9,-33.8 888.9,-69.8 "/>
<text text-anchor="middle" x="899.4" y="-48.1" font-family="Times,serif" font-size="14.00" fill="white"> </text>
</g>
<!-- n_8&#45;&gt;e_4 -->
<g id="edge16" class="edge">
<title>n_8&#45;&gt;e_4:s_0</title>
<path fill="none" stroke="white" d="M753.55,-51.8C757.85,-51.8 776.01,-51.8 790.9,-51.8"/>
</g>
<!-- n_9 -->
<g id="node10" class="node">
<title>n_9</title>
<ellipse fill="white" stroke="white" cx="950.2" cy="-106.8" rx="1.8" ry="1.8"/>
<text text-anchor="middle" x="983" y="-112.4" font-family="Times,serif" font-size="14.00" fill="white">val(bool)</text>
</g>
<!-- e_6 -->
<g id="node21" class="node">
<title>e_6</title>
<path fill="none" stroke="white" d="M1000,-49.3C1000,-49.3 1207,-49.3 1207,-49.3 1213,-49.3 1219,-55.3 1219,-61.3 1219,-61.3 1219,-106.3 1219,-106.3 1219,-112.3 1213,-118.3 1207,-118.3 1207,-118.3 1000,-118.3 1000,-118.3 994,-118.3 988,-112.3 988,-106.3 988,-106.3 988,-61.3 988,-61.3 988,-55.3 994,-49.3 1000,-49.3"/>
<text text-anchor="middle" x="998.5" y="-103.1" font-family="Times,serif" font-size="14.00" fill="white"> </text>
<polyline fill="none" stroke="white" points="988,-95.3 1009,-95.3 "/>
<text text-anchor="middle" x="998.5" y="-80.1" font-family="Times,serif" font-size="14.00" fill="white"> </text>
<polyline fill="none" stroke="white" points="988,-72.3 1009,-72.3 "/>
<text text-anchor="middle" x="998.5" y="-57.1" font-family="Times,serif" font-size="14.00" fill="white"> </text>
<polyline fill="none" stroke="white" points="1009,-49.3 1009,-118.3 "/>
<text text-anchor="middle" x="1103.5" y="-80.1" font-family="Times,serif" font-size="14.00" fill="white">f32.pooling&#45;last&#45;three&#45;at</text>
<polyline fill="none" stroke="white" points="1198,-49.3 1198,-118.3 "/>
<text text-anchor="middle" x="1208.5" y="-80.1" font-family="Times,serif" font-size="14.00" fill="white"> </text>
</g>
<!-- n_9&#45;&gt;e_6 -->
<g id="edge21" class="edge">
<title>n_9&#45;&gt;e_6:s_0</title>
<path fill="none" stroke="white" d="M952.11,-106.8C956.25,-106.8 973.69,-106.8 988,-106.8"/>
</g>
<!-- n_10 -->
<g id="node11" class="node">
<title>n_10</title>
<ellipse fill="white" stroke="white" cx="950.2" cy="-84.8" rx="1.8" ry="1.8"/>
<text text-anchor="middle" x="921" y="-71.8" font-family="Times,serif" font-size="14.00" fill="white">val(bool)</text>
</g>
<!-- n_10&#45;&gt;e_6 -->
<g id="edge22" class="edge">
<title>n_10&#45;&gt;e_6:s_1</title>
<path fill="none" stroke="white" d="M952.11,-84.76C956.25,-84.57 973.68,-83.8 988,-83.8"/>
</g>
<!-- n_11 -->
<g id="node12" class="node">
<title>n_11</title>
<ellipse fill="white" stroke="white" cx="850.9" cy="-144.8" rx="1.8" ry="1.8"/>
<text text-anchor="middle" x="997.7" y="-131.8" font-family="Times,serif" font-size="14.00" fill="white">val(buf(cap.own, u64, f32)) * val(ix(u64))</text>
</g>
<!-- n_11&#45;&gt;e_6 -->
<g id="edge23" class="edge">
<title>n_11&#45;&gt;e_6:s_2</title>
<path fill="none" stroke="white" d="M852.86,-144.92C858.89,-145.63 892.03,-148.76 912.4,-134.8 938.37,-117.01 923.87,-93.53 948.4,-73.8 962.83,-62.19 969.48,-60.8 988,-60.8"/>
</g>
<!-- n_12 -->
<g id="node13" class="node">
<title>n_12</title>
<ellipse fill="white" stroke="white" cx="1256.8" cy="-83.8" rx="1.8" ry="1.8"/>
<text text-anchor="middle" x="1286.1" y="-70.8" font-family="Times,serif" font-size="14.00" fill="white">val(f32)</text>
</g>
<!-- n_12&#45;&gt;e_7 -->
<g id="edge27" class="edge">
<title>n_12&#45;&gt;e_7:s_2</title>
<path fill="none" stroke="white" d="M1258.7,-84.1C1262.78,-85.44 1280.03,-90.8 1294.6,-90.8"/>
</g>
<!-- n_13 -->
<g id="node14" class="node">
<title>n_13</title>
<ellipse fill="white" stroke="white" cx="1482.4" cy="-113.8" rx="1.8" ry="1.8"/>
<text text-anchor="middle" x="1580.7" y="-115.8" font-family="Times,serif" font-size="14.00" fill="white">val(buf(cap.own, u64, f32))</text>
</g>
<!-- targets -->
<g id="node24" class="node">
<title>targets</title>
</g>
<!-- n_13&#45;&gt;targets -->
<g id="edge4" class="edge">
<title>n_13&#45;&gt;targets:p_0</title>
<path fill="none" stroke="white" stroke-dasharray="5,2" d="M1484.31,-113.8C1488.45,-113.8 1505.89,-113.8 1520.2,-113.8"/>
</g>
<!-- e_0&#45;&gt;n_3 -->
<g id="edge6" class="edge">
<title>e_0:t_0&#45;&gt;n_3</title>
<path fill="none" stroke="white" d="M238.6,-83.8C252.91,-83.8 270.35,-83.8 274.49,-83.8"/>
</g>
<!-- e_0&#45;&gt;n_4 -->
<g id="edge7" class="edge">
<title>e_0:t_1&#45;&gt;n_4</title>
<path fill="none" stroke="white" d="M228.1,-47.8C228.1,17.12 302.78,-4.8 367.7,-4.8 367.7,-4.8 367.7,-4.8 851.9,-4.8 958.18,-4.8 1089.52,-15.7 1101.6,-16.72"/>
</g>
<!-- e_1&#45;&gt;n_5 -->
<g id="edge9" class="edge">
<title>e_1:t_0&#45;&gt;n_5</title>
<path fill="none" stroke="white" d="M423.2,-95.8C437.77,-95.8 455.02,-101.16 459.1,-102.5"/>
</g>
<!-- e_1&#45;&gt;n_6 -->
<g id="edge10" class="edge">
<title>e_1:t_1&#45;&gt;n_6</title>
<path fill="none" stroke="white" d="M423.2,-71.8C437.6,-71.8 454.97,-68.74 459.09,-67.97"/>
</g>
<!-- e_2&#45;&gt;n_7 -->
<g id="edge12" class="edge">
<title>e_2:t_0&#45;&gt;n_7</title>
<path fill="none" stroke="white" d="M662.3,-75.8C699,-75.8 743.08,-88.55 749.74,-90.54"/>
</g>
<!-- e_2&#45;&gt;n_8 -->
<g id="edge13" class="edge">
<title>e_2:t_1&#45;&gt;n_8</title>
<path fill="none" stroke="white" d="M662.3,-51.8C698.48,-51.8 742.99,-51.8 749.73,-51.8"/>
</g>
<!-- e_3&#45;&gt;n_9 -->
<g id="edge15" class="edge">
<title>e_3:t_0&#45;&gt;n_9</title>
<path fill="none" stroke="white" d="M912.4,-106.8C926.71,-106.8 944.15,-106.8 948.29,-106.8"/>
</g>
<!-- e_4&#45;&gt;n_10 -->
<g id="edge17" class="edge">
<title>e_4:t_0&#45;&gt;n_10</title>
<path fill="none" stroke="white" d="M910.9,-51.8C930.56,-51.8 945.14,-77.07 948.48,-83.38"/>
</g>
<!-- e_5&#45;&gt;n_11 -->
<g id="edge20" class="edge">
<title>e_5:t_0&#45;&gt;n_11</title>
<path fill="none" stroke="white" d="M713.8,-128.8C742.35,-128.8 836.99,-142.86 848.71,-144.62"/>
</g>
<!-- e_6&#45;&gt;n_12 -->
<g id="edge24" class="edge">
<title>e_6:t_0&#45;&gt;n_12</title>
<path fill="none" stroke="white" d="M1219,-83.8C1233.31,-83.8 1250.75,-83.8 1254.89,-83.8"/>
</g>
<!-- e_7&#45;&gt;n_13 -->
<g id="edge28" class="edge">
<title>e_7:t_0&#45;&gt;n_13</title>
<path fill="none" stroke="white" d="M1444.6,-113.8C1458.91,-113.8 1476.35,-113.8 1480.49,-113.8"/>
</g>
<!-- sources -->
<g id="node23" class="node">
<title>sources</title>
</g>
<!-- sources&#45;&gt;n_0 -->
<g id="edge1" class="edge">
<title>sources:p_0&#45;&gt;n_0</title>
<path fill="none" stroke="white" stroke-dasharray="5,2" d="M54,-203.8C108.15,-203.8 174.24,-216.98 182.28,-218.63"/>
</g>
<!-- sources&#45;&gt;n_1 -->
<g id="edge2" class="edge">
<title>sources:p_1&#45;&gt;n_1</title>
<path fill="none" stroke="white" stroke-dasharray="5,2" d="M54,-180.8C186.89,-180.8 351.44,-180.8 366.57,-180.8"/>
</g>
<!-- sources&#45;&gt;n_2 -->
<g id="edge3" class="edge">
<title>sources:p_2&#45;&gt;n_2</title>
<path fill="none" stroke="white" stroke-dasharray="5,2" d="M54,-157.8C74.02,-157.8 87.18,-130.24 90.16,-123.35"/>
</g>
</g>
</svg>
