<?xml version="1.0" encoding="UTF-8" standalone="no"?>
<!DOCTYPE svg PUBLIC "-//W3C//DTD SVG 1.1//EN"
 "http://www.w3.org/Graphics/SVG/1.1/DTD/svg11.dtd">
<!-- Generated by graphviz version 2.43.0 (0)
 -->
<!-- Title: G Pages: 1 -->
<svg width="1582pt" height="249pt"
 viewBox="0.00 0.00 1582.20 248.59" xmlns="http://www.w3.org/2000/svg" xmlns:xlink="http://www.w3.org/1999/xlink">
<g id="graph0" class="graph" transform="scale(1 1) rotate(0) translate(4 244.59)">
<title>G</title>
<polygon fill="#4a4a4a" stroke="transparent" points="-4,4 -4,-244.59 1578.2,-244.59 1578.2,4 -4,4"/>
<!-- n_0 -->
<g id="node1" class="node">
<title>n_0</title>
<ellipse fill="white" stroke="white" cx="184.1" cy="-218.16" rx="1.8" ry="1.8"/>
</g>
<!-- e_5 -->
<g id="node20" class="node">
<title>e_5</title>
<path fill="none" stroke="white" d="M510.8,-105.16C510.8,-105.16 701.8,-105.16 701.8,-105.16 707.8,-105.16 713.8,-111.16 713.8,-117.16 713.8,-117.16 713.8,-139.16 713.8,-139.16 713.8,-145.16 707.8,-151.16 701.8,-151.16 701.8,-151.16 510.8,-151.16 510.8,-151.16 504.8,-151.16 498.8,-145.16 498.8,-139.16 498.8,-139.16 498.8,-117.16 498.8,-117.16 498.8,-111.16 504.8,-105.16 510.8,-105.16"/>
<text text-anchor="middle" x="509.3" y="-135.96" font-family="Times,serif" font-size="14.00" fill="white"> </text>
<polyline fill="none" stroke="white" points="498.8,-128.16 519.8,-128.16 "/>
<text text-anchor="middle" x="509.3" y="-112.96" font-family="Times,serif" font-size="14.00" fill="white"> </text>
<polyline fill="none" stroke="white" points="519.8,-105.16 519.8,-151.16 "/>
<text text-anchor="middle" x="606.3" y="-124.46" font-family="Times,serif" font-size="14.00" fill="white">f32.pool.payload.intro</text>
<polyline fill="none" stroke="white" points="692.8,-105.16 692.8,-151.16 "/>
<text text-anchor="middle" x="703.3" y="-124.46" font-family="Times,serif" font-size="14.00" fill="white"> </text>
</g>
<!-- n_0&#45;&gt;e_5 -->
<g id="edge18" class="edge">
<title>n_0&#45;&gt;e_5:s_0</title>
<path fill="none" stroke="white" d="M186.03,-218.39C205.05,-223.01 509.3,-294.61 509.3,-152.16"/>
</g>
<!-- n_1 -->
<g id="node2" class="node">
<title>n_1</title>
<ellipse fill="white" stroke="white" cx="368.7" cy="-180.16" rx="1.8" ry="1.8"/>
</g>
<!-- e_7 -->
<g id="node22" class="node">
<title>e_7</title>
<path fill="none" stroke="white" d="M1306.6,-78.66C1306.6,-78.66 1432.6,-78.66 1432.6,-78.66 1438.6,-78.66 1444.6,-84.66 1444.6,-90.66 1444.6,-90.66 1444.6,-135.66 1444.6,-135.66 1444.6,-141.66 1438.6,-147.66 1432.6,-147.66 1432.6,-147.66 1306.6,-147.66 1306.6,-147.66 1300.6,-147.66 1294.6,-141.66 1294.6,-135.66 1294.6,-135.66 1294.6,-90.66 1294.6,-90.66 1294.6,-84.66 1300.6,-78.66 1306.6,-78.66"/>
<text text-anchor="middle" x="1305.1" y="-132.46" font-family="Times,serif" font-size="14.00" fill="white"> </text>
<polyline fill="none" stroke="white" points="1294.6,-124.66 1315.6,-124.66 "/>
<text text-anchor="middle" x="1305.1" y="-109.46" font-family="Times,serif" font-size="14.00" fill="white"> </text>
<polyline fill="none" stroke="white" points="1294.6,-101.66 1315.6,-101.66 "/>
<text text-anchor="middle" x="1305.1" y="-86.46" font-family="Times,serif" font-size="14.00" fill="white"> </text>
<polyline fill="none" stroke="white" points="1315.6,-78.66 1315.6,-147.66 "/>
<text text-anchor="middle" x="1369.6" y="-109.46" font-family="Times,serif" font-size="14.00" fill="white">f32.buf.store</text>
<polyline fill="none" stroke="white" points="1423.6,-78.66 1423.6,-147.66 "/>
<text text-anchor="middle" x="1434.1" y="-109.46" font-family="Times,serif" font-size="14.00" fill="white"> </text>
</g>
<!-- n_1&#45;&gt;e_7 -->
<g id="edge25" class="edge">
<title>n_1&#45;&gt;e_7:s_0</title>
<path fill="none" stroke="white" d="M370.55,-180.16C381.91,-180.16 505.5,-180.16 605.3,-180.16 605.3,-180.16 605.3,-180.16 1104.5,-180.16 1191.22,-180.16 1207.88,-136.16 1294.6,-136.16"/>
</g>
<!-- n_2 -->
<g id="node3" class="node">
<title>n_2</title>
<ellipse fill="white" stroke="white" cx="91.8" cy="-121.16" rx="1.8" ry="1.8"/>
</g>
<!-- e_0 -->
<g id="node15" class="node">
<title>e_0</title>
<path fill="none" stroke="white" d="M141.6,-48.16C141.6,-48.16 226.6,-48.16 226.6,-48.16 232.6,-48.16 238.6,-54.16 238.6,-60.16 238.6,-60.16 238.6,-82.16 238.6,-82.16 238.6,-88.16 232.6,-94.16 226.6,-94.16 226.6,-94.16 141.6,-94.16 141.6,-94.16 135.6,-94.16 129.6,-88.16 129.6,-82.16 129.6,-82.16 129.6,-60.16 129.6,-60.16 129.6,-54.16 135.6,-48.16 141.6,-48.16"/>
<text text-anchor="middle" x="140.1" y="-67.46" font-family="Times,serif" font-size="14.00" fill="white"> </text>
<polyline fill="none" stroke="white" points="150.6,-48.16 150.6,-94.16 "/>
<text text-anchor="middle" x="184.1" y="-67.46" font-family="Times,serif" font-size="14.00" fill="white">ix.copy</text>
<polyline fill="none" stroke="white" points="217.6,-48.16 217.6,-94.16 "/>
<text text-anchor="middle" x="228.1" y="-78.96" font-family="Times,serif" font-size="14.00" fill="white"> </text>
<polyline fill="none" stroke="white" points="217.6,-71.16 238.6,-71.16 "/>
<text text-anchor="middle" x="228.1" y="-55.96" font-family="Times,serif" font-size="14.00" fill="white"> </text>
</g>
<!-- n_2&#45;&gt;e_0 -->
<g id="edge5" class="edge">
<title>n_2&#45;&gt;e_0:s_0</title>
<path fill="none" stroke="white" d="M93.62,-121.12C99.9,-120.71 140.1,-117.28 140.1,-95.16"/>
</g>
<!-- n_3 -->
<g id="node4" class="node">
<title>n_3</title>
<ellipse fill="white" stroke="white" cx="276.4" cy="-83.16" rx="1.8" ry="1.8"/>
</g>
<!-- e_1 -->
<g id="node16" class="node">
<title>e_1</title>
<path fill="none" stroke="white" d="M326.2,-60.16C326.2,-60.16 411.2,-60.16 411.2,-60.16 417.2,-60.16 423.2,-66.16 423.2,-72.16 423.2,-72.16 423.2,-94.16 423.2,-94.16 423.2,-100.16 417.2,-106.16 411.2,-106.16 411.2,-106.16 326.2,-106.16 326.2,-106.16 320.2,-106.16 314.2,-100.16 314.2,-94.16 314.2,-94.16 314.2,-72.16 314.2,-72.16 314.2,-66.16 320.2,-60.16 326.2,-60.16"/>
<text text-anchor="middle" x="324.7" y="-79.46" font-family="Times,serif" font-size="14.00" fill="white"> </text>
<polyline fill="none" stroke="white" points="335.2,-60.16 335.2,-106.16 "/>
<text text-anchor="middle" x="368.7" y="-79.46" font-family="Times,serif" font-size="14.00" fill="white">ix.copy</text>
<polyline fill="none" stroke="white" points="402.2,-60.16 402.2,-106.16 "/>
<text text-anchor="middle" x="412.7" y="-90.96" font-family="Times,serif" font-size="14.00" fill="white"> </text>
<polyline fill="none" stroke="white" points="402.2,-83.16 423.2,-83.16 "/>
<text text-anchor="middle" x="412.7" y="-67.96" font-family="Times,serif" font-size="14.00" fill="white"> </text>
</g>
<!-- n_3&#45;&gt;e_1 -->
<g id="edge8" class="edge">
<title>n_3&#45;&gt;e_1:s_0</title>
<path fill="none" stroke="white" d="M278.31,-83.16C282.45,-83.16 299.89,-83.16 314.2,-83.16"/>
</g>
<!-- n_4 -->
<g id="node5" class="node">
<title>n_4</title>
<ellipse fill="white" stroke="white" cx="1103.5" cy="-16.16" rx="1.8" ry="1.8"/>
</g>
<!-- n_4&#45;&gt;e_7 -->
<g id="edge26" class="edge">
<title>n_4&#45;&gt;e_7:s_1</title>
<path fill="none" stroke="white" d="M1105.31,-16.1C1113.33,-15.54 1178.69,-11.9 1219,-39.16 1243.2,-55.53 1233.02,-74.91 1255,-94.16 1269.69,-107.02 1275.08,-113.16 1294.6,-113.16"/>
</g>
<!-- n_5 -->
<g id="node6" class="node">
<title>n_5</title>
<ellipse fill="white" stroke="white" cx="461" cy="-102.16" rx="1.8" ry="1.8"/>
</g>
<!-- n_5&#45;&gt;e_5 -->
<g id="edge19" class="edge">
<title>n_5&#45;&gt;e_5:s_1</title>
<path fill="none" stroke="white" d="M462.86,-102.76C466.8,-105.44 483.49,-116.16 498.8,-116.16"/>
</g>
<!-- n_6 -->
<g id="node7" class="node">
<title>n_6</title>
<ellipse fill="white" stroke="white" cx="461" cy="-67.16" rx="1.8" ry="1.8"/>
</g>
<!-- e_2 -->
<g id="node17" class="node">
<title>e_2</title>
<path fill="none" stroke="white" d="M563.8,-40.16C563.8,-40.16 648.8,-40.16 648.8,-40.16 654.8,-40.16 660.8,-46.16 660.8,-52.16 660.8,-52.16 660.8,-74.16 660.8,-74.16 660.8,-80.16 654.8,-86.16 648.8,-86.16 648.8,-86.16 563.8,-86.16 563.8,-86.16 557.8,-86.16 551.8,-80.16 551.8,-74.16 551.8,-74.16 551.8,-52.16 551.8,-52.16 551.8,-46.16 557.8,-40.16 563.8,-40.16"/>
<text text-anchor="middle" x="562.3" y="-59.46" font-family="Times,serif" font-size="14.00" fill="white"> </text>
<polyline fill="none" stroke="white" points="572.8,-40.16 572.8,-86.16 "/>
<text text-anchor="middle" x="606.3" y="-59.46" font-family="Times,serif" font-size="14.00" fill="white">ix.copy</text>
<polyline fill="none" stroke="white" points="639.8,-40.16 639.8,-86.16 "/>
<text text-anchor="middle" x="650.3" y="-70.96" font-family="Times,serif" font-size="14.00" fill="white"> </text>
<polyline fill="none" stroke="white" points="639.8,-63.16 660.8,-63.16 "/>
<text text-anchor="middle" x="650.3" y="-47.96" font-family="Times,serif" font-size="14.00" fill="white"> </text>
</g>
<!-- n_6&#45;&gt;e_2 -->
<g id="edge11" class="edge">
<title>n_6&#45;&gt;e_2:s_0</title>
<path fill="none" stroke="white" d="M462.87,-67.09C469.6,-66.56 514.08,-63.16 550.3,-63.16"/>
</g>
<!-- n_7 -->
<g id="node8" class="node">
<title>n_7</title>
<ellipse fill="white" stroke="white" cx="751.6" cy="-90.16" rx="1.8" ry="1.8"/>
</g>
<!-- e_3 -->
<g id="node18" class="node">
<title>e_3</title>
<path fill="none" stroke="white" d="M801.4,-88.16C801.4,-88.16 900.4,-88.16 900.4,-88.16 906.4,-88.16 912.4,-94.16 912.4,-100.16 912.4,-100.16 912.4,-112.16 912.4,-112.16 912.4,-118.16 906.4,-124.16 900.4,-124.16 900.4,-124.16 801.4,-124.16 801.4,-124.16 795.4,-124.16 789.4,-118.16 789.4,-112.16 789.4,-112.16 789.4,-100.16 789.4,-100.16 789.4,-94.16 795.4,-88.16 801.4,-88.16"/>
<text text-anchor="middle" x="799.9" y="-102.46" font-family="Times,serif" font-size="14.00" fill="white"> </text>
<polyline fill="none" stroke="white" points="810.4,-88.16 810.4,-124.16 "/>
<text text-anchor="middle" x="850.9" y="-102.46" font-family="Times,serif" font-size="14.00" fill="white">ix.is&#45;zero</text>
<polyline fill="none" stroke="white" points="891.4,-88.16 891.4,-124.16 "/>
<text text-anchor="middle" x="901.9" y="-102.46" font-family="Times,serif" font-size="14.00" fill="white"> </text>
</g>
<!-- n_7&#45;&gt;e_3 -->
<g id="edge14" class="edge">
<title>n_7&#45;&gt;e_3:s_0</title>
<path fill="none" stroke="white" d="M753.45,-90.85C757.32,-93.91 773.79,-106.16 789.4,-106.16"/>
</g>
<!-- n_8 -->
<g id="node9" class="node">
<title>n_8</title>
<ellipse fill="white" stroke="white" cx="751.6" cy="-51.16" rx="1.8" ry="1.8"/>
</g>
<!-- e_4 -->
<g id="node19" class="node">
<title>e_4</title>
<path fill="none" stroke="white" d="M803.9,-33.16C803.9,-33.16 897.9,-33.16 897.9,-33.16 903.9,-33.16 909.9,-39.16 909.9,-45.16 909.9,-45.16 909.9,-57.16 909.9,-57.16 909.9,-63.16 903.9,-69.16 897.9,-69.16 897.9,-69.16 803.9,-69.16 803.9,-69.16 797.9,-69.16 791.9,-63.16 791.9,-57.16 791.9,-57.16 791.9,-45.16 791.9,-45.16 791.9,-39.16 797.9,-33.16 803.9,-33.16"/>
<text text-anchor="middle" x="802.4" y="-47.46" font-family="Times,serif" font-size="14.00" fill="white"> </text>
<polyline fill="none" stroke="white" points="812.9,-33.16 812.9,-69.16 "/>
<text text-anchor="middle" x="850.9" y="-47.46" font-family="Times,serif" font-size="14.00" fill="white">ix.is&#45;one</text>
<polyline fill="none" stroke="white" points="888.9,-33.16 888.9,-69.16 "/>
<text text-anchor="middle" x="899.4" y="-47.46" font-family="Times,serif" font-size="14.00" fill="white"> </text>
</g>
<!-- n_8&#45;&gt;e_4 -->
<g id="edge16" class="edge">
<title>n_8&#45;&gt;e_4:s_0</title>
<path fill="none" stroke="white" d="M753.55,-51.16C757.85,-51.16 776.01,-51.16 790.9,-51.16"/>
</g>
<!-- n_9 -->
<g id="node10" class="node">
<title>n_9</title>
<ellipse fill="white" stroke="white" cx="950.2" cy="-106.16" rx="1.8" ry="1.8"/>
</g>
<!-- e_6 -->
<g id="node21" class="node">
<title>e_6</title>
<path fill="none" stroke="white" d="M1000,-48.66C1000,-48.66 1207,-48.66 1207,-48.66 1213,-48.66 1219,-54.66 1219,-60.66 1219,-60.66 1219,-105.66 1219,-105.66 1219,-111.66 1213,-117.66 1207,-117.66 1207,-117.66 1000,-117.66 1000,-117.66 994,-117.66 988,-111.66 988,-105.66 988,-105.66 988,-60.66 988,-60.66 988,-54.66 994,-48.66 1000,-48.66"/>
<text text-anchor="middle" x="998.5" y="-102.46" font-family="Times,serif" font-size="14.00" fill="white"> </text>
<polyline fill="none" stroke="white" points="988,-94.66 1009,-94.66 "/>
<text text-anchor="middle" x="998.5" y="-79.46" font-family="Times,serif" font-size="14.00" fill="white"> </text>
<polyline fill="none" stroke="white" points="988,-71.66 1009,-71.66 "/>
<text text-anchor="middle" x="998.5" y="-56.46" font-family="Times,serif" font-size="14.00" fill="white"> </text>
<polyline fill="none" stroke="white" points="1009,-48.66 1009,-117.66 "/>
<text text-anchor="middle" x="1103.5" y="-79.46" font-family="Times,serif" font-size="14.00" fill="white">f32.pooling&#45;last&#45;three&#45;at</text>
<polyline fill="none" stroke="white" points="1198,-48.66 1198,-117.66 "/>
<text text-anchor="middle" x="1208.5" y="-79.46" font-family="Times,serif" font-size="14.00" fill="white"> </text>
</g>
<!-- n_9&#45;&gt;e_6 -->
<g id="edge21" class="edge">
<title>n_9&#45;&gt;e_6:s_0</title>
<path fill="none" stroke="white" d="M952.11,-106.16C956.25,-106.16 973.69,-106.16 988,-106.16"/>
</g>
<!-- n_10 -->
<g id="node11" class="node">
<title>n_10</title>
<ellipse fill="white" stroke="white" cx="950.2" cy="-84.16" rx="1.8" ry="1.8"/>
</g>
<!-- n_10&#45;&gt;e_6 -->
<g id="edge22" class="edge">
<title>n_10&#45;&gt;e_6:s_1</title>
<path fill="none" stroke="white" d="M952.11,-84.12C956.25,-83.93 973.68,-83.16 988,-83.16"/>
</g>
<!-- n_11 -->
<g id="node12" class="node">
<title>n_11</title>
<ellipse fill="white" stroke="white" cx="850.9" cy="-144.16" rx="1.8" ry="1.8"/>
</g>
<!-- n_11&#45;&gt;e_6 -->
<g id="edge23" class="edge">
<title>n_11&#45;&gt;e_6:s_2</title>
<path fill="none" stroke="white" d="M852.86,-144.28C858.89,-144.99 892.03,-148.12 912.4,-134.16 938.37,-116.37 923.87,-92.89 948.4,-73.16 962.83,-61.55 969.48,-60.16 988,-60.16"/>
</g>
<!-- n_12 -->
<g id="node13" class="node">
<title>n_12</title>
<ellipse fill="white" stroke="white" cx="1256.8" cy="-83.16" rx="1.8" ry="1.8"/>
</g>
<!-- n_12&#45;&gt;e_7 -->
<g id="edge27" class="edge">
<title>n_12&#45;&gt;e_7:s_2</title>
<path fill="none" stroke="white" d="M1258.7,-83.46C1262.78,-84.8 1280.03,-90.16 1294.6,-90.16"/>
</g>
<!-- n_13 -->
<g id="node14" class="node">
<title>n_13</title>
<ellipse fill="white" stroke="white" cx="1482.4" cy="-113.16" rx="1.8" ry="1.8"/>
</g>
<!-- targets -->
<g id="node24" class="node">
<title>targets</title>
</g>
<!-- n_13&#45;&gt;targets -->
<g id="edge4" class="edge">
<title>n_13&#45;&gt;targets:p_0</title>
<path fill="none" stroke="white" stroke-dasharray="5,2" d="M1484.31,-113.16C1488.45,-113.16 1505.89,-113.16 1520.2,-113.16"/>
</g>
<!-- e_0&#45;&gt;n_3 -->
<g id="edge6" class="edge">
<title>e_0:t_0&#45;&gt;n_3</title>
<path fill="none" stroke="white" d="M238.6,-83.16C252.91,-83.16 270.35,-83.16 274.49,-83.16"/>
</g>
<!-- e_0&#45;&gt;n_4 -->
<g id="edge7" class="edge">
<title>e_0:t_1&#45;&gt;n_4</title>
<path fill="none" stroke="white" d="M228.1,-47.16C228.1,17.76 302.78,-4.16 367.7,-4.16 367.7,-4.16 367.7,-4.16 851.9,-4.16 958.18,-4.16 1089.52,-15.06 1101.6,-16.09"/>
</g>
<!-- e_1&#45;&gt;n_5 -->
<g id="edge9" class="edge">
<title>e_1:t_0&#45;&gt;n_5</title>
<path fill="none" stroke="white" d="M423.2,-95.16C437.77,-95.16 455.02,-100.52 459.1,-101.86"/>
</g>
<!-- e_1&#45;&gt;n_6 -->
<g id="edge10" class="edge">
<title>e_1:t_1&#45;&gt;n_6</title>
<path fill="none" stroke="white" d="M423.2,-71.16C437.6,-71.16 454.97,-68.1 459.09,-67.33"/>
</g>
<!-- e_2&#45;&gt;n_7 -->
<g id="edge12" class="edge">
<title>e_2:t_0&#45;&gt;n_7</title>
<path fill="none" stroke="white" d="M662.3,-75.16C699,-75.16 743.08,-87.91 749.74,-89.9"/>
</g>
<!-- e_2&#45;&gt;n_8 -->
<g id="edge13" class="edge">
<title>e_2:t_1&#45;&gt;n_8</title>
<path fill="none" stroke="white" d="M662.3,-51.16C698.48,-51.16 742.99,-51.16 749.73,-51.16"/>
</g>
<!-- e_3&#45;&gt;n_9 -->
<g id="edge15" class="edge">
<title>e_3:t_0&#45;&gt;n_9</title>
<path fill="none" stroke="white" d="M912.4,-106.16C926.71,-106.16 944.15,-106.16 948.29,-106.16"/>
</g>
<!-- e_4&#45;&gt;n_10 -->
<g id="edge17" class="edge">
<title>e_4:t_0&#45;&gt;n_10</title>
<path fill="none" stroke="white" d="M910.9,-51.16C930.56,-51.16 945.14,-76.43 948.48,-82.74"/>
</g>
<!-- e_5&#45;&gt;n_11 -->
<g id="edge20" class="edge">
<title>e_5:t_0&#45;&gt;n_11</title>
<path fill="none" stroke="white" d="M713.8,-128.16C742.35,-128.16 836.99,-142.23 848.71,-143.98"/>
</g>
<!-- e_6&#45;&gt;n_12 -->
<g id="edge24" class="edge">
<title>e_6:t_0&#45;&gt;n_12</title>
<path fill="none" stroke="white" d="M1219,-83.16C1233.31,-83.16 1250.75,-83.16 1254.89,-83.16"/>
</g>
<!-- e_7&#45;&gt;n_13 -->
<g id="edge28" class="edge">
<title>e_7:t_0&#45;&gt;n_13</title>
<path fill="none" stroke="white" d="M1444.6,-113.16C1458.91,-113.16 1476.35,-113.16 1480.49,-113.16"/>
</g>
<!-- sources -->
<g id="node23" class="node">
<title>sources</title>
</g>
<!-- sources&#45;&gt;n_0 -->
<g id="edge1" class="edge">
<title>sources:p_0&#45;&gt;n_0</title>
<path fill="none" stroke="white" stroke-dasharray="5,2" d="M54,-203.16C108.15,-203.16 174.24,-216.35 182.28,-217.99"/>
</g>
<!-- sources&#45;&gt;n_1 -->
<g id="edge2" class="edge">
<title>sources:p_1&#45;&gt;n_1</title>
<path fill="none" stroke="white" stroke-dasharray="5,2" d="M54,-180.16C186.89,-180.16 351.44,-180.16 366.57,-180.16"/>
</g>
<!-- sources&#45;&gt;n_2 -->
<g id="edge3" class="edge">
<title>sources:p_2&#45;&gt;n_2</title>
<path fill="none" stroke="white" stroke-dasharray="5,2" d="M54,-157.16C74.02,-157.16 87.18,-129.6 90.16,-122.71"/>
</g>
</g>
</svg>
