<?xml version="1.0" encoding="UTF-8" standalone="no"?>
<!DOCTYPE svg PUBLIC "-//W3C//DTD SVG 1.1//EN"
 "http://www.w3.org/Graphics/SVG/1.1/DTD/svg11.dtd">
<!-- Generated by graphviz version 2.43.0 (0)
 -->
<!-- Title: G Pages: 1 -->
<svg width="1001pt" height="140pt"
 viewBox="0.00 0.00 1000.80 140.00" xmlns="http://www.w3.org/2000/svg" xmlns:xlink="http://www.w3.org/1999/xlink">
<g id="graph0" class="graph" transform="scale(1 1) rotate(0) translate(4 136)">
<title>G</title>
<polygon fill="#4a4a4a" stroke="transparent" points="-4,4 -4,-136 996.8,-136 996.8,4 -4,4"/>
<!-- n_0 -->
<g id="node1" class="node">
<title>n_0</title>
<ellipse fill="white" stroke="white" cx="291.8" cy="-108.5" rx="1.8" ry="1.8"/>
<text text-anchor="middle" x="285" y="-95.5" font-family="Times,serif" font-size="14.00" fill="white">1</text>
</g>
<!-- e_0 -->
<g id="node7" class="node">
<title>e_0</title>
<path fill="none" stroke="white" d="M395.6,-95.5C395.6,-95.5 475.6,-95.5 475.6,-95.5 481.6,-95.5 487.6,-101.5 487.6,-107.5 487.6,-107.5 487.6,-119.5 487.6,-119.5 487.6,-125.5 481.6,-131.5 475.6,-131.5 475.6,-131.5 395.6,-131.5 395.6,-131.5 389.6,-131.5 383.6,-125.5 383.6,-119.5 383.6,-119.5 383.6,-107.5 383.6,-107.5 383.6,-101.5 389.6,-95.5 395.6,-95.5"/>
<text text-anchor="middle" x="394.1" y="-109.8" font-family="Times,serif" font-size="14.00" fill="white"> </text>
<polyline fill="none" stroke="white" points="404.6,-95.5 404.6,-131.5 "/>
<text text-anchor="middle" x="446.1" y="-109.8" font-family="Times,serif" font-size="14.00" fill="white">unit.drop</text>
</g>
<!-- n_0&#45;&gt;e_0 -->
<g id="edge4" class="edge">
<title>n_0&#45;&gt;e_0:s_0</title>
<path fill="none" stroke="white" d="M293.68,-108.59C300.53,-109.25 345.75,-113.5 382.6,-113.5"/>
</g>
<!-- n_1 -->
<g id="node2" class="node">
<title>n_1</title>
<ellipse fill="white" stroke="white" cx="291.8" cy="-71.5" rx="1.8" ry="1.8"/>
<text text-anchor="middle" x="145" y="-58.5" font-family="Times,serif" font-size="14.00" fill="white">val(buf(cap.own, u64, f32)) * val(ix(u64))</text>
</g>
<!-- e_1 -->
<g id="node8" class="node">
<title>e_1</title>
<path fill="none" stroke="white" d="M341.6,-30.5C341.6,-30.5 529.6,-30.5 529.6,-30.5 535.6,-30.5 541.6,-36.5 541.6,-42.5 541.6,-42.5 541.6,-64.5 541.6,-64.5 541.6,-70.5 535.6,-76.5 529.6,-76.5 529.6,-76.5 341.6,-76.5 341.6,-76.5 335.6,-76.5 329.6,-70.5 329.6,-64.5 329.6,-64.5 329.6,-42.5 329.6,-42.5 329.6,-36.5 335.6,-30.5 341.6,-30.5"/>
<text text-anchor="middle" x="340.1" y="-49.8" font-family="Times,serif" font-size="14.00" fill="white"> </text>
<polyline fill="none" stroke="white" points="350.6,-30.5 350.6,-76.5 "/>
<text text-anchor="middle" x="435.6" y="-49.8" font-family="Times,serif" font-size="14.00" fill="white">f32.pool.payload.elim</text>
<polyline fill="none" stroke="white" points="520.6,-30.5 520.6,-76.5 "/>
<text text-anchor="middle" x="531.1" y="-61.3" font-family="Times,serif" font-size="14.00" fill="white"> </text>
<polyline fill="none" stroke="white" points="520.6,-53.5 541.6,-53.5 "/>
<text text-anchor="middle" x="531.1" y="-38.3" font-family="Times,serif" font-size="14.00" fill="white"> </text>
</g>
<!-- n_1&#45;&gt;e_1 -->
<g id="edge5" class="edge">
<title>n_1&#45;&gt;e_1:s_0</title>
<path fill="none" stroke="white" d="M293.63,-70.73C297.44,-67.28 313.67,-53.5 329.6,-53.5"/>
</g>
<!-- n_2 -->
<g id="node3" class="node">
<title>n_2</title>
<ellipse fill="white" stroke="white" cx="579.4" cy="-65.5" rx="1.8" ry="1.8"/>
<text text-anchor="middle" x="677.7" y="-71.1" font-family="Times,serif" font-size="14.00" fill="white">val(buf(cap.own, u64, f32))</text>
</g>
<!-- e_2 -->
<g id="node9" class="node">
<title>e_2</title>
<path fill="none" stroke="white" d="M629.2,-30.5C629.2,-30.5 748.2,-30.5 748.2,-30.5 754.2,-30.5 760.2,-36.5 760.2,-42.5 760.2,-42.5 760.2,-64.5 760.2,-64.5 760.2,-70.5 754.2,-76.5 748.2,-76.5 748.2,-76.5 629.2,-76.5 629.2,-76.5 623.2,-76.5 617.2,-70.5 617.2,-64.5 617.2,-64.5 617.2,-42.5 617.2,-42.5 617.2,-36.5 623.2,-30.5 629.2,-30.5"/>
<text text-anchor="middle" x="627.7" y="-61.3" font-family="Times,serif" font-size="14.00" fill="white"> </text>
<polyline fill="none" stroke="white" points="617.2,-53.5 638.2,-53.5 "/>
<text text-anchor="middle" x="627.7" y="-38.3" font-family="Times,serif" font-size="14.00" fill="white"> </text>
<polyline fill="none" stroke="white" points="638.2,-30.5 638.2,-76.5 "/>
<text text-anchor="middle" x="688.7" y="-49.8" font-family="Times,serif" font-size="14.00" fill="white">f32.buf.load</text>
<polyline fill="none" stroke="white" points="739.2,-30.5 739.2,-76.5 "/>
<text text-anchor="middle" x="749.7" y="-61.3" font-family="Times,serif" font-size="14.00" fill="white"> </text>
<polyline fill="none" stroke="white" points="739.2,-53.5 760.2,-53.5 "/>
<text text-anchor="middle" x="749.7" y="-38.3" font-family="Times,serif" font-size="14.00" fill="white"> </text>
</g>
<!-- n_2&#45;&gt;e_2 -->
<g id="edge8" class="edge">
<title>n_2&#45;&gt;e_2:s_0</title>
<path fill="none" stroke="white" d="M581.31,-65.5C585.45,-65.5 602.89,-65.5 617.2,-65.5"/>
</g>
<!-- n_3 -->
<g id="node4" class="node">
<title>n_3</title>
<ellipse fill="white" stroke="white" cx="579.4" cy="-41.5" rx="1.8" ry="1.8"/>
<text text-anchor="middle" x="540.2" y="-28.5" font-family="Times,serif" font-size="14.00" fill="white">val(ix(u64))</text>
</g>
<!-- n_3&#45;&gt;e_2 -->
<g id="edge9" class="edge">
<title>n_3&#45;&gt;e_2:s_1</title>
<path fill="none" stroke="white" d="M581.31,-41.5C585.45,-41.5 602.89,-41.5 617.2,-41.5"/>
</g>
<!-- n_4 -->
<g id="node5" class="node">
<title>n_4</title>
<ellipse fill="white" stroke="white" cx="798" cy="-69.5" rx="1.8" ry="1.8"/>
<text text-anchor="middle" x="896.3" y="-56.5" font-family="Times,serif" font-size="14.00" fill="white">val(buf(cap.own, u64, f32))</text>
</g>
<!-- e_3 -->
<g id="node10" class="node">
<title>e_3</title>
<path fill="none" stroke="white" d="M847.8,-55.5C847.8,-55.5 948.8,-55.5 948.8,-55.5 954.8,-55.5 960.8,-61.5 960.8,-67.5 960.8,-67.5 960.8,-79.5 960.8,-79.5 960.8,-85.5 954.8,-91.5 948.8,-91.5 948.8,-91.5 847.8,-91.5 847.8,-91.5 841.8,-91.5 835.8,-85.5 835.8,-79.5 835.8,-79.5 835.8,-67.5 835.8,-67.5 835.8,-61.5 841.8,-55.5 847.8,-55.5"/>
<text text-anchor="middle" x="846.3" y="-69.8" font-family="Times,serif" font-size="14.00" fill="white"> </text>
<polyline fill="none" stroke="white" points="856.8,-55.5 856.8,-91.5 "/>
<text text-anchor="middle" x="908.8" y="-69.8" font-family="Times,serif" font-size="14.00" fill="white">f32.buf.drop</text>
</g>
<!-- n_4&#45;&gt;e_3 -->
<g id="edge12" class="edge">
<title>n_4&#45;&gt;e_3:s_0</title>
<path fill="none" stroke="white" d="M799.91,-69.67C804.03,-70.44 821.4,-73.5 835.8,-73.5"/>
</g>
<!-- n_5 -->
<g id="node6" class="node">
<title>n_5</title>
<ellipse fill="white" stroke="white" cx="798" cy="-26.5" rx="1.8" ry="1.8"/>
<text text-anchor="middle" x="768.7" y="-13.5" font-family="Times,serif" font-size="14.00" fill="white">val(f32)</text>
</g>
<!-- targets -->
<g id="node12" class="node">
<title>targets</title>
</g>
<!-- n_5&#45;&gt;targets -->
<g id="edge3" class="edge">
<title>n_5&#45;&gt;targets:p_0</title>
<path fill="none" stroke="white" stroke-dasharray="5,2" d="M800,-26.3C806.32,-25.07 841.4,-18.5 870.3,-18.5"/>
</g>
<!-- e_1&#45;&gt;n_2 -->
<g id="edge6" class="edge">
<title>e_1:t_0&#45;&gt;n_2</title>
<path fill="none" stroke="white" d="M541.6,-65.5C555.91,-65.5 573.35,-65.5 577.49,-65.5"/>
</g>
<!-- e_1&#45;&gt;n_3 -->
<g id="edge7" class="edge">
<title>e_1:t_1&#45;&gt;n_3</title>
<path fill="none" stroke="white" d="M541.6,-41.5C555.91,-41.5 573.35,-41.5 577.49,-41.5"/>
</g>
<!-- e_2&#45;&gt;n_4 -->
<g id="edge10" class="edge">
<title>e_2:t_0&#45;&gt;n_4</title>
<path fill="none" stroke="white" d="M760.2,-65.5C774.6,-65.5 791.97,-68.56 796.09,-69.33"/>
</g>
<!-- e_2&#45;&gt;n_5 -->
<g id="edge11" class="edge">
<title>e_2:t_1&#45;&gt;n_5</title>
<path fill="none" stroke="white" d="M760.2,-41.5C775.65,-41.5 792.24,-30.02 796.14,-27.14"/>
</g>
<!-- sources -->
<g id="node11" class="node">
<title>sources</title>
</g>
<!-- sources&#45;&gt;n_0 -->
<g id="edge1" class="edge">
<title>sources:p_0&#45;&gt;n_0</title>
<path fill="none" stroke="white" stroke-dasharray="5,2" d="M254,-104.5C268.4,-104.5 285.77,-107.56 289.89,-108.33"/>
</g>
<!-- sources&#45;&gt;n_1 -->
<g id="edge2" class="edge">
<title>sources:p_1&#45;&gt;n_1</title>
<path fill="none" stroke="white" stroke-dasharray="5,2" d="M254,-80.5C268.73,-80.5 285.86,-73.61 289.91,-71.89"/>
</g>
</g>
</svg>
