<?xml version="1.0" encoding="UTF-8" standalone="no"?>
<!DOCTYPE svg PUBLIC "-//W3C//DTD SVG 1.1//EN"
 "http://www.w3.org/Graphics/SVG/1.1/DTD/svg11.dtd">
<!-- Generated by graphviz version 2.43.0 (0)
 -->
<!-- Title: G Pages: 1 -->
<svg width="802pt" height="244pt"
 viewBox="0.00 0.00 801.60 243.50" xmlns="http://www.w3.org/2000/svg" xmlns:xlink="http://www.w3.org/1999/xlink">
<g id="graph0" class="graph" transform="scale(1 1) rotate(0) translate(4 239.5)">
<title>G</title>
<polygon fill="#4a4a4a" stroke="transparent" points="-4,4 -4,-239.5 797.6,-239.5 797.6,4 -4,4"/>
<!-- n_0 -->
<g id="node1" class="node">
<title>n_0</title>
<ellipse fill="white" stroke="white" cx="501.8" cy="-58" rx="1.8" ry="1.8"/>
<text text-anchor="middle" x="469" y="-45" font-family="Times,serif" font-size="14.00" fill="white">val(bool)</text>
</g>
<!-- e_3 -->
<g id="node11" class="node">
<title>e_3</title>
<path fill="none" stroke="white" d="M551.6,-25C551.6,-25 637.6,-25 637.6,-25 643.6,-25 649.6,-31 649.6,-37 649.6,-37 649.6,-151 649.6,-151 649.6,-157 643.6,-163 637.6,-163 637.6,-163 551.6,-163 551.6,-163 545.6,-163 539.6,-157 539.6,-151 539.6,-151 539.6,-37 539.6,-37 539.6,-31 545.6,-25 551.6,-25"/>
<text text-anchor="middle" x="550.1" y="-147.8" font-family="Times,serif" font-size="14.00" fill="white"> </text>
<polyline fill="none" stroke="white" points="539.6,-140 560.6,-140 "/>
<text text-anchor="middle" x="550.1" y="-124.8" font-family="Times,serif" font-size="14.00" fill="white"> </text>
<polyline fill="none" stroke="white" points="539.6,-117 560.6,-117 "/>
<text text-anchor="middle" x="550.1" y="-101.8" font-family="Times,serif" font-size="14.00" fill="white"> </text>
<polyline fill="none" stroke="white" points="539.6,-94 560.6,-94 "/>
<text text-anchor="middle" x="550.1" y="-78.8" font-family="Times,serif" font-size="14.00" fill="white"> </text>
<polyline fill="none" stroke="white" points="539.6,-71 560.6,-71 "/>
<text text-anchor="middle" x="550.1" y="-55.8" font-family="Times,serif" font-size="14.00" fill="white"> </text>
<polyline fill="none" stroke="white" points="539.6,-48 560.6,-48 "/>
<text text-anchor="middle" x="550.1" y="-32.8" font-family="Times,serif" font-size="14.00" fill="white"> </text>
<polyline fill="none" stroke="white" points="560.6,-25 560.6,-163 "/>
<text text-anchor="middle" x="594.6" y="-90.3" font-family="Times,serif" font-size="14.00" fill="white">bool.ifc</text>
<polyline fill="none" stroke="white" points="628.6,-25 628.6,-163 "/>
<text text-anchor="middle" x="639.1" y="-90.3" font-family="Times,serif" font-size="14.00" fill="white"> </text>
</g>
<!-- n_0&#45;&gt;e_3 -->
<g id="edge12" class="edge">
<title>n_0&#45;&gt;e_3:s_4</title>
<path fill="none" stroke="white" d="M503.71,-58.04C507.85,-58.23 525.28,-59 539.6,-59"/>
</g>
<!-- n_1 -->
<g id="node2" class="node">
<title>n_1</title>
<ellipse fill="white" stroke="white" cx="501.8" cy="-82" rx="1.8" ry="1.8"/>
<text text-anchor="middle" x="469" y="-69" font-family="Times,serif" font-size="14.00" fill="white">val(bool)</text>
</g>
<!-- n_1&#45;&gt;e_3 -->
<g id="edge10" class="edge">
<title>n_1&#45;&gt;e_3:s_2</title>
<path fill="none" stroke="white" d="M503.58,-83.03C507.15,-87.62 522.51,-106 539.6,-106"/>
</g>
<!-- n_2 -->
<g id="node3" class="node">
<title>n_2</title>
<ellipse fill="white" stroke="white" cx="501.8" cy="-25" rx="1.8" ry="1.8"/>
<text text-anchor="middle" x="648.6" y="-12" font-family="Times,serif" font-size="14.00" fill="white">val(buf(cap.own, u64, f32)) * val(ix(u64))</text>
</g>
<!-- n_2&#45;&gt;e_3 -->
<g id="edge13" class="edge">
<title>n_2&#45;&gt;e_3:s_5</title>
<path fill="none" stroke="white" d="M503.68,-25.47C507.69,-27.58 524.66,-36 539.6,-36"/>
</g>
<!-- n_3 -->
<g id="node4" class="node">
<title>n_3</title>
<ellipse fill="white" stroke="white" cx="501.8" cy="-184" rx="1.8" ry="1.8"/>
<text text-anchor="middle" x="495" y="-171" font-family="Times,serif" font-size="14.00" fill="white">1</text>
</g>
<!-- n_3&#45;&gt;e_3 -->
<g id="edge8" class="edge">
<title>n_3&#45;&gt;e_3:s_0</title>
<path fill="none" stroke="white" d="M503.49,-182.62C506.68,-176.5 520.63,-152 539.6,-152"/>
</g>
<!-- n_4 -->
<g id="node5" class="node">
<title>n_4</title>
<ellipse fill="white" stroke="white" cx="501.8" cy="-129" rx="1.8" ry="1.8"/>
<text text-anchor="middle" x="276" y="-131" font-family="Times,serif" font-size="14.00" fill="white">val((1 * (val(buf(cap.own, u64, f32)) * val(ix(u64)))) &#45;&gt; val(f32))</text>
</g>
<!-- n_4&#45;&gt;e_3 -->
<g id="edge9" class="edge">
<title>n_4&#45;&gt;e_3:s_1</title>
<path fill="none" stroke="white" d="M503.71,-129C507.85,-129 525.29,-129 539.6,-129"/>
</g>
<!-- n_5 -->
<g id="node6" class="node">
<title>n_5</title>
<ellipse fill="white" stroke="white" cx="501.8" cy="-106" rx="1.8" ry="1.8"/>
<text text-anchor="middle" x="250" y="-93" font-family="Times,serif" font-size="14.00" fill="white">val((val(bool) * (val(buf(cap.own, u64, f32)) * val(ix(u64)))) &#45;&gt; val(f32))</text>
</g>
<!-- n_5&#45;&gt;e_3 -->
<g id="edge11" class="edge">
<title>n_5&#45;&gt;e_3:s_3</title>
<path fill="none" stroke="white" d="M503.58,-104.97C507.15,-100.38 522.51,-82 539.6,-82"/>
</g>
<!-- n_6 -->
<g id="node7" class="node">
<title>n_6</title>
<ellipse fill="white" stroke="white" cx="687.4" cy="-94" rx="1.8" ry="1.8"/>
<text text-anchor="middle" x="661.7" y="-81" font-family="Times,serif" font-size="14.00" fill="white">val(f32)</text>
</g>
<!-- targets -->
<g id="node13" class="node">
<title>targets</title>
</g>
<!-- n_6&#45;&gt;targets -->
<g id="edge4" class="edge">
<title>n_6&#45;&gt;targets:p_0</title>
<path fill="none" stroke="white" stroke-dasharray="5,2" d="M689.31,-94C693.45,-94 710.89,-94 725.2,-94"/>
</g>
<!-- e_0 -->
<g id="node8" class="node">
<title>e_0</title>
<path fill="none" stroke="white" d="M323.5,-199C323.5,-199 404.5,-199 404.5,-199 410.5,-199 416.5,-205 416.5,-211 416.5,-211 416.5,-223 416.5,-223 416.5,-229 410.5,-235 404.5,-235 404.5,-235 323.5,-235 323.5,-235 317.5,-235 311.5,-229 311.5,-223 311.5,-223 311.5,-211 311.5,-211 311.5,-205 317.5,-199 323.5,-199"/>
<text text-anchor="middle" x="353.5" y="-213.3" font-family="Times,serif" font-size="14.00" fill="white">unit.intro</text>
<polyline fill="none" stroke="white" points="395.5,-199 395.5,-235 "/>
<text text-anchor="middle" x="406" y="-213.3" font-family="Times,serif" font-size="14.00" fill="white"> </text>
</g>
<!-- e_0&#45;&gt;n_3 -->
<g id="edge5" class="edge">
<title>e_0:t_0&#45;&gt;n_3</title>
<path fill="none" stroke="white" d="M418,-217C454.52,-217 494.07,-188.95 500.03,-184.57"/>
</g>
<!-- e_1 -->
<g id="node9" class="node">
<title>e_1</title>
<path fill="none" stroke="white" d="M279.5,-144C279.5,-144 448.5,-144 448.5,-144 454.5,-144 460.5,-150 460.5,-156 460.5,-156 460.5,-168 460.5,-168 460.5,-174 454.5,-180 448.5,-180 448.5,-180 279.5,-180 279.5,-180 273.5,-180 267.5,-174 267.5,-168 267.5,-168 267.5,-156 267.5,-156 267.5,-150 273.5,-144 279.5,-144"/>
<text text-anchor="middle" x="353.5" y="-158.3" font-family="Times,serif" font-size="14.00" fill="white">name.f32.pool&#45;at&#45;zero</text>
<polyline fill="none" stroke="white" points="439.5,-144 439.5,-180 "/>
<text text-anchor="middle" x="450" y="-158.3" font-family="Times,serif" font-size="14.00" fill="white"> </text>
</g>
<!-- e_1&#45;&gt;n_4 -->
<g id="edge6" class="edge">
<title>e_1:t_0&#45;&gt;n_4</title>
<path fill="none" stroke="white" d="M462,-162C481.81,-162 496.66,-136.73 500.06,-130.42"/>
</g>
<!-- e_2 -->
<g id="node10" class="node">
<title>e_2</title>
<path fill="none" stroke="white" d="M276,-89C276,-89 452,-89 452,-89 458,-89 464,-95 464,-101 464,-101 464,-113 464,-113 464,-119 458,-125 452,-125 452,-125 276,-125 276,-125 270,-125 264,-119 264,-113 264,-113 264,-101 264,-101 264,-95 270,-89 276,-89"/>
<text text-anchor="middle" x="353.5" y="-103.3" font-family="Times,serif" font-size="14.00" fill="white">name.f32.pool&#45;nonzero</text>
<polyline fill="none" stroke="white" points="443,-89 443,-125 "/>
<text text-anchor="middle" x="453.5" y="-103.3" font-family="Times,serif" font-size="14.00" fill="white"> </text>
</g>
<!-- e_2&#45;&gt;n_5 -->
<g id="edge7" class="edge">
<title>e_2:t_0&#45;&gt;n_5</title>
<path fill="none" stroke="white" d="M464,-107C478.32,-107 495.75,-106.23 499.89,-106.04"/>
</g>
<!-- e_3&#45;&gt;n_6 -->
<g id="edge14" class="edge">
<title>e_3:t_0&#45;&gt;n_6</title>
<path fill="none" stroke="white" d="M649.6,-94C663.91,-94 681.35,-94 685.49,-94"/>
</g>
<!-- sources -->
<g id="node12" class="node">
<title>sources</title>
</g>
<!-- sources&#45;&gt;n_0 -->
<g id="edge1" class="edge">
<title>sources:p_0&#45;&gt;n_0</title>
<path fill="none" stroke="white" stroke-dasharray="5,2" d="M392,-58C436.58,-58 491.43,-58 499.73,-58"/>
</g>
<!-- sources&#45;&gt;n_1 -->
<g id="edge2" class="edge">
<title>sources:p_1&#45;&gt;n_1</title>
<path fill="none" stroke="white" stroke-dasharray="5,2" d="M392,-35C440.56,-35 492.05,-74.94 499.8,-81.18"/>
</g>
<!-- sources&#45;&gt;n_2 -->
<g id="edge3" class="edge">
<title>sources:p_2&#45;&gt;n_2</title>
<path fill="none" stroke="white" stroke-dasharray="5,2" d="M392,-12C436.89,-12 491.48,-23.05 499.73,-24.77"/>
</g>
</g>
</svg>
