<?xml version="1.0" encoding="UTF-8" standalone="no"?>
<!DOCTYPE svg PUBLIC "-//W3C//DTD SVG 1.1//EN"
 "http://www.w3.org/Graphics/SVG/1.1/DTD/svg11.dtd">
<!-- Generated by graphviz version 2.43.0 (0)
 -->
<!-- Title: G Pages: 1 -->
<svg width="960pt" height="271pt"
 viewBox="0.00 0.00 959.60 271.30" xmlns="http://www.w3.org/2000/svg" xmlns:xlink="http://www.w3.org/1999/xlink">
<g id="graph0" class="graph" transform="scale(1 1) rotate(0) translate(4 267.3)">
<title>G</title>
<polygon fill="#4a4a4a" stroke="transparent" points="-4,4 -4,-267.3 955.6,-267.3 955.6,4 -4,4"/>
<!-- n_0 -->
<g id="node1" class="node">
<title>n_0</title>
<ellipse fill="white" stroke="white" cx="501.8" cy="-75.8" rx="1.8" ry="1.8"/>
<text text-anchor="middle" x="469" y="-62.8" font-family="Times,serif" font-size="14.00" fill="white">val(bool)</text>
</g>
<!-- e_3 -->
<g id="node11" class="node">
<title>e_3</title>
<path fill="none" stroke="white" d="M551.6,-17.8C551.6,-17.8 637.6,-17.8 637.6,-17.8 643.6,-17.8 649.6,-23.8 649.6,-29.8 649.6,-29.8 649.6,-143.8 649.6,-143.8 649.6,-149.8 643.6,-155.8 637.6,-155.8 637.6,-155.8 551.6,-155.8 551.6,-155.8 545.6,-155.8 539.6,-149.8 539.6,-143.8 539.6,-143.8 539.6,-29.8 539.6,-29.8 539.6,-23.8 545.6,-17.8 551.6,-17.8"/>
<text text-anchor="middle" x="550.1" y="-140.6" font-family="Times,serif" font-size="14.00" fill="white"> </text>
<polyline fill="none" stroke="white" points="539.6,-132.8 560.6,-132.8 "/>
<text text-anchor="middle" x="550.1" y="-117.6" font-family="Times,serif" font-size="14.00" fill="white"> </text>
<polyline fill="none" stroke="white" points="539.6,-109.8 560.6,-109.8 "/>
<text text-anchor="middle" x="550.1" y="-94.6" font-family="Times,serif" font-size="14.00" fill="white"> </text>
<polyline fill="none" stroke="white" points="539.6,-86.8 560.6,-86.8 "/>
<text text-anchor="middle" x="550.1" y="-71.6" font-family="Times,serif" font-size="14.00" fill="white"> </text>
<polyline fill="none" stroke="white" points="539.6,-63.8 560.6,-63.8 "/>
<text text-anchor="middle" x="550.1" y="-48.6" font-family="Times,serif" font-size="14.00" fill="white"> </text>
<polyline fill="none" stroke="white" points="539.6,-40.8 560.6,-40.8 "/>
<text text-anchor="middle" x="550.1" y="-25.6" font-family="Times,serif" font-size="14.00" fill="white"> </text>
<polyline fill="none" stroke="white" points="560.6,-17.8 560.6,-155.8 "/>
<text text-anchor="middle" x="594.6" y="-83.1" font-family="Times,serif" font-size="14.00" fill="white">bool.ifc</text>
<polyline fill="none" stroke="white" points="628.6,-17.8 628.6,-155.8 "/>
<text text-anchor="middle" x="639.1" y="-83.1" font-family="Times,serif" font-size="14.00" fill="white"> </text>
</g>
<!-- n_0&#45;&gt;e_3 -->
<g id="edge11" class="edge">
<title>n_0&#45;&gt;e_3:s_3</title>
<path fill="none" stroke="white" d="M503.71,-75.76C507.85,-75.57 525.28,-74.8 539.6,-74.8"/>
</g>
<!-- n_1 -->
<g id="node2" class="node">
<title>n_1</title>
<ellipse fill="white" stroke="white" cx="501.8" cy="-121.8" rx="1.8" ry="1.8"/>
<text text-anchor="middle" x="472.6" y="-108.8" font-family="Times,serif" font-size="14.00" fill="white">val(bool)</text>
</g>
<!-- n_1&#45;&gt;e_3 -->
<g id="edge9" class="edge">
<title>n_1&#45;&gt;e_3:s_1</title>
<path fill="none" stroke="white" d="M503.71,-121.8C507.85,-121.8 525.29,-121.8 539.6,-121.8"/>
</g>
<!-- n_2 -->
<g id="node3" class="node">
<title>n_2</title>
<ellipse fill="white" stroke="white" cx="501.8" cy="-45.8" rx="1.8" ry="1.8"/>
<text text-anchor="middle" x="403.5" y="-32.8" font-family="Times,serif" font-size="14.00" fill="white">val(buf(cap.own, u64, f32))</text>
</g>
<!-- n_2&#45;&gt;e_3 -->
<g id="edge12" class="edge">
<title>n_2&#45;&gt;e_3:s_4</title>
<path fill="none" stroke="white" d="M503.7,-46.06C507.8,-47.21 525.1,-51.8 539.6,-51.8"/>
</g>
<!-- n_3 -->
<g id="node4" class="node">
<title>n_3</title>
<ellipse fill="white" stroke="white" cx="501.8" cy="-16.8" rx="1.8" ry="1.8"/>
<text text-anchor="middle" x="459" y="-3.8" font-family="Times,serif" font-size="14.00" fill="white">val(ix(u64))</text>
</g>
<!-- n_3&#45;&gt;e_3 -->
<g id="edge13" class="edge">
<title>n_3&#45;&gt;e_3:s_5</title>
<path fill="none" stroke="white" d="M503.68,-17.32C507.66,-19.61 524.55,-28.8 539.6,-28.8"/>
</g>
<!-- n_4 -->
<g id="node5" class="node">
<title>n_4</title>
<ellipse fill="white" stroke="white" cx="501.8" cy="-166.8" rx="1.8" ry="1.8"/>
<text text-anchor="middle" x="727.6" y="-168.8" font-family="Times,serif" font-size="14.00" fill="white">val((1 * (val(buf(cap.own, u64, f32)) * val(ix(u64)))) &#45;&gt; val(f32))</text>
</g>
<!-- n_4&#45;&gt;e_3 -->
<g id="edge8" class="edge">
<title>n_4&#45;&gt;e_3:s_0</title>
<path fill="none" stroke="white" d="M503.6,-165.85C507.26,-161.64 522.93,-144.8 539.6,-144.8"/>
</g>
<!-- n_5 -->
<g id="node6" class="node">
<title>n_5</title>
<ellipse fill="white" stroke="white" cx="501.8" cy="-98.8" rx="1.8" ry="1.8"/>
<text text-anchor="middle" x="250" y="-100.8" font-family="Times,serif" font-size="14.00" fill="white">val((val(bool) * (val(buf(cap.own, u64, f32)) * val(ix(u64)))) &#45;&gt; val(f32))</text>
</g>
<!-- n_5&#45;&gt;e_3 -->
<g id="edge10" class="edge">
<title>n_5&#45;&gt;e_3:s_2</title>
<path fill="none" stroke="white" d="M503.71,-98.8C507.85,-98.8 525.29,-98.8 539.6,-98.8"/>
</g>
<!-- n_6 -->
<g id="node7" class="node">
<title>n_6</title>
<ellipse fill="white" stroke="white" cx="687.4" cy="-86.8" rx="1.8" ry="1.8"/>
<text text-anchor="middle" x="661.7" y="-73.8" font-family="Times,serif" font-size="14.00" fill="white">val(f32)</text>
</g>
<!-- targets -->
<g id="node13" class="node">
<title>targets</title>
</g>
<!-- n_6&#45;&gt;targets -->
<g id="edge5" class="edge">
<title>n_6&#45;&gt;targets:p_0</title>
<path fill="none" stroke="white" stroke-dasharray="5,2" d="M689.31,-86.8C693.45,-86.8 710.89,-86.8 725.2,-86.8"/>
</g>
<!-- e_0 -->
<g id="node8" class="node">
<title>e_0</title>
<path fill="none" stroke="white" d="M334,-226.8C334,-226.8 394,-226.8 394,-226.8 400,-226.8 406,-232.8 406,-238.8 406,-238.8 406,-250.8 406,-250.8 406,-256.8 400,-262.8 394,-262.8 394,-262.8 334,-262.8 334,-262.8 328,-262.8 322,-256.8 322,-250.8 322,-250.8 322,-238.8 322,-238.8 322,-232.8 328,-226.8 334,-226.8"/>
<text text-anchor="middle" x="364" y="-241.1" font-family="Times,serif" font-size="14.00" fill="white">unit.intro</text>
</g>
<!-- e_1 -->
<g id="node9" class="node">
<title>e_1</title>
<path fill="none" stroke="white" d="M279.5,-171.8C279.5,-171.8 448.5,-171.8 448.5,-171.8 454.5,-171.8 460.5,-177.8 460.5,-183.8 460.5,-183.8 460.5,-195.8 460.5,-195.8 460.5,-201.8 454.5,-207.8 448.5,-207.8 448.5,-207.8 279.5,-207.8 279.5,-207.8 273.5,-207.8 267.5,-201.8 267.5,-195.8 267.5,-195.8 267.5,-183.8 267.5,-183.8 267.5,-177.8 273.5,-171.8 279.5,-171.8"/>
<text text-anchor="middle" x="353.5" y="-186.1" font-family="Times,serif" font-size="14.00" fill="white">name.f32.pool&#45;at&#45;zero</text>
<polyline fill="none" stroke="white" points="439.5,-171.8 439.5,-207.8 "/>
<text text-anchor="middle" x="450" y="-186.1" font-family="Times,serif" font-size="14.00" fill="white"> </text>
</g>
<!-- e_1&#45;&gt;n_4 -->
<g id="edge6" class="edge">
<title>e_1:t_0&#45;&gt;n_4</title>
<path fill="none" stroke="white" d="M462,-189.8C479.54,-189.8 496.09,-172.19 499.96,-167.79"/>
</g>
<!-- e_2 -->
<g id="node10" class="node">
<title>e_2</title>
<path fill="none" stroke="white" d="M276,-116.8C276,-116.8 452,-116.8 452,-116.8 458,-116.8 464,-122.8 464,-128.8 464,-128.8 464,-140.8 464,-140.8 464,-146.8 458,-152.8 452,-152.8 452,-152.8 276,-152.8 276,-152.8 270,-152.8 264,-146.8 264,-140.8 264,-140.8 264,-128.8 264,-128.8 264,-122.8 270,-116.8 276,-116.8"/>
<text text-anchor="middle" x="353.5" y="-131.1" font-family="Times,serif" font-size="14.00" fill="white">name.f32.pool&#45;nonzero</text>
<polyline fill="none" stroke="white" points="443,-116.8 443,-152.8 "/>
<text text-anchor="middle" x="453.5" y="-131.1" font-family="Times,serif" font-size="14.00" fill="white"> </text>
</g>
<!-- e_2&#45;&gt;n_5 -->
<g id="edge7" class="edge">
<title>e_2:t_0&#45;&gt;n_5</title>
<path fill="none" stroke="white" d="M454,-115.8C454,-105.6 493.77,-99.76 499.99,-98.91"/>
</g>
<!-- e_3&#45;&gt;n_6 -->
<g id="edge14" class="edge">
<title>e_3:t_0&#45;&gt;n_6</title>
<path fill="none" stroke="white" d="M649.6,-86.8C663.91,-86.8 681.35,-86.8 685.49,-86.8"/>
</g>
<!-- sources -->
<g id="node12" class="node">
<title>sources</title>
</g>
<!-- sources&#45;&gt;n_0 -->
<g id="edge1" class="edge">
<title>sources:p_0&#45;&gt;n_0</title>
<path fill="none" stroke="white" stroke-dasharray="5,2" d="M392,-86.8C436.81,-86.8 491.46,-77.45 499.73,-75.99"/>
</g>
<!-- sources&#45;&gt;n_1 -->
<g id="edge2" class="edge">
<title>sources:p_1&#45;&gt;n_1</title>
<path fill="none" stroke="white" stroke-dasharray="5,2" d="M392,-63.8C442.52,-63.8 492.36,-113.09 499.84,-120.79"/>
</g>
<!-- sources&#45;&gt;n_2 -->
<g id="edge3" class="edge">
<title>sources:p_2&#45;&gt;n_2</title>
<path fill="none" stroke="white" stroke-dasharray="5,2" d="M392,-39.8C436.65,-39.8 491.44,-44.9 499.73,-45.7"/>
</g>
<!-- sources&#45;&gt;n_3 -->
<g id="edge4" class="edge">
<title>sources:p_3&#45;&gt;n_3</title>
<path fill="none" stroke="white" stroke-dasharray="5,2" d="M392,-16.8C436.58,-16.8 491.43,-16.8 499.73,-16.8"/>
</g>
</g>
</svg>
